<?xml version="1.0" encoding="UTF-8" standalone="no"?>
<!-- Created with Inkscape (http://www.inkscape.org/) -->

<svg
   xmlns:dc="http://purl.org/dc/elements/1.1/"
   xmlns:cc="http://creativecommons.org/ns#"
   xmlns:rdf="http://www.w3.org/1999/02/22-rdf-syntax-ns#"
   xmlns:svg="http://www.w3.org/2000/svg"
   xmlns="http://www.w3.org/2000/svg"
   xmlns:sodipodi="http://sodipodi.sourceforge.net/DTD/sodipodi-0.dtd"
   xmlns:inkscape="http://www.inkscape.org/namespaces/inkscape"
   width="109.48711mm"
   height="48.595139mm"
   viewBox="0 0 387.94647 172.1875"
   id="svg5254"
   version="1.1"
   inkscape:version="0.91 r13725"
   sodipodi:docname="cifam.svg">
  <defs
     id="defs5256" />
  <sodipodi:namedview
     id="base"
     pagecolor="#ffffff"
     bordercolor="#666666"
     borderopacity="1.0"
     inkscape:pageopacity="0.0"
     inkscape:pageshadow="2"
     inkscape:zoom="0.35"
     inkscape:cx="176.11609"
     inkscape:cy="-202.47767"
     inkscape:document-units="px"
     inkscape:current-layer="layer1"
     showgrid="false"
     fit-margin-top="0"
     fit-margin-left="0"
     fit-margin-right="0"
     fit-margin-bottom="0"
     inkscape:window-width="1364"
     inkscape:window-height="747"
     inkscape:window-x="0"
     inkscape:window-y="0"
     inkscape:window-maximized="1" />
  <metadata
     id="metadata5259">
    <rdf:RDF>
      <cc:Work
         rdf:about="">
        <dc:format>image/svg+xml</dc:format>
        <dc:type
           rdf:resource="http://purl.org/dc/dcmitype/StillImage" />
        <dc:title></dc:title>
      </cc:Work>
    </rdf:RDF>
  </metadata>
  <g
     inkscape:label="Layer 1"
     inkscape:groupmode="layer"
     id="layer1"
     transform="translate(-148.88391,-157.69703)">
    <g
       transform="translate(-308.26549,-668.48239)"
       id="g4516">
      <path
         style="fill:#44aa00;fill-opacity:1"
         d="m 468.70945,967.80327 c -0.0926,-0.2371 -0.12892,-31.91015 -0.0808,-70.38455 0.058,-46.40289 -0.0268,-70.00042 -0.25173,-70.0929 -0.1865,-0.0768 14.99644,-0.13942 33.73988,-0.13942 18.74345,0 33.9264,0.0627 33.73989,0.13942 -0.22494,0.0925 -0.31003,23.83831 -0.25275,70.53493 0.0475,38.71751 -0.0289,70.34559 -0.16955,70.2846 -0.14074,-0.0611 -7.41583,-7.23475 -16.16686,-15.94167 -8.75102,-8.70694 -16.1899,-15.97658 -16.53084,-16.15477 -0.39869,-0.20836 -0.83165,-0.21023 -1.2133,-0.005 -0.59727,0.32078 -6.38918,6.00643 -23.41392,22.98439 -5.53136,5.51615 -9.29914,9.03353 -9.39995,8.77522 z"
         id="path4661"
         inkscape:connector-curvature="0" />
      <path
         inkscape:connector-curvature="0"
         id="path4565"
         d="m 567.77444,996.49192 0,-1.875 137.8125,0 137.8125,0 0,1.875 0,1.875 -137.8125,0 -137.8125,0 0,-1.875 z m -110.625,-84.61349 0,-85.69901 1.8744,0 1.87441,0 0.0787,80.96921 0.0787,80.96921 16.5625,-17.11174 c 9.10938,-9.41146 18.10938,-18.70951 20,-20.66234 3.35827,-3.46875 3.46907,-3.55045 4.80719,-3.54496 1.67396,0.007 0.0683,-1.55251 23.65632,22.97437 9.58716,9.96875 17.5463,18.17188 17.68697,18.22917 0.14067,0.0573 0.25577,-36.32943 0.25577,-80.85938 l 0,-80.96354 149.6875,0 149.6875,0 0,1.87467 0,1.87467 -147.89063,0.0785 -147.89062,0.0784 -0.0787,83.67032 -0.0787,83.67033 -22.36265,-23.20157 c -12.29946,-12.76086 -22.47924,-23.20157 -22.62174,-23.20157 -0.14251,0 -9.77957,9.84375 -21.4157,21.875 -11.63613,12.03125 -21.77639,22.50596 -22.53393,23.27714 l -1.37733,1.40213 0,-85.69901 z m 260.84386,67.55062 -5.21886,-7.06288 0,5.58709 c 0,6.27274 0.1504,6.80018 2.04023,7.15471 0.61957,0.11623 1.08477,0.38961 1.08477,0.63748 0,0.34514 -0.73564,0.43397 -3.59375,0.43397 -2.89678,0 -3.59375,-0.0861 -3.59375,-0.44392 0,-0.24416 0.4217,-0.53654 0.93711,-0.64975 1.7356,-0.3812 1.87539,-0.93481 1.87539,-7.42757 0,-5.80168 -0.0103,-5.89249 -0.75434,-6.63651 -0.41489,-0.41488 -1.11801,-0.84561 -1.5625,-0.95717 -0.44449,-0.11156 -0.80816,-0.39853 -0.80816,-0.63771 0,-0.33455 0.56571,-0.43487 2.4523,-0.43487 l 2.45231,0 2.92597,3.98438 c 1.60929,2.1914 3.81991,5.17852 4.91248,6.63803 l 1.98649,2.65366 -0.0992,-5.57009 c -0.0916,-5.14452 -0.1469,-5.60541 -0.72415,-6.03243 -0.34375,-0.2543 -1.01172,-0.54152 -1.48438,-0.63827 -0.47266,-0.0967 -0.85937,-0.36926 -0.85937,-0.60559 0,-0.33968 0.75284,-0.42969 3.59375,-0.42969 2.84091,0 3.59375,0.09 3.59375,0.42969 0,0.23633 -0.40493,0.51067 -0.89984,0.60965 -1.89748,0.3795 -1.91266,0.44959 -1.91266,8.82673 0,7.14228 -0.0362,7.63393 -0.56239,7.63393 -0.37098,0 -2.33856,-2.40377 -5.78125,-7.06287 z m 77.33426,6.48587 c -1.36897,-0.48811 -1.69494,-0.51744 -1.83031,-0.16469 -0.0906,0.23606 -0.43088,0.42919 -0.75625,0.42919 -0.53891,0 -0.59156,-0.26426 -0.59156,-2.96875 0,-3.58625 0.36425,-3.79807 1.71875,-0.99949 1.14328,2.36218 2.44771,3.34324 4.44525,3.34324 1.89503,0 3.211,-1.26104 3.211,-3.07698 0,-1.71145 -1.11104,-2.97657 -3.21235,-3.65784 -0.89728,-0.29091 -2.32281,-0.89844 -3.16787,-1.35006 -4.60788,-2.46262 -2.55825,-8.77475 2.85368,-8.78838 0.38069,-9.3e-4 1.34675,0.22049 2.14679,0.4921 1.04178,0.3537 1.55037,0.39804 1.79215,0.15625 0.89647,-0.89647 1.1501,-0.3507 1.1501,2.47491 0,3.27267 -0.46794,3.72158 -1.33488,1.28065 -1.106,-3.11404 -4.0585,-4.44382 -6.05453,-2.72691 -0.6535,0.56212 -0.85422,1.00571 -0.83072,1.83567 0.0493,1.73682 0.6155,2.41111 2.85591,3.40065 5.39697,2.38377 6.12315,3.06096 6.12315,5.70999 0,1.34445 -0.16918,1.89341 -0.86437,2.80486 -1.67006,2.18955 -4.62319,2.88621 -7.65394,1.80559 z m -187.86562,-0.20425 c 0,-0.29487 0.29742,-0.46875 0.80179,-0.46875 1.76549,0 2.01071,-0.40693 2.01071,-3.33669 l 0,-2.6897 -1.95313,-3.7451 c -2.04221,-3.91594 -3.30946,-5.54101 -4.32091,-5.54101 -0.33053,0 -0.60096,-0.21094 -0.60096,-0.46875 0,-0.39062 0.625,-0.46875 3.75,-0.46875 3.125,0 3.75,0.0781 3.75,0.46875 0,0.31358 -0.31359,0.46875 -0.94731,0.46875 -0.54836,0 -1.0221,0.1949 -1.1249,0.4628 -0.16863,0.43945 3.21809,7.04297 3.60646,7.03198 0.27122,-0.008 3.47502,-5.43151 3.68688,-6.24166 0.20426,-0.78109 -0.3089,-1.24096 -1.39301,-1.24834 -0.41454,-0.003 -0.70312,-0.19717 -0.70312,-0.47353 0,-0.38377 0.53819,-0.46875 2.96875,-0.46875 2.31444,0 2.96875,0.095 2.96875,0.43084 0,0.23696 -0.42263,0.60589 -0.93917,0.81985 -1.04595,0.43325 -3.08562,3.29614 -5.04247,7.07767 -1.03747,2.00486 -1.20586,2.61445 -1.20586,4.36525 0,2.50995 0.32711,3.15968 1.72254,3.42147 0.62353,0.11698 1.08996,0.39019 1.08996,0.63845 0,0.34804 -0.80442,0.43397 -4.0625,0.43397 -3.40278,0 -4.0625,-0.0761 -4.0625,-0.46875 z m 17.5,0 c 0,-0.25781 0.27341,-0.46875 0.60757,-0.46875 1.36746,0 2.15195,-1.3466 5.09684,-8.74878 1.93512,-4.86404 3.08901,-7.37486 3.41842,-7.4383 0.38255,-0.0737 1.20789,1.69222 3.57783,7.65503 2.86836,7.21683 3.15009,7.78309 4.08945,8.21955 1.9698,0.91524 1.28117,1.25 -2.57136,1.25 -2.98612,0 -3.59375,-0.0793 -3.59375,-0.46875 0,-0.28132 0.2885,-0.46875 0.72152,-0.46875 0.39684,0 0.94336,-0.17578 1.2145,-0.39062 0.44426,-0.35202 0.41464,-0.60014 -0.29978,-2.51042 l -0.79276,-2.11979 -3.13074,0.0885 -3.13073,0.0885 -0.60174,1.80718 c -0.33095,0.99395 -0.52554,2.00573 -0.43243,2.24839 0.0931,0.24266 0.66889,0.53492 1.27948,0.64947 0.63897,0.11987 1.11018,0.39247 1.11018,0.64224 0,0.34274 -0.68979,0.43397 -3.28125,0.43397 -2.70834,0 -3.28125,-0.0818 -3.28125,-0.46875 z m 10.9375,-6.56034 c 0,-0.26512 -2.27009,-5.92812 -2.46816,-6.15712 -0.10345,-0.11961 -0.77234,1.25149 -1.48643,3.04687 l -1.29833,3.26434 2.62646,0 c 1.44455,0 2.62646,-0.0693 2.62646,-0.15409 z m 7.1875,6.56034 c 0,-0.26389 0.27935,-0.46875 0.6392,-0.46875 0.35156,0 0.98437,-0.34517 1.40625,-0.76705 0.76219,-0.76218 0.76705,-0.8058 0.76705,-6.8892 0,-6.0834 -0.005,-6.12702 -0.76705,-6.8892 -0.42188,-0.42188 -1.05469,-0.76705 -1.40625,-0.76705 -0.36654,0 -0.6392,-0.20478 -0.6392,-0.48007 0,-0.40475 0.47289,-0.46603 3.01458,-0.39062 l 3.01459,0.0894 2.34465,6.17188 c 1.28956,3.39453 2.4294,6.17187 2.53298,6.17187 0.24443,0 4.7182,-11.40279 4.7182,-12.0258 0,-0.38881 0.50646,-0.4742 2.8125,-0.4742 2.09177,0 2.8125,0.10356 2.8125,0.40413 0,0.22227 -0.45704,0.53867 -1.01563,0.70312 l -1.01562,0.299 -0.0843,7.03092 c -0.076,6.33379 -0.0313,7.06968 0.45036,7.42187 0.29406,0.21503 0.85935,0.39096 1.25618,0.39096 0.43302,0 0.72153,0.18743 0.72153,0.46875 0,0.39167 -0.64237,0.46875 -3.90625,0.46875 -3.26389,0 -3.90625,-0.0771 -3.90625,-0.46875 0,-0.30682 0.30711,-0.46875 0.88906,-0.46875 1.79652,0 1.92344,-0.49134 1.92344,-7.44648 0,-3.46694 -0.10547,-6.30121 -0.23438,-6.29839 -0.12891,0.003 -1.50836,3.1931 -3.06546,7.08953 -1.5571,3.89642 -2.97995,7.13402 -3.16189,7.19466 -0.18194,0.0607 -1.57982,-3.23078 -3.10641,-7.31429 l -2.77561,-7.42456 -0.0849,6.2068 c -0.0941,6.88038 0.0359,7.44821 1.79305,7.83415 0.52145,0.11453 0.94809,0.408 0.94809,0.65216 0,0.35665 -0.67574,0.44392 -3.4375,0.44392 -2.84723,0 -3.4375,-0.0805 -3.4375,-0.46875 z m 23.75,0.0915 c 0,-0.23706 0.45703,-0.56556 1.01562,-0.73001 l 1.01563,-0.299 0,-7.1758 0,-7.17581 -1.01563,-0.29127 c -0.55859,-0.16021 -1.01562,-0.49398 -1.01562,-0.74171 0,-0.72963 9.77636,-0.44169 11.19649,0.32976 2.86232,1.5549 2.01529,6.02185 -1.26633,6.67817 -1.00485,0.20097 -1.17084,0.72041 -0.23021,0.72041 0.99124,0 3.04631,1.17091 3.63682,2.07213 0.77223,1.17857 0.6998,3.52268 -0.14552,4.70983 -1.26871,1.78174 -2.46177,2.10935 -8.11313,2.22784 -4.15941,0.0872 -5.07812,0.0285 -5.07812,-0.32454 z m 9.73739,-1.45131 c 0.87127,-0.77848 1.01476,-1.13303 1.13582,-2.80661 0.13393,-1.85158 0.10182,-1.95231 -0.96108,-3.01521 -1.01749,-1.01748 -1.24204,-1.09963 -3.00588,-1.09963 l -1.90625,0 0,3.57822 c 0,4.05714 0.0863,4.20804 2.41694,4.22478 1.02158,0.007 1.55052,-0.19361 2.32045,-0.88155 z m -0.65086,-8.77241 c 0.77185,-0.77185 0.91347,-1.16163 0.91347,-2.51421 0,-2.28123 -0.8896,-3.13483 -3.26705,-3.13483 l -1.73295,0 0,3.28125 0,3.28125 1.58653,0 c 1.33688,0 1.73029,-0.14374 2.5,-0.91346 z m 6.85097,10.13221 c 0,-0.30807 0.30825,-0.46875 0.89923,-0.46875 0.49458,0 1.05982,-0.19349 1.25608,-0.42997 0.24981,-0.301 0.33159,-2.52729 0.27264,-7.42188 l -0.0842,-6.9919 -1.17188,-0.28949 c -0.64453,-0.15922 -1.17187,-0.47563 -1.17187,-0.70313 0,-0.32111 0.87368,-0.41363 3.90625,-0.41363 3.26388,0 3.90625,0.0771 3.90625,0.46875 0,0.28132 -0.28851,0.46875 -0.72153,0.46875 -0.39683,0 -0.96212,0.17593 -1.25618,0.39096 -0.48165,0.35219 -0.52631,1.08808 -0.45036,7.42187 l 0.0843,7.03092 1.17187,0.28949 c 0.64453,0.15922 1.17188,0.47563 1.17188,0.70313 0,0.32111 -0.87369,0.41363 -3.90625,0.41363 -3.26389,0 -3.90625,-0.0771 -3.90625,-0.46875 z m 9.6875,0 c 0,-0.26539 0.28006,-0.46875 0.64554,-0.46875 0.35505,0 0.91755,-0.14557 1.25,-0.32349 0.56987,-0.30499 0.60446,-0.7223 0.60446,-7.29359 l 0,-6.9701 -0.79596,-0.36266 c -0.43777,-0.19946 -1.00027,-0.36266 -1.25,-0.36266 -0.24972,0 -0.45404,-0.21094 -0.45404,-0.46875 0,-0.40213 0.95486,-0.46875 6.71875,-0.46875 l 6.71875,0 0,2.03125 c 0,2.27608 -0.55998,2.75962 -1.25439,1.08316 -0.7191,-1.73605 -1.6444,-2.17691 -4.56901,-2.17691 l -2.6141,0 0,3.4375 0,3.4375 1.71875,0 c 1.88936,0 2.78792,-0.577 3.15092,-2.0233 0.10895,-0.43406 0.39377,-0.7892 0.63295,-0.7892 0.34389,0 0.43488,0.68653 0.43488,3.28125 0,2.59472 -0.091,3.28125 -0.43488,3.28125 -0.23918,0 -0.524,-0.35514 -0.63295,-0.7892 -0.36535,-1.45568 -1.25926,-2.0233 -3.18637,-2.0233 l -1.75419,0 0.11997,3.24093 c 0.078,2.10577 0.26795,3.41924 0.54246,3.75 0.32552,0.39224 0.99216,0.50907 2.90477,0.50907 1.36525,0 2.75656,-0.14679 3.09179,-0.3262 0.33524,-0.17942 1.04254,-1.09348 1.57179,-2.03125 0.52925,-0.93778 1.08947,-1.70505 1.24494,-1.70505 0.31535,0 0.37921,3.20165 0.0857,4.29688 l -0.18843,0.70312 -7.15105,0 c -6.14816,0 -7.15105,-0.0657 -7.15105,-0.46875 z m 38.4375,0 c 0,-0.27945 0.28741,-0.46875 0.71171,-0.46875 0.39145,0 1.02426,-0.21891 1.40625,-0.48647 0.6834,-0.47867 0.69454,-0.60146 0.69454,-7.65625 l 0,-7.16978 -1.50404,0 c -1.65235,0 -2.60905,0.72173 -3.62456,2.73438 -0.80431,1.59405 -1.1214,1.2185 -1.1214,-1.32813 l 0,-2.34375 7.5,0 7.5,0 0,2.34375 c 0,1.78334 -0.10302,2.34375 -0.43084,2.34375 -0.23696,0 -0.61332,-0.44056 -0.83636,-0.97902 -0.22304,-0.53846 -0.74479,-1.38221 -1.15944,-1.875 -0.64147,-0.76234 -0.98284,-0.89598 -2.28864,-0.89598 l -1.53472,0 0,7.16978 c 0,7.05479 0.0111,7.17758 0.69453,7.65625 0.38199,0.26756 1.0148,0.48647 1.40625,0.48647 0.4243,0 0.71172,0.1893 0.71172,0.46875 0,0.39263 -0.65973,0.46875 -4.0625,0.46875 -3.40278,0 -4.0625,-0.0761 -4.0625,-0.46875 z m 10.9375,0 c 0,-0.25781 0.27341,-0.46875 0.60757,-0.46875 1.36746,0 2.15195,-1.3466 5.09684,-8.74878 1.93512,-4.86404 3.08901,-7.37486 3.41842,-7.4383 0.38255,-0.0737 1.20789,1.69222 3.57783,7.65503 2.86836,7.21683 3.15009,7.78309 4.08945,8.21955 1.9698,0.91524 1.28117,1.25 -2.57136,1.25 -2.98612,0 -3.59375,-0.0793 -3.59375,-0.46875 0,-0.28132 0.2885,-0.46875 0.72152,-0.46875 0.39684,0 0.94336,-0.17578 1.2145,-0.39062 0.44426,-0.35202 0.41464,-0.60014 -0.29978,-2.51042 l -0.79276,-2.11979 -3.13074,0.0885 -3.13073,0.0885 -0.60174,1.80718 c -0.33095,0.99395 -0.52554,2.00573 -0.43243,2.24839 0.0931,0.24266 0.66889,0.53492 1.27948,0.64947 0.63897,0.11987 1.11018,0.39247 1.11018,0.64224 0,0.34274 -0.68979,0.43397 -3.28125,0.43397 -2.70834,0 -3.28125,-0.0818 -3.28125,-0.46875 z m 10.9375,-6.56034 c 0,-0.26512 -2.27009,-5.92812 -2.46816,-6.15712 -0.10345,-0.11961 -0.77234,1.25149 -1.48643,3.04687 l -1.29833,3.26434 2.62646,0 c 1.44455,0 2.62646,-0.0693 2.62646,-0.15409 z m 7.8125,6.56034 c 0,-0.2808 0.28819,-0.46875 0.71875,-0.46875 1.40271,0 1.46875,-0.34612 1.46875,-7.69852 l 0,-6.94852 -1.09375,-0.39551 c -0.60157,-0.21753 -1.09375,-0.57819 -1.09375,-0.80148 0,-0.30943 0.85462,-0.40597 3.59375,-0.40597 2.7307,0 3.59375,0.097 3.59375,0.40413 0,0.22227 -0.45704,0.53867 -1.01563,0.70312 l -1.01562,0.299 -0.0842,6.9919 c -0.0589,4.89459 0.0228,7.12088 0.27264,7.42188 0.23888,0.28783 1.0594,0.42997 2.4821,0.42997 2.48268,0 3.54565,-0.65854 4.50812,-2.79291 1.10744,-2.4558 1.71056,-1.32498 1.21638,2.28054 l -0.19872,1.44987 -6.67629,0 c -5.72613,0 -6.67627,-0.0667 -6.67627,-0.46875 z m 14.6875,0 c 0,-0.26539 0.28006,-0.46875 0.64553,-0.46875 0.35506,0 0.91756,-0.14557 1.25,-0.32349 0.56987,-0.30499 0.60447,-0.7223 0.60447,-7.29359 l 0,-6.9701 -0.79597,-0.36266 c -0.43775,-0.19946 -1.00025,-0.36266 -1.25,-0.36266 -0.24972,0 -0.45403,-0.21094 -0.45403,-0.46875 0,-0.40213 0.95487,-0.46875 6.71875,-0.46875 l 6.71875,0 0,2.03125 c 0,2.27608 -0.55997,2.75962 -1.25438,1.08316 -0.71909,-1.73605 -1.64441,-2.17691 -4.56903,-2.17691 l -2.61409,0 0,3.4375 0,3.4375 1.71875,0 c 1.88937,0 2.78793,-0.577 3.15093,-2.0233 0.10894,-0.43406 0.39375,-0.7892 0.63294,-0.7892 0.34388,0 0.43488,0.68653 0.43488,3.28125 0,2.59472 -0.091,3.28125 -0.43488,3.28125 -0.23919,0 -0.524,-0.35514 -0.63294,-0.7892 -0.36537,-1.45568 -1.25928,-2.0233 -3.18637,-2.0233 l -1.75419,0 0.11997,3.24093 c 0.0779,2.10577 0.26794,3.41924 0.54244,3.75 0.32553,0.39224 0.99215,0.50907 2.90478,0.50907 1.36525,0 2.75656,-0.14679 3.09178,-0.3262 0.33525,-0.17942 1.04256,-1.09348 1.57181,-2.03125 0.52925,-0.93778 1.08947,-1.70505 1.24494,-1.70505 0.31534,0 0.37919,3.20165 0.0857,4.29688 l -0.18844,0.70312 -7.15103,0 c -6.14816,0 -7.15106,-0.0657 -7.15106,-0.46875 z m -207.5,-26.25 0,-1.71875 137.8125,0 137.8125,0 0,1.71875 0,1.71875 -137.8125,0 -137.8125,0 0,-1.71875 z m 1.87297,-9.49218 c -4.64676,-1.52355 -6.9767,-6.41945 -5.46981,-11.49371 0.94834,-3.19338 3.04087,-5.1401 6.24823,-5.81285 1.49064,-0.31267 2.07271,-0.28617 3.82834,0.1743 1.40701,0.36903 2.17253,0.44092 2.38909,0.22436 0.17527,-0.17527 0.50149,-0.31867 0.72493,-0.31867 0.30625,0 0.40625,0.76923 0.40625,3.125 0,3.62968 -0.44179,4.10767 -1.37308,1.48556 -0.32955,-0.92786 -1.09144,-2.1486 -1.75534,-2.8125 -1.00582,-1.00582 -1.37219,-1.17306 -2.56986,-1.17306 -1.96112,0 -3.30808,0.98126 -4.43085,3.22788 -0.79806,1.59688 -0.90954,2.15592 -0.90358,4.53125 0.007,2.94099 0.41926,4.27637 1.83961,5.96437 1.09736,1.30413 2.31647,1.9015 3.8806,1.9015 2.0093,0 3.68004,-1.127 4.72971,-3.19044 0.31346,-0.61621 0.5526,-0.77135 0.87849,-0.56994 0.70269,0.43428 -1.10502,3.12037 -2.68873,3.99519 -1.38832,0.7669 -4.44954,1.1629 -5.734,0.74176 z m 45.22089,-6.78944 -5.21886,-7.06288 0,5.58709 c 0,6.27274 0.1504,6.80018 2.04023,7.15471 0.61957,0.11623 1.08477,0.38961 1.08477,0.63748 0,0.34514 -0.73564,0.43397 -3.59375,0.43397 -2.89678,0 -3.59375,-0.0861 -3.59375,-0.44392 0,-0.24416 0.4217,-0.53654 0.93711,-0.64975 1.7356,-0.3812 1.87539,-0.93481 1.87539,-7.42757 0,-5.80169 -0.0103,-5.89249 -0.75434,-6.63651 -0.41489,-0.41488 -1.11801,-0.84561 -1.5625,-0.95717 -0.44449,-0.11156 -0.80816,-0.39853 -0.80816,-0.63771 0,-0.33455 0.56571,-0.43487 2.4523,-0.43487 l 2.45231,0 2.92597,3.98438 c 1.60929,2.1914 3.81991,5.17852 4.91248,6.63803 l 1.98649,2.65366 -0.0991,-5.57009 c -0.0916,-5.14452 -0.1469,-5.60541 -0.72415,-6.03243 -0.34375,-0.2543 -1.01172,-0.54152 -1.48438,-0.63827 -0.47266,-0.0967 -0.85937,-0.36926 -0.85937,-0.60559 0,-0.33968 0.75284,-0.42969 3.59375,-0.42969 2.84091,0 3.59375,0.09 3.59375,0.42969 0,0.23633 -0.40493,0.51067 -0.89984,0.60965 -1.89748,0.3795 -1.91266,0.44959 -1.91266,8.82673 0,7.14228 -0.0362,7.63393 -0.56239,7.63393 -0.37098,0 -2.33856,-2.40377 -5.78125,-7.06287 z m 16.34161,6.78944 c -4.64676,-1.52355 -6.9767,-6.41945 -5.46981,-11.49371 0.94834,-3.19338 3.04087,-5.1401 6.24823,-5.81285 1.49064,-0.31267 2.07271,-0.28617 3.82834,0.1743 1.40701,0.36903 2.17253,0.44092 2.38909,0.22436 0.17527,-0.17527 0.50149,-0.31867 0.72493,-0.31867 0.30625,0 0.40625,0.76923 0.40625,3.125 0,3.62968 -0.44179,4.10767 -1.37308,1.48556 -0.32955,-0.92786 -1.09144,-2.1486 -1.75534,-2.8125 -1.00582,-1.00582 -1.37219,-1.17306 -2.56986,-1.17306 -1.96112,0 -3.30808,0.98126 -4.43085,3.22788 -0.79806,1.59688 -0.90954,2.15592 -0.90358,4.53125 0.007,2.94099 0.41926,4.27637 1.83961,5.96437 1.09736,1.30413 2.31647,1.9015 3.8806,1.9015 2.0093,0 3.68004,-1.127 4.72971,-3.19044 0.31346,-0.61621 0.5526,-0.77135 0.87849,-0.56994 0.70269,0.43428 -1.10502,3.12037 -2.68873,3.99519 -1.38832,0.7669 -4.44954,1.1629 -5.734,0.74176 z m 40.05516,-0.30357 c -1.36897,-0.48811 -1.69494,-0.51744 -1.83031,-0.16469 -0.0906,0.23606 -0.4309,0.42919 -0.75626,0.42919 -0.5389,0 -0.59156,-0.26426 -0.59156,-2.96875 0,-3.58625 0.36424,-3.79807 1.71875,-0.99949 1.14329,2.36218 2.44773,3.34324 4.44525,3.34324 1.89503,0 3.211,-1.26104 3.211,-3.07698 0,-1.71145 -1.11104,-2.97657 -3.21235,-3.65784 -0.89727,-0.29091 -2.32281,-0.89844 -3.16786,-1.35006 -4.60788,-2.46262 -2.55828,-8.77475 2.85366,-8.78838 0.38071,-9.3e-4 1.34676,0.22049 2.14678,0.4921 1.0418,0.3537 1.55038,0.39804 1.79217,0.15625 0.89647,-0.89647 1.1501,-0.3507 1.1501,2.47491 0,3.27267 -0.46793,3.72158 -1.33487,1.28065 -1.10601,-3.11404 -4.0585,-4.44382 -6.05452,-2.72691 -0.65351,0.56212 -0.85425,1.00571 -0.83073,1.83567 0.0492,1.73682 0.6155,2.41111 2.85588,3.40065 5.39697,2.38377 6.12316,3.06097 6.12316,5.70999 0,1.34445 -0.16917,1.89341 -0.86436,2.80486 -1.67005,2.18955 -4.6232,2.88621 -7.65393,1.80559 z m 37.40972,0.14587 c -6.7919,-1.83018 -7.94664,-12.58474 -1.73233,-16.13388 3.38271,-1.93194 7.33901,-1.44102 9.92662,1.23178 1.71152,1.76786 2.46786,3.73757 2.46786,6.42698 0,2.6908 -0.75625,4.65951 -2.46786,6.42445 -2.15867,2.22593 -4.95079,2.92468 -8.19429,2.05067 z m 4.72952,-1.08152 c 0.70375,-0.37173 1.42046,-1.17306 2.02638,-2.26563 0.88441,-1.59475 0.93704,-1.88511 0.92949,-5.12797 -0.007,-2.96248 -0.10914,-3.64329 -0.73982,-4.92673 -0.94595,-1.92498 -2.20163,-2.80802 -4.22354,-2.97012 -2.10788,-0.169 -3.46658,0.71903 -4.63801,3.03133 -0.76133,1.50281 -0.85937,2.04115 -0.85937,4.71867 0,3.16658 0.30857,4.55569 1.34109,6.03715 1.39753,2.00518 4.00819,2.6419 6.16378,1.5033 z m 45.36076,0.93565 c -1.36897,-0.48811 -1.69494,-0.51744 -1.83031,-0.16469 -0.0906,0.23606 -0.4309,0.42919 -0.75626,0.42919 -0.5389,0 -0.59156,-0.26426 -0.59156,-2.96875 0,-3.58625 0.36424,-3.79807 1.71875,-0.99949 1.14329,2.36218 2.44773,3.34324 4.44525,3.34324 1.89503,0 3.211,-1.26104 3.211,-3.07698 0,-1.71145 -1.11104,-2.97657 -3.21235,-3.65784 -0.89727,-0.29091 -2.32281,-0.89844 -3.16786,-1.35006 -4.60788,-2.46262 -2.55828,-8.77475 2.85366,-8.78838 0.38071,-9.3e-4 1.34676,0.22049 2.14678,0.4921 1.0418,0.3537 1.55038,0.39804 1.79217,0.15625 0.89647,-0.89647 1.1501,-0.3507 1.1501,2.47491 0,3.27267 -0.46793,3.72158 -1.33487,1.28065 -1.10601,-3.11404 -4.0585,-4.44382 -6.05452,-2.72691 -0.65351,0.56212 -0.85425,1.00571 -0.83073,1.83567 0.0492,1.73682 0.6155,2.41111 2.85588,3.40065 5.39697,2.38377 6.12316,3.06097 6.12316,5.70999 0,1.34445 -0.16917,1.89341 -0.86436,2.80486 -1.67005,2.18955 -4.6232,2.88621 -7.65393,1.80559 z m 77.81249,0 c -1.36897,-0.48811 -1.69494,-0.51744 -1.83031,-0.16469 -0.0906,0.23606 -0.43088,0.42919 -0.75625,0.42919 -0.53891,0 -0.59156,-0.26426 -0.59156,-2.96875 0,-3.58625 0.36425,-3.79807 1.71875,-0.99949 1.14328,2.36218 2.44771,3.34324 4.44525,3.34324 1.89503,0 3.211,-1.26104 3.211,-3.07698 0,-1.71145 -1.11104,-2.97657 -3.21235,-3.65784 -0.89728,-0.29091 -2.32281,-0.89844 -3.16787,-1.35006 -4.60788,-2.46262 -2.55825,-8.77475 2.85368,-8.78838 0.38069,-9.3e-4 1.34675,0.22049 2.14679,0.4921 1.04178,0.3537 1.55037,0.39804 1.79215,0.15625 0.89647,-0.89647 1.1501,-0.3507 1.1501,2.47491 0,3.27267 -0.46794,3.72158 -1.33488,1.28065 -1.106,-3.11404 -4.0585,-4.44382 -6.05453,-2.72691 -0.6535,0.56212 -0.85422,1.00571 -0.83072,1.83567 0.0493,1.73682 0.6155,2.41111 2.85591,3.40065 5.39697,2.38377 6.12315,3.06096 6.12315,5.70999 0,1.34445 -0.16918,1.89341 -0.86437,2.80486 -1.67006,2.18955 -4.62319,2.88621 -7.65394,1.80559 z m -256.61562,-0.20425 c 0,-0.30807 0.30825,-0.46875 0.89923,-0.46875 0.49458,0 1.05982,-0.19349 1.25608,-0.42997 0.24981,-0.301 0.33159,-2.52729 0.27264,-7.42188 l -0.0842,-6.9919 -1.17188,-0.28949 c -0.64453,-0.15922 -1.17187,-0.47563 -1.17187,-0.70313 0,-0.32111 0.87368,-0.41363 3.90625,-0.41363 3.26388,0 3.90625,0.0771 3.90625,0.46875 0,0.28132 -0.28851,0.46875 -0.72153,0.46875 -0.39683,0 -0.96212,0.17593 -1.25618,0.39096 -0.48165,0.35219 -0.52631,1.08808 -0.45036,7.42187 l 0.0843,7.03092 1.17187,0.28949 c 0.64453,0.15922 1.17188,0.47563 1.17188,0.70313 0,0.32111 -0.87369,0.41363 -3.90625,0.41363 -3.26389,0 -3.90625,-0.0771 -3.90625,-0.46875 z m 9.6875,0 c 0,-0.26539 0.28006,-0.46875 0.64554,-0.46875 0.35505,0 0.91755,-0.14557 1.25,-0.32349 0.56987,-0.30499 0.60446,-0.7223 0.60446,-7.29359 l 0,-6.9701 -0.79596,-0.36266 c -0.43777,-0.19946 -1.00027,-0.36266 -1.25,-0.36266 -0.24972,0 -0.45404,-0.21094 -0.45404,-0.46875 0,-0.40213 0.95486,-0.46875 6.71875,-0.46875 l 6.71875,0 0,2.03125 c 0,2.27608 -0.55998,2.75962 -1.25439,1.08316 -0.7191,-1.73605 -1.6444,-2.17691 -4.56901,-2.17691 l -2.6141,0 0,3.4375 0,3.4375 1.71875,0 c 1.88936,0 2.78792,-0.577 3.15092,-2.0233 0.10895,-0.43406 0.39377,-0.7892 0.63295,-0.7892 0.34389,0 0.43488,0.68652 0.43488,3.28125 0,2.59473 -0.091,3.28125 -0.43488,3.28125 -0.23918,0 -0.524,-0.35514 -0.63295,-0.7892 -0.36535,-1.45568 -1.25926,-2.0233 -3.18637,-2.0233 l -1.75419,0 0.11997,3.24093 c 0.0779,2.10577 0.26795,3.41924 0.54246,3.75 0.32552,0.39224 0.99216,0.50907 2.90477,0.50907 1.36525,0 2.75656,-0.14679 3.09179,-0.3262 0.33524,-0.17942 1.04254,-1.09348 1.57179,-2.03125 0.52925,-0.93778 1.08947,-1.70505 1.24494,-1.70505 0.31535,0 0.37921,3.20165 0.0857,4.29688 l -0.18843,0.70312 -7.15105,0 c -6.14816,0 -7.15105,-0.0657 -7.15105,-0.46875 z m 51.5625,0 c 0,-0.30807 0.30825,-0.46875 0.89923,-0.46875 0.49458,0 1.05982,-0.19349 1.25608,-0.42997 0.24981,-0.301 0.33159,-2.52729 0.27264,-7.42188 l -0.0842,-6.9919 -1.17188,-0.28949 c -0.64453,-0.15922 -1.17187,-0.47563 -1.17187,-0.70313 0,-0.32111 0.87368,-0.41363 3.90625,-0.41363 3.26388,0 3.90625,0.0771 3.90625,0.46875 0,0.28132 -0.28851,0.46875 -0.72153,0.46875 -0.39683,0 -0.96212,0.17593 -1.25618,0.39096 -0.48165,0.35219 -0.52631,1.08808 -0.45036,7.42187 l 0.0843,7.03092 1.17187,0.28949 c 0.64453,0.15922 1.17188,0.47563 1.17188,0.70313 0,0.32111 -0.87369,0.41363 -3.90625,0.41363 -3.26389,0 -3.90625,-0.0771 -3.90625,-0.46875 z m 8.125,0 c 0,-0.25781 0.27341,-0.46875 0.60757,-0.46875 1.36746,0 2.15195,-1.3466 5.09684,-8.74878 1.93512,-4.86404 3.08901,-7.37486 3.41842,-7.4383 0.38255,-0.0737 1.20789,1.69222 3.57783,7.65503 2.86836,7.21683 3.15009,7.78309 4.08945,8.21955 1.9698,0.91524 1.28117,1.25 -2.57136,1.25 -2.98612,0 -3.59375,-0.0793 -3.59375,-0.46875 0,-0.28132 0.2885,-0.46875 0.72152,-0.46875 0.39684,0 0.94336,-0.17578 1.2145,-0.39062 0.44426,-0.35202 0.41464,-0.60014 -0.29978,-2.51042 l -0.79276,-2.11979 -3.13074,0.0885 -3.13073,0.0885 -0.60174,1.80718 c -0.33095,0.99395 -0.52554,2.00573 -0.43243,2.24839 0.0931,0.24266 0.66889,0.53492 1.27948,0.64947 0.63897,0.11987 1.11018,0.39247 1.11018,0.64224 0,0.34274 -0.68979,0.43397 -3.28125,0.43397 -2.70834,0 -3.28125,-0.0818 -3.28125,-0.46875 z m 10.9375,-6.56034 c 0,-0.26512 -2.27009,-5.92812 -2.46816,-6.15712 -0.10345,-0.11961 -0.77234,1.25149 -1.48643,3.04687 l -1.29833,3.26434 2.62646,0 c 1.44455,0 2.62646,-0.0693 2.62646,-0.15409 z m 27.5,6.56034 c 0,-0.30506 0.30555,-0.46875 0.875,-0.46875 1.5781,0 1.625,-0.22133 1.625,-7.66859 l 0,-6.91859 -0.79596,-0.36266 c -0.43777,-0.19946 -1.00027,-0.36266 -1.25,-0.36266 -0.24972,0 -0.45404,-0.21094 -0.45404,-0.46875 0,-0.40246 0.97222,-0.46875 6.875,-0.46875 l 6.875,0 0,2.1875 c 0,2.52644 -0.54959,2.94317 -1.43123,1.08525 -0.91368,-1.92543 -1.73931,-2.33525 -4.70467,-2.33525 l -2.6141,0 0,3.4375 0,3.4375 1.82656,0 c 1.9735,0 2.53345,-0.34796 3.14395,-1.9537 0.65748,-1.72931 0.96699,-0.89561 0.96699,2.60474 0,2.56146 -0.098,3.43088 -0.37627,3.33812 -0.20695,-0.069 -0.49059,-0.56659 -0.63031,-1.10579 -0.35529,-1.3711 -1.32463,-1.94587 -3.28171,-1.94587 l -1.64921,0 0,3.125 c 0,2.70833 0.0833,3.20833 0.625,3.75 0.34375,0.34375 0.90625,0.625 1.25,0.625 0.34722,0 0.625,0.20833 0.625,0.46875 0,0.39063 -0.625,0.46875 -3.75,0.46875 -3.125,0 -3.75,-0.0781 -3.75,-0.46875 z m 34.0625,0 c 0,-0.28523 0.29088,-0.46875 0.74298,-0.46875 1.3874,0 1.4619,-0.42625 1.37247,-7.85185 l -0.0842,-6.9919 -1.01563,-0.299 c -0.55859,-0.16445 -1.01562,-0.48085 -1.01562,-0.70312 0,-0.51776 8.293,-0.56739 10.15625,-0.0608 3.31806,0.90217 4.34281,4.48907 1.95067,6.82783 -0.53656,0.5246 -1.13294,0.95381 -1.32527,0.95381 -0.19234,0 -0.60888,0.18952 -0.92565,0.42114 -0.53885,0.39403 -0.42138,0.62525 1.82406,3.59027 2.24721,2.96738 3.5598,4.11359 4.71067,4.11359 0.26634,0 0.48427,0.21094 0.48427,0.46875 0,0.37463 -0.46647,0.46875 -2.32322,0.46875 l -2.32322,0 -1.66936,-2.42187 c -3.38368,-4.90898 -3.78254,-5.36543 -4.69983,-5.37844 l -0.85937,-0.0122 0,3.0625 c 0,3.25761 0.21376,3.8125 1.46875,3.8125 0.43055,0 0.71875,0.18795 0.71875,0.46875 0,0.38949 -0.60764,0.46875 -3.59375,0.46875 -2.98612,0 -3.59375,-0.0793 -3.59375,-0.46875 z m 8.44772,-8.75529 c 1.19867,-0.61985 1.86478,-1.96053 1.86478,-3.75323 0,-1.18133 -0.1671,-1.6129 -0.91347,-2.35927 -0.79122,-0.79122 -1.14667,-0.91346 -2.65625,-0.91346 l -1.74278,0 0,3.75 0,3.75 1.26551,0 c 0.69604,0 1.67804,-0.21332 2.18221,-0.47404 z m 8.73978,8.75529 c 0,-0.26539 0.28006,-0.46875 0.64554,-0.46875 0.35505,0 0.91755,-0.14557 1.25,-0.32349 0.56987,-0.30499 0.60446,-0.7223 0.60446,-7.29359 l 0,-6.9701 -0.79596,-0.36266 c -0.43777,-0.19946 -1.00027,-0.36266 -1.25,-0.36266 -0.24972,0 -0.45404,-0.21094 -0.45404,-0.46875 0,-0.40213 0.95486,-0.46875 6.71875,-0.46875 l 6.71875,0 0,2.03125 c 0,2.27608 -0.55998,2.75962 -1.25439,1.08316 -0.7191,-1.73605 -1.6444,-2.17691 -4.56901,-2.17691 l -2.6141,0 0,3.4375 0,3.4375 1.71875,0 c 1.88936,0 2.78792,-0.577 3.15092,-2.0233 0.10895,-0.43406 0.39377,-0.7892 0.63295,-0.7892 0.34389,0 0.43488,0.68652 0.43488,3.28125 0,2.59473 -0.091,3.28125 -0.43488,3.28125 -0.23918,0 -0.524,-0.35514 -0.63295,-0.7892 -0.36535,-1.45568 -1.25926,-2.0233 -3.18637,-2.0233 l -1.75419,0 0.11997,3.24093 c 0.078,2.10577 0.26795,3.41924 0.54246,3.75 0.32552,0.39224 0.99216,0.50907 2.90477,0.50907 1.36525,0 2.75656,-0.14679 3.09179,-0.3262 0.33524,-0.17942 1.04254,-1.09348 1.57179,-2.03125 0.52925,-0.93778 1.08947,-1.70505 1.24494,-1.70505 0.31535,0 0.37921,3.20165 0.0857,4.29688 l -0.18843,0.70312 -7.15105,0 c -6.14816,0 -7.15105,-0.0657 -7.15105,-0.46875 z m 33.125,0 c 0,-0.27945 0.2874,-0.46875 0.71171,-0.46875 0.39144,0 1.02425,-0.21891 1.40625,-0.48647 0.68341,-0.47867 0.69454,-0.60146 0.69454,-7.65625 l 0,-7.16978 -1.50404,0 c -1.65237,0 -2.60906,0.72173 -3.62456,2.73438 -0.80431,1.59405 -1.1214,1.2185 -1.1214,-1.32813 l 0,-2.34375 7.5,0 7.5,0 0,2.34375 c 0,1.78334 -0.10304,2.34375 -0.43085,2.34375 -0.23697,0 -0.61331,-0.44056 -0.83634,-0.97902 -0.22306,-0.53846 -0.74478,-1.38221 -1.15944,-1.875 -0.64147,-0.76234 -0.98284,-0.89598 -2.28866,-0.89598 l -1.53471,0 0,7.16978 c 0,7.05479 0.0112,7.17758 0.69453,7.65625 0.382,0.26756 1.01481,0.48647 1.40625,0.48647 0.42431,0 0.71172,0.1893 0.71172,0.46875 0,0.39263 -0.65972,0.46875 -4.0625,0.46875 -3.40279,0 -4.0625,-0.0761 -4.0625,-0.46875 z m 10.9375,0 c 0,-0.25781 0.2734,-0.46875 0.60756,-0.46875 1.36747,0 2.15197,-1.3466 5.09684,-8.74878 1.93513,-4.86404 3.08903,-7.37486 3.41844,-7.4383 0.38253,-0.0737 1.20787,1.69222 3.57781,7.65503 2.86838,7.21683 3.1501,7.78309 4.08947,8.21955 1.96978,0.91524 1.28116,1.25 -2.57137,1.25 -2.98613,0 -3.59375,-0.0793 -3.59375,-0.46875 0,-0.28132 0.2885,-0.46875 0.72153,-0.46875 0.39681,0 0.94334,-0.17578 1.2145,-0.39062 0.44425,-0.35202 0.41462,-0.60014 -0.29978,-2.51042 l -0.79279,-2.11979 -3.13071,0.0885 -3.13075,0.0885 -0.60172,1.80718 c -0.33097,0.99395 -0.52557,2.00573 -0.43244,2.24839 0.0931,0.24266 0.66887,0.53492 1.27947,0.64947 0.63897,0.11987 1.11019,0.39247 1.11019,0.64224 0,0.34274 -0.68979,0.43397 -3.28125,0.43397 -2.70835,0 -3.28125,-0.0818 -3.28125,-0.46875 z m 10.9375,-6.56034 c 0,-0.26512 -2.2701,-5.92812 -2.46816,-6.15712 -0.10344,-0.11961 -0.77234,1.25149 -1.48644,3.04687 l -1.29831,3.26434 2.62644,0 c 1.44456,0 2.62647,-0.0693 2.62647,-0.15409 z m 7.8125,6.56034 c 0,-0.2808 0.28818,-0.46875 0.71875,-0.46875 1.40271,0 1.46875,-0.34612 1.46875,-7.69852 l 0,-6.94852 -1.09375,-0.39551 c -0.60157,-0.21753 -1.09375,-0.57819 -1.09375,-0.80148 0,-0.30943 0.85462,-0.40597 3.59375,-0.40597 2.73068,0 3.59375,0.097 3.59375,0.40413 0,0.22227 -0.45704,0.53867 -1.01563,0.70312 l -1.01562,0.299 -0.0842,6.9919 c -0.0589,4.89459 0.0228,7.12088 0.27265,7.42188 0.23888,0.28783 1.05941,0.42997 2.4821,0.42997 2.48268,0 3.54565,-0.65854 4.50812,-2.79291 1.10744,-2.4558 1.71056,-1.32498 1.21638,2.28054 l -0.19872,1.44987 -6.67628,0 c -5.72613,0 -6.67628,-0.0667 -6.67628,-0.46875 z m 14.6875,0 c 0,-0.26539 0.28006,-0.46875 0.64553,-0.46875 0.35506,0 0.91756,-0.14557 1.25,-0.32349 0.56987,-0.30499 0.60447,-0.7223 0.60447,-7.29359 l 0,-6.9701 -0.79597,-0.36266 c -0.43775,-0.19946 -1.00025,-0.36266 -1.25,-0.36266 -0.24972,0 -0.45403,-0.21094 -0.45403,-0.46875 0,-0.40213 0.95487,-0.46875 6.71875,-0.46875 l 6.71875,0 0,2.03125 c 0,2.27608 -0.55997,2.75962 -1.25438,1.08316 -0.71909,-1.73605 -1.64441,-2.17691 -4.56903,-2.17691 l -2.61409,0 0,3.4375 0,3.4375 1.71875,0 c 1.88937,0 2.78793,-0.577 3.15093,-2.0233 0.10894,-0.43406 0.39375,-0.7892 0.63294,-0.7892 0.34388,0 0.43488,0.68652 0.43488,3.28125 0,2.59473 -0.091,3.28125 -0.43488,3.28125 -0.23919,0 -0.524,-0.35514 -0.63294,-0.7892 -0.36537,-1.45568 -1.25928,-2.0233 -3.18637,-2.0233 l -1.75419,0 0.11997,3.24093 c 0.0779,2.10577 0.26794,3.41924 0.54244,3.75 0.32553,0.39224 0.99215,0.50907 2.90478,0.50907 1.36525,0 2.75656,-0.14679 3.09178,-0.3262 0.33525,-0.17942 1.04256,-1.09348 1.57181,-2.03125 0.52925,-0.93778 1.08947,-1.70505 1.24494,-1.70505 0.31534,0 0.37919,3.20165 0.0857,4.29688 l -0.18844,0.70312 -7.15103,0 c -6.14816,0 -7.15106,-0.0657 -7.15106,-0.46875 z m -248.75,-27.34375 0,-1.875 137.8125,0 137.8125,0 0,1.875 0,1.875 -137.8125,0 -137.8125,0 0,-1.875 z m 17.1875,-16.69306 c -6.13479,-1.28748 -11.73341,-4.75947 -15.49936,-9.61193 -4.3872,-5.65298 -6.46983,-12.3946 -6.45105,-20.88251 0.0301,-13.59258 6.07781,-24.11546 16.68681,-29.03462 4.16146,-1.92958 6.26789,-2.35341 11.66985,-2.34806 5.54068,0.005 7.6636,0.44177 11.88895,2.44334 l 2.85546,1.35264 0.82323,-1.3629 c 0.81245,-1.34506 0.84581,-1.3629 2.54966,-1.3629 l 1.72645,0 0,4.481 c 0,2.46455 0.0926,7.2458 0.20576,10.625 l 0.20577,6.144 -1.77807,0 c -1.15325,0 -1.81819,-0.13727 -1.89223,-0.39062 -0.0628,-0.21485 -0.5604,-1.86719 -1.10582,-3.67188 -3.48215,-11.52185 -9.98748,-16.58028 -18.6855,-14.52951 -3.129,0.73774 -5.60744,2.16992 -8.04366,4.6481 -3.08066,3.13369 -4.88819,6.85561 -6.26731,12.90509 -0.76617,3.36081 -0.95235,12.70193 -0.32494,16.30329 0.5873,3.37109 2.11217,7.64864 3.64948,10.23744 1.37989,2.32371 4.58286,5.74443 6.57684,7.02397 6.40026,4.10703 15.21337,3.4953 20.82305,-1.44536 1.9663,-1.73179 4.16083,-4.72587 5.22109,-7.12331 l 0.77094,-1.74322 1.57922,0.6563 c 1.7782,0.73899 1.7797,0.75246 0.39418,3.53596 -3.29334,6.61628 -8.42875,10.96449 -14.9892,12.69153 -3.14753,0.82859 -9.69197,1.06727 -12.5896,0.45916 z m 37.5,-2.68194 c 0,-1.0404 0.13052,-1.56329 0.39062,-1.56487 1.81634,-0.011 5.74229,-0.70273 6.48768,-1.14304 1.93241,-1.1415 1.8717,-0.32285 1.8717,-25.23998 0,-18.55178 -0.0785,-22.88502 -0.42971,-23.72562 -0.51136,-1.22385 -2.20833,-2.04577 -5.89842,-2.85688 l -2.42187,-0.53235 0,-1.53113 0,-1.53113 13.28125,0 13.28125,0 0,1.52655 0,1.52655 -2.57813,0.37302 c -1.41797,0.20515 -3.18053,0.6374 -3.9168,0.96054 -2.35721,1.03455 -2.25514,-0.11396 -2.25459,25.36893 3.1e-4,20.87893 0.0418,22.67092 0.54688,23.68191 0.69082,1.38288 2.07244,2.06642 5.52021,2.73108 l 2.68243,0.51711 0,1.50091 0,1.5009 -13.28125,0 -13.28125,0 0,-1.5625 z m 38.125,0.0249 0,-1.53762 2.10937,-0.20853 c 4.54743,-0.44955 5.81246,-1.32989 6.16623,-4.29112 0.10801,-0.90411 0.15347,-11.34697 0.10102,-23.20635 -0.10605,-23.97534 -6.3e-4,-22.83925 -2.23525,-24.09229 -0.6613,-0.37083 -2.31365,-0.91433 -3.67187,-1.2078 l -2.4695,-0.53357 0,-1.53629 0,-1.5363 23.28125,0 23.28125,0 0,7.51633 0,7.51633 -1.58016,-0.0944 -1.58017,-0.0945 -0.70014,-1.71875 c -1.54846,-3.80121 -4.72905,-7.78764 -7.07703,-8.87006 -1.29101,-0.59515 -2.1041,-0.65764 -9.92188,-0.76245 l -8.51562,-0.11416 0,11.93609 0,11.9361 5.23437,-0.11463 c 4.87774,-0.10682 5.35533,-0.17099 7.00958,-0.9418 2.66292,-1.24081 3.65472,-2.87208 4.76346,-7.83471 0.17801,-0.79679 0.30537,-0.85938 1.74854,-0.85938 l 1.55655,0 0,11.71875 0,11.71875 -1.55655,0 c -1.44612,0 -1.5693,-0.061 -1.73638,-0.85937 -0.86525,-4.1347 -1.96261,-6.63952 -3.38362,-7.72338 -1.64113,-1.25175 -4.17939,-1.72975 -9.18525,-1.72975 l -4.48049,0 0.093,11.01563 c 0.10175,12.04836 0.12707,12.22159 1.95097,13.34883 0.53316,0.32951 2.19651,0.84021 3.69634,1.13491 l 2.72697,0.5358 0,1.51366 0,1.51367 -12.8125,0 -12.8125,0 0,-1.53763 z m 42.76453,0.002 -0.10828,-1.53538 1.70208,-0.3415 c 2.50167,-0.50191 4.20282,-1.44212 5.77677,-3.19273 1.51936,-1.6899 3.08147,-5.4713 16.28064,-39.41063 l 5.56012,-14.29682 1.74645,0.005 1.74644,0.005 10.15625,26.27821 c 8.88057,22.97754 10.30822,26.45232 11.36618,27.66428 1.41264,1.61828 2.78529,2.38214 5.27444,2.93517 l 1.79688,0.39922 0,1.51277 0,1.51277 -12.5,0 -12.5,0 0,-1.49268 0,-1.49268 3.01644,-0.51316 c 3.43784,-0.58485 4.67386,-1.27657 4.58074,-2.56355 -0.0325,-0.44896 -1.20782,-3.90929 -2.61186,-7.68961 l -2.5528,-6.87332 -10.40766,0 -10.40765,0 -0.92688,2.42725 c -1.59151,4.16774 -2.92544,8.59838 -3.10625,10.31744 -0.15097,1.43526 -0.0783,1.75243 0.55625,2.42789 0.79072,0.84167 3.54044,1.80784 6.15654,2.16321 l 1.64063,0.22286 0,1.53317 0,1.53318 -11.06359,0 -11.06359,0 -0.10829,-1.53538 z m 36.11906,-25.57393 c -0.59078,-1.50391 -2.57348,-6.57108 -4.40599,-11.26039 -1.83251,-4.6893 -3.43874,-8.41586 -3.56941,-8.28125 -0.13067,0.13462 -2.08891,5.02601 -4.35165,10.86976 -2.26274,5.84375 -4.18649,10.80078 -4.27499,11.01563 -0.12653,0.30713 1.7453,0.39062 8.75764,0.39062 l 8.91856,0 -1.07416,-2.73437 z m 29.86641,25.5751 0,-1.53426 2.26562,-0.37609 c 5.61453,-0.93202 6.93581,-2.53005 7.43647,-8.99391 0.39934,-5.1559 0.37166,-34.41934 -0.0349,-36.93647 -0.63894,-3.95553 -2.82025,-6.08428 -7.05287,-6.88292 l -1.98928,-0.37535 0,-1.52711 0,-1.52712 10.13381,0 10.13378,0 0.61609,1.64063 c 5.239,13.95098 16.0986,42.32259 16.26722,42.49942 0.31819,0.33367 15.1686,-38.11744 15.99153,-41.40567 l 0.68432,-2.73438 9.64912,0 9.64913,0 0,1.53427 0,1.53426 -2.26563,0.37857 c -3.16831,0.52939 -4.53359,1.13559 -5.16825,2.29476 -0.49112,0.89697 -0.53487,2.85587 -0.53487,23.94564 0,25.90802 -0.14735,24.34641 2.41334,25.57982 0.73516,0.35411 2.35619,0.811 3.60228,1.0153 l 2.26563,0.37147 0,1.51671 0,1.5167 -13.28125,0 -13.28125,0 0,-1.5185 0,-1.5185 2.94087,-0.33406 c 3.3405,-0.37946 4.51081,-0.87021 5.55013,-2.32735 l 0.72775,-1.02034 0.0841,-22.57812 c 0.0518,-13.91218 -0.0284,-22.57813 -0.20906,-22.57813 -0.16125,0 -4.85369,11.42578 -10.42763,25.39063 l -10.1344,25.39062 -1.10407,0.0948 c -1.08968,0.0936 -1.11393,0.0691 -1.85987,-1.875 -0.41572,-1.08338 -4.7565,-12.75938 -9.64622,-25.94665 -4.88969,-13.18727 -9.00141,-23.98024 -9.13709,-23.98437 -0.13569,-0.004 -0.20288,9.51982 -0.14928,21.16436 0.0887,19.27083 0.14709,21.31958 0.65075,22.8169 0.88118,2.61976 1.97771,3.61999 4.97975,4.54248 1.4179,0.4357 2.96471,0.87677 3.43737,0.98016 0.79731,0.17441 0.85938,0.30039 0.85938,1.74453 l 0,1.55655 -12.03125,0 -12.03125,0 0,-1.53427 z"
         style="fill:#000000" />
    </g>
  </g>
</svg>
