<?xml version="1.0" encoding="UTF-8" standalone="no"?>
<!-- Created with Inkscape (http://www.inkscape.org/) -->

<svg
   xmlns:dc="http://purl.org/dc/elements/1.1/"
   xmlns:cc="http://creativecommons.org/ns#"
   xmlns:rdf="http://www.w3.org/1999/02/22-rdf-syntax-ns#"
   xmlns:svg="http://www.w3.org/2000/svg"
   xmlns="http://www.w3.org/2000/svg"
   xmlns:sodipodi="http://sodipodi.sourceforge.net/DTD/sodipodi-0.dtd"
   xmlns:inkscape="http://www.inkscape.org/namespaces/inkscape"
   width="122.29654mm"
   height="48.107258mm"
   viewBox="0 0 433.33419 170.45879"
   id="svg6565"
   version="1.1"
   inkscape:version="0.91 r13725"
   sodipodi:docname="mendive.svg">
  <defs
     id="defs6567" />
  <sodipodi:namedview
     id="base"
     pagecolor="#ffffff"
     bordercolor="#666666"
     borderopacity="1.0"
     inkscape:pageopacity="0.0"
     inkscape:pageshadow="2"
     inkscape:zoom="0.35"
     inkscape:cx="213.0957"
     inkscape:cy="-57.627745"
     inkscape:document-units="px"
     inkscape:current-layer="layer1"
     showgrid="false"
     fit-margin-top="0"
     fit-margin-left="0"
     fit-margin-right="0"
     fit-margin-bottom="0"
     inkscape:window-width="1364"
     inkscape:window-height="747"
     inkscape:window-x="0"
     inkscape:window-y="0"
     inkscape:window-maximized="1" />
  <metadata
     id="metadata6570">
    <rdf:RDF>
      <cc:Work
         rdf:about="">
        <dc:format>image/svg+xml</dc:format>
        <dc:type
           rdf:resource="http://purl.org/dc/dcmitype/StillImage" />
        <dc:title></dc:title>
      </cc:Work>
    </rdf:RDF>
  </metadata>
  <g
     inkscape:label="Layer 1"
     inkscape:groupmode="layer"
     id="layer1"
     transform="translate(-111.9043,-304.27567)">
    <g
       transform="translate(-1260.4425,-523.8595)"
       id="g8563">
      <path
         sodipodi:nodetypes="ccccccccc"
         inkscape:connector-curvature="0"
         id="path6010"
         d="m 1372.3468,996.71896 0,-1.875 215.625,0 217.7092,0 0,1.875 0,1.875 -217.7092,0 -215.625,0 z"
         style="fill:#000000" />
      <g
         style="fill:#000000"
         transform="translate(179.75111,164.40249)"
         id="g6032">
        <path
           inkscape:connector-curvature="0"
           style="fill:#000000"
           d="m 1243.4997,815.54967 c -2.8974,-7.78982 -2.9498,-7.89794 -4.1067,-8.46323 -0.6446,-0.31494 -1.1719,-0.70166 -1.1719,-0.85938 0,-0.15772 1.6172,-0.28676 3.5938,-0.28676 2.9861,0 3.5937,0.0793 3.5937,0.46875 0,0.31041 -0.3104,0.46875 -0.9191,0.46875 -0.5054,0 -0.9834,0.10547 -1.0621,0.23437 -0.079,0.12891 0.8782,2.96503 2.1264,6.30249 l 2.2696,6.0681 1.9312,-4.92529 c 2.3471,-5.98579 2.5152,-6.68841 1.7365,-7.25782 -0.3173,-0.23202 -0.9016,-0.42185 -1.2985,-0.42185 -0.433,0 -0.7215,-0.18743 -0.7215,-0.46875 0,-0.38691 0.5729,-0.46875 3.2813,-0.46875 2.7083,0 3.2812,0.0818 3.2812,0.46875 0,0.25781 -0.2687,0.46875 -0.5972,0.46875 -1.1179,0 -2.0832,1.76251 -5.02,9.16579 -2.1996,5.54493 -3.0653,7.39671 -3.458,7.39671 -0.3987,0 -1.2245,-1.88386 -3.4587,-7.89063 z"
           id="path6008" />
        <path
           inkscape:connector-curvature="0"
           style="fill:#000000"
           d="m 1282.7719,822.94561 c -0.8305,-0.30416 -1.3333,-0.34779 -1.5469,-0.13423 -0.174,0.17403 -0.5695,0.31642 -0.8789,0.31642 -0.5025,0 -0.5625,-0.31913 -0.5625,-2.99166 0,-2.62069 0.064,-2.97914 0.5192,-2.89063 0.2856,0.0556 0.6784,0.57395 0.8728,1.15195 0.1945,0.57801 0.803,1.58608 1.3521,2.24016 2.4615,2.93196 6.6309,2.11641 6.6309,-1.29703 0,-1.7038 -1.1574,-2.79328 -4.2564,-4.00677 -2.8092,-1.09996 -4.0461,-2.15965 -4.5187,-3.87113 -1.1555,-4.18512 3.7189,-7.46491 7.911,-5.32292 0.6857,0.35038 0.9764,0.36072 1.4702,0.0523 0.3385,-0.21141 0.6735,-0.31939 0.7444,-0.23996 0.071,0.0794 0.2253,1.37489 0.343,2.87879 0.1968,2.51302 0.1681,2.73438 -0.3538,2.73438 -0.3978,0 -0.7311,-0.45919 -1.1121,-1.53185 -0.7413,-2.08724 -2.335,-3.46815 -4.0027,-3.46815 -1.666,0 -2.7874,1.07254 -2.7874,2.66608 0,1.50083 1.1613,2.64819 3.5976,3.5545 4.3261,1.6093 5.67,3.09705 5.3939,5.97098 -0.1792,1.86501 -1.1183,3.19702 -2.8423,4.03162 -1.5857,0.76762 -4.1242,0.83439 -5.9734,0.15713 z"
           id="path6006" />
        <path
           inkscape:connector-curvature="0"
           style="fill:#000000"
           d="m 1473.1962,822.71412 c -2.4035,-1.27099 -2.6082,-1.94043 -2.7876,-9.11757 l -0.1562,-6.25 -1.0157,-0.299 c -0.5586,-0.16445 -1.0156,-0.48085 -1.0156,-0.70313 0,-0.30707 0.8631,-0.40412 3.5938,-0.40412 2.9861,0 3.5937,0.0793 3.5937,0.46875 0,0.28523 -0.2909,0.46875 -0.743,0.46875 -1.3938,0 -1.4886,0.47946 -1.3852,7.00252 l 0.097,6.11193 0.9941,0.99341 c 1.9671,1.96567 5.8108,1.41554 7.0522,-1.00936 0.4551,-0.88879 0.5465,-1.93087 0.5469,-6.23209 6e-4,-5.73976 -0.1705,-6.33742 -1.9454,-6.79734 -0.5392,-0.13972 -1.0368,-0.42335 -1.1058,-0.6303 -0.093,-0.27892 0.8111,-0.37627 3.4944,-0.37627 3.0093,0 3.6198,0.0791 3.6198,0.46875 0,0.28132 -0.2885,0.46875 -0.7215,0.46875 -0.3969,0 -0.9945,0.19947 -1.3281,0.44326 -0.5553,0.40574 -0.6199,0.96787 -0.7629,6.64063 -0.1462,5.79891 -0.2016,6.26093 -0.8616,7.18616 -1.6366,2.29449 -6.284,3.08887 -9.1633,1.56627 z"
           id="path6004" />
        <path
           inkscape:connector-curvature="0"
           style="fill:#000000"
           d="m 1498.0649,822.57299 c -5.9663,-3.25597 -5.3645,-13.84872 0.9375,-16.50237 1.6968,-0.71449 4.9956,-0.70352 6.3972,0.0213 0.7328,0.37893 1.1128,0.44333 1.1932,0.2022 0.065,-0.19459 0.3874,-0.3538 0.7168,-0.3538 0.5483,0 0.599,0.25136 0.599,2.96875 0,3.47612 -0.5128,3.97519 -1.4388,1.40021 -0.6316,-1.75649 -2.0093,-3.34377 -3.1508,-3.63029 -1.2014,-0.30152 -2.8806,0.10192 -4.0101,0.96343 -1.6505,1.25887 -2.4256,3.71597 -2.2776,7.2196 0.1016,2.40436 0.2501,3.05091 0.9918,4.31646 2.0168,3.44139 5.8903,3.96138 8.4449,1.13367 0.6205,-0.68675 1.1281,-1.38886 1.1281,-1.56023 0,-0.47684 0.6221,-0.37039 0.8179,0.13996 0.2942,0.76675 -1.6266,3.18032 -3.0978,3.89253 -2.0594,0.99695 -5.2052,0.90524 -7.2513,-0.2114 z"
           id="path6002" />
        <path
           inkscape:connector-curvature="0"
           style="fill:#000000"
           d="m 1544.3892,822.63659 c -2.8544,-1.48577 -4.5275,-5.01997 -4.198,-8.86748 0.2213,-2.58462 0.8473,-4.07162 2.4426,-5.80223 2.1572,-2.34033 5.9211,-3.14715 8.8637,-1.9 0.7926,0.33595 1.2847,0.40884 1.3541,0.20057 0.06,-0.17994 0.3786,-0.32716 0.708,-0.32716 0.5483,0 0.599,0.25136 0.599,2.96875 0,2.4576 -0.082,2.96875 -0.4786,2.96875 -0.2632,0 -0.5563,-0.24609 -0.6515,-0.54688 -1.3189,-4.17091 -3.7336,-5.69663 -6.6762,-4.21826 -2.1018,1.05599 -3.2195,3.65092 -3.2094,7.45095 0.01,3.43037 1.2345,5.83712 3.5814,7.03494 2.5888,1.32126 5.402,0.2175 7.0961,-2.78411 0.2352,-0.41678 0.3815,-0.44903 0.6829,-0.15059 0.6254,0.61916 -1.1468,3.16765 -2.8157,4.04906 -1.9661,1.03833 -5.2224,1.00428 -7.2984,-0.0763 z"
           id="path6000" />
        <path
           inkscape:connector-curvature="0"
           style="fill:#000000"
           d="m 1587.752,284.63477 c -2.6789,-0.0105 -4.6478,0.83999 -6.2325,2.6914 -2.2823,2.66636 -2.7743,7.30448 -1.1425,10.75391 0.9295,1.96463 2.1452,3.15075 4.1074,4.00195 1.3641,0.59177 4.9961,0.62718 6.3476,0.0625 1.5737,-0.65753 3.2779,-2.31303 4.1953,-4.07422 0.7166,-1.37588 0.8301,-1.96955 0.8301,-4.40234 0,-3.2207 -0.5952,-4.94281 -2.3086,-6.65625 -1.7085,-1.70844 -3.3158,-2.36695 -5.7968,-2.37695 z m -0.1016,1.2207 c 2.2012,0 3.232,0.67405 4.3203,2.82812 0.6923,1.37015 0.7813,1.93838 0.7813,4.98438 0,2.97087 -0.1,3.63893 -0.7305,4.91992 -0.4015,0.81521 -1.1514,1.78256 -1.668,2.15039 -1.9391,1.38077 -4.6583,0.97783 -6.2617,-0.92773 -1.247,-1.48194 -1.6523,-3.02581 -1.6523,-6.29883 0,-2.61486 0.1035,-3.17363 0.8613,-4.6875 1.1607,-2.31886 2.1117,-2.96875 4.3496,-2.96875 z"
           transform="translate(0,520.86615)"
           id="path5998" />
        <path
           inkscape:connector-curvature="0"
           style="fill:#000000"
           d="m 1618.3277,822.73716 c -0.3451,-0.38671 -2.725,-3.5525 -5.2888,-7.03506 l -4.6615,-6.33194 -0.086,4.86254 c -0.048,2.73218 0.058,5.39937 0.2438,6.08785 0.2841,1.05513 0.5023,1.27692 1.5705,1.59698 0.6824,0.20443 1.2406,0.56037 1.2406,0.79098 0,0.3264 -0.7961,0.41928 -3.5937,0.41928 -2.8582,0 -3.5938,-0.0888 -3.5938,-0.43397 0,-0.24826 0.4664,-0.52147 1.0899,-0.63845 0.5995,-0.11246 1.2324,-0.47043 1.4063,-0.79548 0.4073,-0.76101 0.4187,-12.35685 0.013,-13.11507 -0.1669,-0.31178 -0.87,-0.79358 -1.5625,-1.07067 -1.9576,-0.78327 -1.5441,-1.13386 1.3374,-1.13386 l 2.5966,0 4.768,6.46608 4.7681,6.46607 -0.099,-5.54052 c -0.1068,-5.98186 -0.099,-5.95472 -1.8958,-6.34542 -0.4727,-0.10276 -0.8594,-0.38019 -0.8594,-0.61652 0,-0.33854 0.7291,-0.42969 3.4375,-0.42969 2.6029,0 3.4375,0.0981 3.4375,0.40412 0,0.22228 -0.455,0.53868 -1.0111,0.70313 -1.6745,0.49517 -1.7917,1.09046 -1.7968,9.12713 0,7.75204 -0.084,8.10568 -1.4605,6.5625 z"
           id="path5994" />
        <path
           inkscape:connector-curvature="0"
           style="fill:#000000"
           d="m 1197.8047,285.07617 c -3.9419,-8.8e-4 -5.2297,0.0912 -5.1367,0.3711 0.069,0.20547 0.5258,0.48034 1.0156,0.61132 0.4898,0.13099 1.0056,0.42044 1.1465,0.64258 0.1409,0.22213 0.2617,3.38338 0.2617,7.02344 0.01,7.1822 -0.09,7.59961 -1.7363,7.59961 -0.4662,0 -0.7598,0.18076 -0.7598,0.46875 0,0.39065 0.625,0.46875 3.75,0.46875 3.125,0 3.75,-0.0781 3.75,-0.46875 0,-0.28799 -0.2916,-0.46875 -0.7578,-0.46875 -1.4278,0 -1.7422,-0.71133 -1.7422,-3.94922 l 0,-2.96484 0.9981,0.0976 c 0.8863,0.087 1.2966,0.52476 3.6718,3.92578 l 2.6719,3.82813 2.2676,0 c 1.8062,0 2.2656,-0.0952 2.2656,-0.46875 0,-0.25781 -0.2492,-0.46875 -0.5547,-0.46875 -0.3055,0 -0.8696,-0.22104 -1.2539,-0.49024 -0.7494,-0.5249 -5.3789,-6.49047 -5.3789,-6.93164 0,-0.14564 0.485,-0.43984 1.0781,-0.65429 0.593,-0.21445 1.4368,-0.81713 1.875,-1.33789 0.6529,-0.776 0.7971,-1.26574 0.7871,-2.71875 -0.011,-1.97538 -0.2885,-2.48637 -1.8711,-3.45118 -0.9952,-0.60665 -1.5369,-0.66312 -6.3476,-0.66406 z m -0.209,0.93555 1.7148,0 c 1.4302,0 1.8706,0.14222 2.6661,0.85937 1.9565,1.76377 1.3936,4.92708 -1.0762,6.04883 -1.2918,0.58669 -2.7162,0.76231 -3.0957,0.38281 -0.1143,-0.11459 -0.209,-1.80209 -0.209,-3.75 l 0,-3.54101 z"
           transform="translate(0,520.86615)"
           id="path5992" />
        <path
           inkscape:connector-curvature="0"
           style="fill:#000000"
           d="m 1216.6586,822.65906 c 0,-0.30807 0.3082,-0.46875 0.8992,-0.46875 0.4946,0 1.0599,-0.19349 1.2561,-0.42997 0.2498,-0.301 0.3316,-2.52729 0.2727,-7.42188 l -0.084,-6.9919 -1.0799,-0.34903 c -0.594,-0.19197 -1.133,-0.50838 -1.198,-0.70313 -0.086,-0.2565 1.741,-0.35409 6.6268,-0.35409 l 6.7448,0 0,2.03125 c 0,1.55476 -0.105,2.03125 -0.4477,2.03125 -0.2462,0 -0.5347,-0.27409 -0.641,-0.60909 -0.1063,-0.335 -0.5941,-1.03812 -1.0839,-1.5625 -0.8511,-0.91109 -1.003,-0.95341 -3.4215,-0.95341 l -2.5309,0 0,3.4375 0,3.4375 1.3641,0 c 1.5723,0 2.8339,-0.81463 3.138,-2.02631 0.1085,-0.4324 0.4056,-0.78619 0.6601,-0.78619 0.3793,0 0.4628,0.59168 0.4628,3.28125 0,2.62882 -0.088,3.28125 -0.4445,3.28125 -0.2445,0 -0.6073,-0.49327 -0.8063,-1.09615 -0.4418,-1.33863 -1.0904,-1.71635 -2.9474,-1.71635 l -1.4268,0 0,3.27405 c 0,3.15541 0.029,3.29276 0.7884,3.79063 0.6177,0.40473 1.292,0.48428 3.1137,0.36737 1.2789,-0.0821 2.5162,-0.30774 2.7497,-0.50147 0.2334,-0.19373 0.7659,-1.05346 1.1832,-1.91052 1.1828,-2.4292 1.7182,-2.12141 1.5943,0.91671 l -0.1019,2.50073 -7.3199,0 c -6.2983,0 -7.32,-0.0654 -7.32,-0.46875 z"
           id="path5988" />
        <path
           inkscape:connector-curvature="0"
           style="fill:#000000"
           d="m 1263.2211,822.65906 c 0,-0.26539 0.2801,-0.46875 0.6455,-0.46875 0.3551,0 0.9176,-0.14557 1.25,-0.32349 0.5687,-0.30435 0.6045,-0.71904 0.6045,-7.0057 0,-3.6752 -0.084,-6.90081 -0.1864,-7.168 -0.1026,-0.2672 -0.6651,-0.5756 -1.25,-0.68534 -0.6034,-0.1132 -1.0636,-0.38729 -1.0636,-0.6335 0,-0.3473 0.7853,-0.43397 3.9323,-0.43397 3.0059,0 3.9021,0.092 3.804,0.39062 -0.071,0.21485 -0.5026,0.43498 -0.9601,0.48918 -1.6259,0.19263 -1.7762,0.85114 -1.7762,7.78348 0,5.92005 0.041,6.37782 0.625,6.96172 0.3438,0.34375 0.9766,0.625 1.4063,0.625 0.4861,0 0.7812,0.17708 0.7812,0.46875 0,0.39167 -0.6424,0.46875 -3.9062,0.46875 -3.2639,0 -3.9063,-0.0771 -3.9063,-0.46875 z"
           id="path5986" />
        <path
           inkscape:connector-curvature="0"
           style="fill:#000000"
           d="m 1302.9086,822.65906 c 0,-0.29487 0.2974,-0.46875 0.8018,-0.46875 0.441,0 1.0738,-0.14557 1.4062,-0.32349 0.5713,-0.30573 0.6045,-0.7264 0.6045,-7.65625 l 0,-7.33276 -1.3641,0 c -1.6656,0 -2.6784,0.7232 -3.4694,2.47729 -0.9202,2.04061 -1.4165,1.66535 -1.4165,-1.07104 l 0,-2.34375 7.5,0 7.5,0 0,2.34375 c 0,1.32175 -0.1335,2.34375 -0.3061,2.34375 -0.1684,0 -0.5904,-0.55713 -0.9378,-1.23808 -0.9965,-1.95326 -1.7755,-2.51192 -3.5025,-2.51192 l -1.5036,0 0,6.69841 c 0,3.68412 0.1343,7.05156 0.2984,7.48319 0.2131,0.56062 0.6148,0.84414 1.4062,0.99262 0.6372,0.11954 1.1079,0.3922 1.1079,0.64181 0,0.34804 -0.8044,0.43397 -4.0625,0.43397 -3.4028,0 -4.0625,-0.0761 -4.0625,-0.46875 z"
           id="path5984" />
        <path
           inkscape:connector-curvature="0"
           style="fill:#000000"
           d="m 1329.9922,284.82812 c -0.4466,0.0693 -1.2294,1.7547 -3.3731,7.26758 -1.535,3.94759 -3.0119,7.51562 -3.2832,7.92969 -0.2713,0.41408 -0.901,0.90602 -1.3984,1.09375 -0.4974,0.18773 -0.9043,0.52206 -0.9043,0.74219 0,0.29991 0.8226,0.40039 3.2813,0.40039 2.7083,0 3.2812,-0.0818 3.2812,-0.46875 0,-0.28132 -0.2877,-0.46875 -0.7207,-0.46875 -0.3969,0 -0.9815,-0.18986 -1.2988,-0.42188 -0.6404,-0.4683 -0.5597,-1.47065 0.2793,-3.47851 l 0.4687,-1.12305 3.0156,0.0898 3.0176,0.0899 0.7735,2.15039 c 0.8313,2.31324 0.7265,2.67925 -0.7696,2.68945 -0.4145,0.003 -0.7031,0.1963 -0.7031,0.47266 0,0.38945 0.6076,0.46875 3.5938,0.46875 2.9861,0 3.5937,-0.0793 3.5937,-0.46875 0,-0.25781 -0.1912,-0.46875 -0.4258,-0.46875 -1.2526,0 -1.9672,-1.29949 -4.8828,-8.88086 -2.5002,-6.50139 -3.0543,-7.69133 -3.5449,-7.61524 z m -0.7871,4.15821 c 0.1316,-0.1316 0.7511,1.35414 2.375,5.69726 0.1088,0.29103 -0.4611,0.39063 -2.2324,0.39063 -1.3075,0 -2.377,-0.12608 -2.377,-0.28125 0,-0.35075 2.0151,-5.58732 2.2344,-5.80664 z"
           transform="translate(0,520.86615)"
           id="path5982" />
        <path
           inkscape:connector-curvature="0"
           style="fill:#000000"
           d="m 1361.7598,285.09766 c -2.0608,2.8e-4 -2.9141,0.0882 -2.9141,0.27929 0,0.19502 0.433,0.50543 0.9609,0.68946 0.541,0.18858 1.0865,0.66747 1.25,1.09765 0.1596,0.41979 0.2852,3.3901 0.2852,6.60156 -0.01,6.44599 -0.2006,7.33441 -1.6445,7.50196 -0.5106,0.0592 -0.8516,0.2877 -0.8516,0.57226 0,0.40978 0.6961,0.46029 5.0781,0.36719 4.4963,-0.0956 5.2572,-0.18939 6.6407,-0.82422 3.2032,-1.46989 4.8318,-4.03184 4.8417,-7.59765 0.01,-3.66231 -1.2993,-6.07244 -4.1367,-7.64454 -1.6078,-0.89086 -1.7547,-0.91189 -7.0332,-1.01367 -0.9682,-0.0187 -1.7896,-0.0294 -2.4765,-0.0293 z m 2.0859,0.91406 1.6406,0.006 c 2.0404,0.009 3.8495,0.80671 5.127,2.26172 1.2405,1.41285 1.7719,3.01029 1.7949,5.38867 0.037,3.83222 -1.4918,6.60053 -4.0352,7.30664 -1.3124,0.36434 -2.495,0.41239 -3.2773,0.13281 -1.16,-0.41446 -1.25,-1.0023 -1.25,-8.125 l 0,-6.9707 z"
           transform="translate(0,520.86615)"
           id="path5978" />
        <path
           inkscape:connector-curvature="0"
           style="fill:#000000"
           d="m 1384.1586,822.65905 c 0,-0.28799 0.2927,-0.46875 0.7589,-0.46875 1.647,0 1.7411,-0.41393 1.7411,-7.66085 0,-6.54733 -0.014,-6.68828 -0.6945,-7.16518 -0.382,-0.26756 -0.9445,-0.48647 -1.25,-0.48647 -0.3055,0 -0.5555,-0.21094 -0.5555,-0.46875 0,-0.40213 0.9549,-0.46875 6.7188,-0.46875 l 6.7187,0 0,2.03125 c 0,1.57554 -0.1027,2.03125 -0.4578,2.03125 -0.2517,0 -0.6205,-0.31641 -0.8194,-0.70313 -0.1989,-0.38671 -0.7224,-1.08984 -1.1632,-1.5625 -0.7502,-0.8043 -0.968,-0.85937 -3.3993,-0.85937 l -2.5978,0 0,3.4375 0,3.4375 1.3281,-0.005 c 1.8072,-0.006 2.8307,-0.58281 3.1897,-1.79678 0.193,-0.65276 0.4976,-1.01112 0.8593,-1.01112 0.5033,0 0.5604,0.33447 0.5604,3.28125 0,3.07292 -0.04,3.28125 -0.625,3.28125 -0.4213,0 -0.625,-0.20833 -0.625,-0.6392 0,-0.35156 -0.3452,-0.98438 -0.767,-1.40625 -0.6117,-0.61171 -1.0864,-0.76706 -2.3438,-0.76706 l -1.5767,0 0,3.125 c 0,2.75854 0.077,3.202 0.6567,3.78165 0.5778,0.57789 0.9489,0.64338 3.0931,0.54601 2.7803,-0.12626 3.3354,-0.46101 4.3952,-2.65021 1.2255,-2.53159 1.8509,-1.51464 1.3438,2.18518 l -0.1988,1.44987 -7.145,0 c -6.1428,0 -7.145,-0.0657 -7.145,-0.46875 z"
           id="path5974" />
        <path
           inkscape:connector-curvature="0"
           style="fill:#000000"
           d="m 1419.7836,822.65905 c 0,-0.30807 0.3083,-0.46875 0.8992,-0.46875 0.4946,0 1.0599,-0.19349 1.2561,-0.42997 0.2498,-0.301 0.3316,-2.52729 0.2727,-7.42188 l -0.084,-6.9919 -1.0799,-0.34903 c -0.594,-0.19197 -1.133,-0.50838 -1.198,-0.70313 -0.086,-0.2565 1.741,-0.35409 6.6268,-0.35409 l 6.7448,0 0,2.03125 c 0,1.55476 -0.105,2.03125 -0.4477,2.03125 -0.2462,0 -0.5347,-0.27409 -0.641,-0.60909 -0.1063,-0.335 -0.5941,-1.03812 -1.0839,-1.5625 -0.8511,-0.91109 -1.003,-0.95341 -3.4215,-0.95341 l -2.5309,0 0,3.4375 0,3.4375 1.3641,0 c 1.5723,0 2.8339,-0.81463 3.138,-2.02631 0.1085,-0.4324 0.4056,-0.78619 0.6601,-0.78619 0.3793,0 0.4628,0.59168 0.4628,3.28125 0,2.62882 -0.088,3.28125 -0.4445,3.28125 -0.2445,0 -0.6073,-0.49327 -0.8063,-1.09615 -0.4418,-1.33863 -1.0904,-1.71635 -2.9474,-1.71635 l -1.4268,0 0,3.27405 c 0,3.15541 0.029,3.29276 0.7884,3.79063 0.6177,0.40473 1.292,0.48428 3.1137,0.36737 1.2789,-0.0821 2.5228,-0.31318 2.7643,-0.51358 0.2414,-0.20038 0.7719,-1.06558 1.1788,-1.92265 1.1545,-2.43164 1.7082,-2.10275 1.5841,0.94095 l -0.1019,2.50073 -7.3199,0 c -6.2983,0 -7.32,-0.0654 -7.32,-0.46875 z"
           id="path5972" />
        <path
           inkscape:connector-curvature="0"
           style="fill:#000000"
           d="m 1448.0098,285.07422 c -4.0478,0 -4.7891,0.0725 -4.7891,0.46875 0,0.25781 0.2361,0.46875 0.5234,0.46875 0.2872,0 0.7795,0.23313 1.0938,0.51758 0.5205,0.4707 0.5703,1.12521 0.5703,7.28125 0,7.28205 -0.05,7.51367 -1.625,7.51367 -0.5694,0 -0.875,0.16369 -0.875,0.46875 0,0.39565 0.7245,0.46875 4.6387,0.46875 3.0154,0 5.1322,-0.14877 6.0527,-0.42578 2.2113,-0.66552 4.0625,-2.11642 5.0957,-3.9961 0.8002,-1.45568 0.9199,-1.99433 0.9199,-4.17187 0,-3.01182 -0.777,-4.89133 -2.709,-6.54492 -2.0095,-1.72003 -3.4367,-2.04883 -8.8964,-2.04883 z m 2.2363,0.97461 c 3.7976,0.11681 6.4121,3.20636 6.4121,7.73047 0,3.66989 -1.2529,5.98698 -3.8164,7.05859 0,0 0,0 0,0 -1.7492,0.73024 -3.2552,0.62754 -4.1699,-0.28711 l -0.7734,-0.77344 0.084,-6.80468 0.084,-6.80469 1.4062,-0.10156 c 0.2633,-0.0191 0.5222,-0.0254 0.7754,-0.0176 z"
           transform="translate(0,520.86615)"
           id="path5970" />
        <path
           inkscape:connector-curvature="0"
           style="fill:#000000"
           d="m 1524.2734,284.82812 c -0.4912,-0.0754 -1.0231,1.04743 -3.3769,7.125 -3.2338,8.34965 -3.5785,9.00478 -4.8633,9.26172 -0.5155,0.10311 -0.9375,0.38086 -0.9375,0.61719 0,0.33729 0.7055,0.42969 3.2813,0.42969 2.5914,0 3.2812,-0.0909 3.2812,-0.4336 0,-0.2477 -0.4639,-0.52076 -1.082,-0.63671 -0.5955,-0.11172 -1.1689,-0.34244 -1.2735,-0.51172 -0.1046,-0.16929 0.112,-1.21891 0.4825,-2.33203 l 0.6738,-2.02344 3.0332,0 3.0332,0 0.7637,2.20312 c 0.828,2.38798 0.7055,2.78227 -0.8653,2.79297 -0.4145,0.003 -0.7031,0.1963 -0.7031,0.47266 0,0.38945 0.6076,0.46875 3.5938,0.46875 3.8525,0 4.542,-0.33476 2.5722,-1.25 -0.9456,-0.43935 -1.1977,-0.95875 -4.0195,-8.28125 -2.3319,-6.05118 -3.1421,-7.83305 -3.5938,-7.90235 z m -0.7304,4.29688 c 0.071,-0.0171 0.1254,0.0441 0.1738,0.16797 0.1342,0.34375 0.6966,1.78516 1.25,3.20312 l 1.0078,2.57813 -2.4707,0 c -1.3586,0 -2.4707,-0.042 -2.4707,-0.0937 0,-0.0518 0.5498,-1.49318 1.2207,-3.20313 0.7252,-1.84828 1.0768,-2.60098 1.2891,-2.65234 z"
           transform="translate(0,520.86615)"
           id="path5966" />
        <path
           inkscape:connector-curvature="0"
           style="fill:#000000"
           d="m 1562.9086,822.65905 c 0,-0.30807 0.3083,-0.46875 0.8993,-0.46875 0.4945,0 1.0598,-0.19349 1.256,-0.42997 0.2498,-0.301 0.3316,-2.52729 0.2727,-7.42188 l -0.084,-6.9919 -1.1719,-0.28949 c -0.6446,-0.15922 -1.1719,-0.47563 -1.1719,-0.70313 0,-0.32126 0.8781,-0.41363 3.9323,-0.41363 3.0061,0 3.902,0.092 3.8036,0.39062 -0.071,0.21485 -0.4691,0.43926 -0.8854,0.4987 -1.5188,0.21689 -1.538,0.31335 -1.538,7.7317 0,6.58306 0.034,7.00047 0.6045,7.30549 0.3324,0.17792 0.8949,0.32349 1.25,0.32349 0.3654,0 0.6455,0.20336 0.6455,0.46875 0,0.39167 -0.6424,0.46875 -3.9062,0.46875 -3.2639,0 -3.9063,-0.0771 -3.9063,-0.46875 z"
           id="path5962" />
        <path
           inkscape:connector-curvature="0"
           style="fill:#000000"
           d="m 1584.9834,804.47348 c -0.314,-0.31403 3.8811,-4.15818 4.5378,-4.15818 0.3041,0 0.7082,0.29024 0.8981,0.64497 0.4932,0.9216 -0.049,1.44933 -2.7624,2.6879 -2.5698,1.1731 -2.3833,1.1155 -2.6735,0.82531 z"
           id="path5960" />
      </g>
      <path
         sodipodi:nodetypes="ccccccccc"
         inkscape:connector-curvature="0"
         id="path5958"
         d="m 1372.3468,830.01017 0,-1.875 215.625,0 215.625,0 0,1.875 0,1.875 -215.625,0 -215.6093,-0.15715 z"
         style="fill:#000000" />
      <g
         style="fill:#000000"
         transform="translate(180.06331,129.61011)"
         id="g6023">
        <path
           inkscape:connector-curvature="0"
           style="fill:#000000"
           d="m 1533.4369,777.9082 c -0.083,-0.13703 -1.7708,-4.60853 -3.7495,-9.93665 -10.7366,-28.91058 -15.9093,-42.49899 -16.4868,-43.31007 -0.9977,-1.40106 -3.1807,-2.7389 -5.4332,-3.3297 l -2.0463,-0.5367 0,-1.48989 0,-1.48989 12.1875,0 12.1875,0 0,1.49935 0,1.49935 -2.8414,0.35865 c -3.2729,0.41312 -4.345,0.95467 -4.3486,2.19673 0,1.08987 15.0613,41.39018 15.3568,41.08245 0.2584,-0.26901 4.5922,-11.08129 9.1735,-22.88653 5.4689,-14.09229 6.135,-16.58554 4.862,-18.19579 -0.7537,-0.9533 -3.4297,-1.91274 -6.3541,-2.27811 l -1.7857,-0.22312 0,-1.52649 0,-1.52649 10.9375,0 10.9375,0 0,1.49328 0,1.49329 -2.1462,0.55288 c -3.3981,0.87536 -4.4712,1.86761 -6.44,5.95439 -1.4283,2.965 -11.7016,28.44733 -18.346,45.50616 l -2.0083,5.15625 -1.7522,0.0929 c -0.9637,0.0511 -1.8205,-0.0192 -1.904,-0.15625 z"
           id="path5956" />
        <path
           inkscape:connector-curvature="0"
           style="fill:#000000"
           d="m 1367.4009,753.77275 c -9.7754,-13.2234 -17.879,-24.05153 -18.0079,-24.0625 -0.3497,-0.0298 -0.278,30.20784 0.081,34.26641 0.35,3.95397 1.1354,6.44045 2.4241,7.67515 0.9525,0.91253 2.2212,1.41907 5.6197,2.24362 l 2.2656,0.5497 0,1.52883 0,1.52884 -12.1875,0 -12.1875,0 0,-1.52772 c 0,-1.51621 0.01,-1.52937 1.1644,-1.74616 0.6404,-0.12015 2.2543,-0.56276 3.5865,-0.98358 1.8917,-0.59758 2.5852,-0.98504 3.1674,-1.76946 1.6212,-2.18444 1.5957,-1.84717 1.7054,-22.56683 0.1135,-21.41791 0.095,-21.65065 -1.8637,-24.02742 -1.0624,-1.28881 -4.5363,-3.10955 -6.9737,-3.65501 l -1.7238,-0.38578 0,-1.51277 0,-1.51277 8.5156,0.002 8.5157,0.002 16.5625,22.48198 16.5625,22.48199 0.081,-16.39688 c 0.086,-17.34688 -0.049,-19.4343 -1.4039,-21.80588 -0.7275,-1.27331 -3.0405,-2.44311 -6.2881,-3.18022 l -2.5451,-0.5776 0,-1.50357 0,-1.50357 12.0313,0 12.0312,0 0,1.49997 0,1.49998 -1.9219,0.39697 c -3.04,0.6279 -5.184,1.54826 -5.8784,2.52346 -0.345,0.48449 -0.8621,1.77638 -1.1492,2.87088 -0.4604,1.75521 -0.5376,4.89341 -0.6546,26.59936 l -0.1327,24.60938 -1.8111,0 -1.8112,0 -17.7736,-24.04255 z"
           id="path5954" />
        <path
           inkscape:connector-curvature="0"
           style="fill:#000000"
           d="m 1192.2836,775.98959 0,-1.5132 2.5159,-0.49566 c 4.0781,-0.80342 5.6284,-1.94873 6.604,-4.87867 0.2726,-0.81865 0.4075,-6.58776 0.4891,-20.91354 0.099,-17.40512 0.053,-19.9891 -0.3856,-21.4973 -0.9026,-3.10475 -3.5097,-5.11495 -7.283,-5.6155 l -1.6279,-0.21594 0,-1.52651 0,-1.52651 10.2077,0.0824 10.2076,0.0824 8.4431,22.12494 c 5.3629,14.05345 8.5319,21.96615 8.6867,21.68967 0.134,-0.23941 3.4848,-8.75719 7.4463,-18.92842 6.6752,-17.13897 8.7586,-22.9553 8.7586,-24.4524 0,-0.5657 0.3997,-0.59004 9.6875,-0.59004 l 9.6875,0 0,1.49889 0,1.49889 -2.1721,0.37247 c -1.1946,0.20486 -2.7307,0.59598 -3.4134,0.86916 -2.3546,0.94211 -2.2493,-0.32256 -2.1547,25.8779 l 0.084,23.27936 0.9288,0.96937 c 0.9529,0.99455 2.7755,1.67022 5.5555,2.05954 l 1.4844,0.20789 0,1.52701 0,1.52702 -13.125,0 -13.125,0 0,-1.52609 0,-1.5261 2.1094,-0.21709 c 3.3974,-0.34964 4.6075,-0.75658 5.7477,-1.93287 l 1.0492,-1.08235 0.084,-22.81739 c 0.051,-13.75387 -0.03,-22.74715 -0.2021,-22.64055 -0.1573,0.0973 -4.8149,11.49785 -10.3502,25.33464 l -10.0641,25.1578 -1.1649,0 -1.1648,0 -9.4771,-25.39063 c -5.2124,-13.96484 -9.5405,-25.5664 -9.6181,-25.78125 -0.6289,-1.74236 -0.7251,1.44214 -0.6183,20.46875 0.1009,17.9625 0.1863,21.08743 0.6153,22.50151 1.0944,3.6076 2.2619,4.57933 6.87,5.71796 l 2.7464,0.6786 0,1.52753 0,1.52753 -12.0312,0 -12.0313,0 0,-1.51321 z"
           id="path5952" />
        <path
           inkscape:connector-curvature="0"
           style="fill:#000000"
           d="m 1277.9086,775.94029 c 0,-1.03837 0.131,-1.56458 0.3906,-1.56869 1.3729,-0.0217 4.8611,-0.70891 5.7571,-1.13413 2.2362,-1.06112 2.1336,0.15447 2.1336,-25.26593 0,-24.79983 0.062,-23.89193 -1.7301,-25.21736 -0.4358,-0.32234 -2.0882,-0.8956 -3.6718,-1.27391 l -2.8794,-0.68784 0,-1.48857 0,-1.48857 22.9688,0 22.9687,0 0,7.1875 0,7.1875 -1.6454,0 -1.6454,0 -0.5425,-1.52754 c -1.1224,-3.16006 -4.8301,-7.72886 -7.0958,-8.74386 -0.8921,-0.3996 -2.6962,-0.51519 -9.4653,-0.6064 l -8.3632,-0.11269 0.082,11.82337 0.082,11.82337 2.55,0.0903 c 3.6853,0.13051 7.9739,-0.36583 9.3813,-1.08576 1.6776,-0.85813 3.0299,-3.02022 3.8641,-6.17772 l 0.7055,-2.67058 1.5151,0 1.5152,0 0,11.71875 0,11.71875 -1.5286,0 -1.5286,0 -0.4944,-2.18952 c -0.9873,-4.37177 -2.5589,-6.61347 -5.2377,-7.47071 -0.6231,-0.19942 -3.295,-0.39261 -5.9375,-0.4293 l -4.8044,-0.0667 0,10.78125 c 0,10.15915 0.036,10.85287 0.625,12.02255 0.9888,1.96399 2.0693,2.3923 6.9664,2.76146 4.42,0.3332 10.8401,-0.0152 13.2582,-0.71953 2.4412,-0.71101 4.773,-3.71245 7.5884,-9.76748 l 1.562,-3.35925 1.5302,-1.3e-4 1.5302,-1.2e-4 -0.1857,2.26562 c -0.1022,1.2461 -0.3585,5.1836 -0.5697,8.75 l -0.384,6.48438 -24.6324,0 -24.6324,0 0,-1.5625 z"
           id="path5950" />
        <path
           inkscape:connector-curvature="0"
           style="fill:#000000"
           d="m 1407.9082,196.94922 0,1.50781 0,1.50586 1.8594,0.3457 c 2.5451,0.47332 4.5398,1.41213 5.2246,2.45703 0.5409,0.82531 0.5773,2.17126 0.6543,23.85743 0.076,21.42953 0.045,23.05556 -0.4688,24.05468 -0.8736,1.70006 -1.9064,2.25236 -4.8984,2.62305 l -2.6836,0.33203 0,1.50196 0,1.50195 12.4219,-0.002 c 6.832,-5.9e-4 14.0288,-0.15008 15.9922,-0.33399 11.1232,-1.04192 20.1442,-6.2166 24.8554,-14.25586 2.8729,-4.90231 3.6953,-8.27447 3.6953,-15.0957 0,-6.35187 -0.6618,-9.44038 -3.041,-14.25586 -3.4712,-7.02575 -9.5263,-11.83189 -17.9883,-14.2832 -4.3398,-1.25719 -7.3641,-1.46001 -21.9511,-1.46094 l -13.6719,0 z m 21.8945,3.49805 c 9.9671,-0.15663 17.0691,3.80123 21.1953,11.81445 2.4669,4.79077 3.293,8.55813 3.293,15 0,5.54359 -0.3964,8.35994 -1.7246,12.32422 -2.2808,6.80769 -6.4866,10.9626 -12.793,12.63476 l 0,0 c -5.9484,1.57726 -12.1892,0.7826 -14.0176,-1.78515 -0.3791,-0.53239 -0.8217,-1.78026 -0.9844,-2.77344 -0.1664,-1.01637 -0.2979,-11.66451 -0.2988,-24.35547 l 0,-22.54687 3.3008,-0.22461 c 0.6899,-0.047 1.3668,-0.0774 2.0312,-0.0879 z"
           transform="translate(0,520.86615)"
           id="path5948" />
        <path
           inkscape:connector-curvature="0"
           style="fill:#000000"
           d="m 1471.3461,775.94031 c 0,-1.0404 0.1305,-1.56329 0.3906,-1.56487 0.2149,-10e-4 1.5613,-0.13697 2.9922,-0.30149 3.0147,-0.34662 4.5222,-1.11538 5.0271,-2.56368 0.2331,-0.66882 0.3401,-8.1413 0.3401,-23.75711 0,-19.35218 -0.069,-22.91408 -0.4558,-23.66289 -0.5783,-1.1182 -2.444,-1.99926 -5.7281,-2.70498 l -2.5661,-0.55142 0,-1.50928 0,-1.50928 13.2813,0 13.2812,0 0,1.49887 0,1.49887 -2.4219,0.35568 c -3.5592,0.52273 -4.7881,1.013 -5.6135,2.23967 l -0.7146,1.06184 0,23.00066 c 0,22.26118 0.021,23.03283 0.6111,24.00111 0.815,1.33653 1.9327,1.86329 5.3078,2.50132 l 2.8299,0.53497 0,1.49726 0,1.49725 -13.2813,0 -13.2812,0 0,-1.5625 z"
           id="path5944" />
        <path
           inkscape:connector-curvature="0"
           style="fill:#000000"
           d="m 1572.2836,775.97581 0,-1.52701 1.4063,-0.19174 c 0.7734,-0.10545 2.0427,-0.27857 2.8207,-0.38471 1.633,-0.22276 3.2481,-1.20457 3.8107,-2.3164 0.3017,-0.59614 0.3916,-5.95005 0.3952,-23.51628 0,-19.24482 -0.066,-22.91249 -0.4518,-23.83679 -0.559,-1.33779 -2.6672,-2.413 -5.8448,-2.98087 l -2.1363,-0.38178 0,-1.51245 0,-1.51245 22.9688,0 22.9687,0 0,7.1875 0,7.1875 -1.52,0 c -1.5103,0 -1.5235,-0.009 -2.0492,-1.38557 -1.2181,-3.18939 -4.6455,-7.5256 -6.8855,-8.7111 -1.1821,-0.62561 -1.8061,-0.67651 -9.6234,-0.78488 l -8.3594,-0.1159 0,11.95393 0,11.95393 4.989,-0.19641 c 3.4526,-0.13593 5.3533,-0.34835 6.1719,-0.68979 2.497,-1.0415 3.9997,-3.30805 4.8124,-7.25859 l 0.4018,-1.95312 1.4999,0 1.5,0 0,11.71875 0,11.71875 -1.5625,0 c -1.4496,0 -1.5625,-0.0553 -1.5625,-0.76512 0,-0.42081 -0.3686,-1.93253 -0.8191,-3.35937 -0.6456,-2.04472 -1.0926,-2.86798 -2.1104,-3.88641 -1.672,-1.67311 -2.7516,-1.95036 -8.5549,-2.19695 l -4.7656,-0.2025 0,10.37929 c 0,11.18889 0.1547,12.60517 1.5139,13.86458 1.2585,1.1661 2.451,1.42955 7.4724,1.65084 5.074,0.22361 9.9829,-0.16596 12.3671,-0.98146 2.0694,-0.70782 3.7372,-2.87746 6.5242,-8.48728 l 2.2124,-4.45312 1.5212,0 1.5212,0 -0.1555,1.17187 c -0.086,0.64454 -0.3005,3.70313 -0.4777,6.79688 -0.1773,3.09375 -0.4066,6.50391 -0.5097,7.57812 l -0.1873,1.95313 -24.6511,0 -24.6511,0 0,-1.52702 z"
           id="path5942" />
      </g>
      <path
         sodipodi:nodetypes="csccssssscccccccccccsscccccccccccsccsccccssssssscccssscccsss"
         inkscape:connector-curvature="0"
         id="path5940"
         d="m 1657.4835,925.4534 c -11.9956,-0.0679 -23.1098,0.61784 -33.3047,2.06087 -12.8134,1.81366 -24.4349,5.11294 -32.3593,9.1865 l -2.8711,1.4758 -1.6602,-1.0395 c -2.3494,-1.47105 -6.3648,-3.24541 -10.6699,-4.71488 -9.643,-3.29146 -21.3122,-5.34335 -36.1465,-6.35556 -5.9892,-0.40867 -21.9662,-0.49408 -29.5312,-0.15784 -29.4439,1.3087 -62.3966,6.16313 -101.418,14.93987 -6.9712,1.56796 -18.803,4.38642 -23.418,5.57846 l -3.125,0.80726 -0.082,6.15147 -0.082,4.22402 -5.2344,0.0442 -5.2344,0.0442 0,2.88954 0,0.96107 99.8145,0 103.8144,0 0.9844,0.89875 c 2.0658,1.88408 4.7016,3.70903 8.9883,4.32584 2.562,0.36863 4.9344,0.24423 7.2578,-0.21917 3.878,-0.77345 5.3787,-2.26326 7.5254,-4.05339 l 1.1425,-0.95203 103.7989,0 99.7988,0 4e-4,-0.96246 0,-3.09005 -6.9535,-0.0433 -6.9531,-0.0433 -0.1563,-4.06434 -0.1565,-6.1927 -12.1875,-3.14962 c -12.5725,-3.24861 -20.2671,-5.08973 -30,-7.18091 -34.5339,-7.41982 -65.1916,-11.21959 -91.5821,-11.36902 z m -2.0117,4.12412 c 33.932,-0.0323 75.8534,6.31621 123.5156,18.77209 l 8.0725,2.26697 0,3.40061 0,3.47288 -91.744,0 c -64.9442,0 -96.1441,-0.1119 -96.1441,0.17113 0,0.28304 -1.8711,1.93355 -3.3499,3.116 -1.6532,1.32189 -2.3456,1.54648 -4.5641,2.105 -3.04,0.76536 -4.7522,0.10433 -7.611,-1.00458 -2.9349,-1.13845 -4.5875,-3.72885 -4.596,-4.28642 -0.01,-0.55761 -23.2262,-0.10113 -98.2662,-0.10113 l -93.6627,0 0,-3.47288 0,-3.40061 7.7698,-1.97342 c 53.6354,-13.62263 98.1724,-19.23417 133.5489,-18.78014 11.8769,0.15243 20.3958,0.8538 29.8437,2.45596 13.2479,2.24657 23.9591,6.11889 29.0059,10.48637 l 1.4882,1.2878 1.2364,-0.9891 c 0.6804,-0.54406 2.3631,-1.59566 3.7383,-2.336 9.2124,-4.95951 23.0354,-8.50669 39.5312,-10.14502 6.9519,-0.69045 14.357,-1.03806 22.1875,-1.04551 z"
         style="fill:#000000" />
      <path
         inkscape:connector-curvature="0"
         id="rect6149"
         d="m 1655.8475,928.4467 c -7.8716,0.007 -15.3158,0.37569 -22.3042,1.10746 -16.5826,1.73638 -30.4786,5.49533 -39.7395,10.75168 -1.3823,0.78464 -3.0738,1.89912 -3.7578,2.47575 l -1.2428,1.0495 -1.4962,-1.36415 c -5.0734,-4.62887 -15.8408,-8.73291 -29.1584,-11.11393 -9.4977,-1.69805 -18.0616,-2.44253 -30.0009,-2.60408 -35.5628,-0.4812 -80.3341,5.46737 -134.2517,19.9053 l -7.8105,2.0907 0,3.60391 0,3.6805 94.155,0 c 75.4351,0 98.7729,-0.48334 98.7829,0.10764 0.01,0.59094 1.6696,3.33711 4.6199,4.54368 2.8739,1.17529 4.5954,1.87517 7.6514,1.06401 2.2302,-0.59195 2.9266,-0.83048 4.5884,-2.23149 1.4866,-1.25322 3.3673,-3.00169 3.3673,-3.30168 0,-0.29997 31.3645,-0.18216 96.6506,-0.18216 l 92.2271,0 0,-3.6805 0,-3.60391 -8.1147,-2.40328 c -47.9132,-13.20137 -90.0551,-19.92918 -124.1659,-19.89495 z"
         style="opacity:1;fill:#1446f0;fill-opacity:1;stroke:none;stroke-width:0.1;stroke-miterlimit:4;stroke-dasharray:none;stroke-opacity:1" />
    </g>
  </g>
</svg>
