<?xml version="1.0" encoding="UTF-8" standalone="no"?>
<!-- Created with Inkscape (http://www.inkscape.org/) -->

<svg
   xmlns:dc="http://purl.org/dc/elements/1.1/"
   xmlns:cc="http://creativecommons.org/ns#"
   xmlns:rdf="http://www.w3.org/1999/02/22-rdf-syntax-ns#"
   xmlns:svg="http://www.w3.org/2000/svg"
   xmlns="http://www.w3.org/2000/svg"
   xmlns:sodipodi="http://sodipodi.sourceforge.net/DTD/sodipodi-0.dtd"
   xmlns:inkscape="http://www.inkscape.org/namespaces/inkscape"
   width="163.9995mm"
   height="48.683323mm"
   viewBox="0 0 581.10058 172.49996"
   id="svg7269"
   version="1.1"
   inkscape:version="0.91 r13725"
   sodipodi:docname="podium.svg">
  <defs
     id="defs7271" />
  <sodipodi:namedview
     id="base"
     pagecolor="#ffffff"
     bordercolor="#666666"
     borderopacity="1.0"
     inkscape:pageopacity="0.0"
     inkscape:pageshadow="2"
     inkscape:zoom="1.4"
     inkscape:cx="256.09527"
     inkscape:cy="62.355166"
     inkscape:document-units="px"
     inkscape:current-layer="layer1"
     showgrid="false"
     fit-margin-top="0"
     fit-margin-left="0"
     fit-margin-right="0"
     fit-margin-bottom="0"
     inkscape:window-width="1364"
     inkscape:window-height="747"
     inkscape:window-x="0"
     inkscape:window-y="0"
     inkscape:window-maximized="1" />
  <metadata
     id="metadata7274">
    <rdf:RDF>
      <cc:Work
         rdf:about="">
        <dc:format>image/svg+xml</dc:format>
        <dc:type
           rdf:resource="http://purl.org/dc/dcmitype/StillImage" />
        <dc:title />
      </cc:Work>
    </rdf:RDF>
  </metadata>
  <g
     inkscape:label="Layer 1"
     inkscape:groupmode="layer"
     id="layer1"
     transform="translate(-78.0211,-246.11222)">
    <g
       id="g8095"
       transform="translate(-1630.3441,-433.40685)">
      <path
         id="path8073"
         d="m 2074.6402,840.08607 c -4.8064,-2.51091 -5.882,-9.90245 -2.1073,-14.48183 1.8875,-2.28979 5.4594,-3.19768 8.5098,-2.16296 1.4352,0.48684 1.7831,0.5175 2.0617,0.1817 0.1844,-0.22217 0.5212,-0.40394 0.7485,-0.40394 0.3248,0 0.4133,0.67444 0.4133,3.15 0,2.52074 -0.085,3.15 -0.4259,3.15 -0.2456,0 -0.6406,-0.64637 -0.9332,-1.52738 -1.3972,-4.20673 -5.0738,-5.34063 -7.7416,-2.38764 -1.3022,1.44135 -1.9993,3.64358 -1.9993,6.31603 0,2.54928 0.6897,4.55342 2.0622,5.99252 2.5118,2.63358 6.5406,2.16758 8.2946,-0.95941 0.4405,-0.78528 0.7326,-1.02608 1.0252,-0.84525 0.3296,0.20368 0.2542,0.51736 -0.3876,1.6124 -1.3091,2.23392 -3.1807,3.19873 -6.2049,3.19873 -1.2986,0 -2.1123,-0.20445 -3.3155,-0.83297 z"
         style="fill:#000000"
         inkscape:connector-curvature="0" />
      <path
         id="path8071"
         d="m 2093.2662,840.7089 c -1.5973,-0.57776 -2.5279,-1.20996 -3.1683,-2.15238 -0.7156,-1.05314 -0.7317,-1.20912 -0.7317,-7.11062 0,-6.52852 -0.028,-6.64442 -1.725,-7.16159 -0.3712,-0.11314 -0.675,-0.39911 -0.675,-0.63549 0,-0.34916 0.6753,-0.42978 3.6,-0.42978 2.8754,0 3.6,0.084 3.6,0.41748 0,0.22961 -0.3705,0.51046 -0.8233,0.62412 -1.566,0.39302 -1.5771,0.43888 -1.5701,6.42013 0.01,4.887 0.08,5.74969 0.5904,6.87456 0.7293,1.60688 2.1419,2.29396 4.2918,2.08739 1.7042,-0.16376 2.8508,-0.91155 3.5958,-2.345 0.4645,-0.8939 0.5234,-1.72239 0.45,-6.32303 -0.093,-5.84131 -0.2346,-6.30066 -2.0499,-6.66372 -0.5155,-0.10309 -0.8847,-0.36786 -0.8847,-0.63443 0,-0.38348 0.5582,-0.4575 3.45,-0.4575 2.7809,0 3.45,0.0827 3.45,0.42616 0,0.23439 -0.4048,0.51508 -0.8996,0.62376 -1.6539,0.36324 -1.7997,0.91948 -1.807,6.89183 -0.01,4.62445 -0.087,5.58646 -0.565,6.63793 -0.9305,2.0489 -3.0407,3.13832 -5.9982,3.09663 -0.9241,-0.013 -1.8827,-0.0969 -2.1302,-0.18645 z"
         style="fill:#000000"
         inkscape:connector-curvature="0" />
      <path
         id="path8069"
         d="m 2145.7662,840.7089 c -1.5973,-0.57776 -2.5279,-1.20996 -3.1683,-2.15238 -0.7156,-1.05314 -0.7317,-1.20912 -0.7317,-7.11062 0,-6.52852 -0.028,-6.64442 -1.725,-7.16159 -0.3712,-0.11314 -0.675,-0.39911 -0.675,-0.63549 0,-0.34916 0.6753,-0.42978 3.6,-0.42978 2.8754,0 3.6,0.084 3.6,0.41748 0,0.22961 -0.3705,0.51046 -0.8233,0.62412 -1.566,0.39302 -1.5771,0.43888 -1.5701,6.42013 0.01,4.887 0.08,5.74969 0.5904,6.87456 0.7293,1.60688 2.1419,2.29396 4.2918,2.08739 1.7042,-0.16376 2.8508,-0.91155 3.5958,-2.345 0.4645,-0.8939 0.5234,-1.72239 0.45,-6.32303 -0.093,-5.84131 -0.2346,-6.30066 -2.0499,-6.66372 -0.5155,-0.10309 -0.8847,-0.36786 -0.8847,-0.63443 0,-0.38348 0.5582,-0.4575 3.45,-0.4575 2.7809,0 3.45,0.0827 3.45,0.42616 0,0.23439 -0.4048,0.51508 -0.8996,0.62376 -1.6539,0.36324 -1.7997,0.91948 -1.807,6.89183 -0.01,4.62445 -0.088,5.58646 -0.565,6.63793 -0.9305,2.0489 -3.0407,3.13832 -5.9982,3.09663 -0.9241,-0.013 -1.8827,-0.0969 -2.1302,-0.18645 z"
         style="fill:#000000"
         inkscape:connector-curvature="0" />
      <path
         id="path8067"
         d="m 2232.6733,840.32719 c -1.2153,-0.47483 -1.4689,-0.49628 -1.6071,-0.13596 -0.09,0.23529 -0.4197,0.42781 -0.7321,0.42781 -0.5193,0 -0.5679,-0.25652 -0.5679,-3 0,-3.57053 0.3718,-3.87461 1.5308,-1.25213 1.0588,2.39551 2.4794,3.46629 4.626,3.48686 1.836,0.0176 2.9526,-0.7569 3.2524,-2.25587 0.4135,-2.06729 -0.8034,-3.47973 -4.103,-4.76229 -3.802,-1.47787 -4.7062,-2.46928 -4.7062,-5.1603 0,-1.42169 0.1371,-1.87317 0.8126,-2.67594 0.9559,-1.13601 2.8404,-2.06446 4.2092,-2.07374 0.5345,-0.004 1.6366,0.24605 2.4493,0.55482 1.3088,0.49731 1.5285,0.51039 1.9244,0.1145 0.8197,-0.81972 1.1045,-0.13293 1.1045,2.66379 0,2.3526 -0.064,2.69168 -0.4951,2.6073 -0.2724,-0.0534 -0.6777,-0.62475 -0.9009,-1.26978 -0.9966,-2.881 -3.1744,-4.25725 -5.3189,-3.36123 -1.1834,0.49447 -1.6851,1.25105 -1.6851,2.54127 0,1.35982 1.2237,2.56918 3.5247,3.48332 4.6216,1.83607 5.6296,2.92363 5.4182,5.84615 -0.1514,2.09329 -0.8145,3.06271 -2.7768,4.05949 -1.805,0.9169 -3.8823,0.97335 -5.959,0.16193 z"
         style="fill:#000000"
         inkscape:connector-curvature="0" />
      <path
         id="path8065"
         d="m 2259.7402,840.08607 c -4.8064,-2.51091 -5.882,-9.90245 -2.1073,-14.48183 1.8875,-2.28979 5.4594,-3.19768 8.5098,-2.16296 1.4352,0.48684 1.7831,0.5175 2.0617,0.1817 0.1844,-0.22217 0.5212,-0.40394 0.7485,-0.40394 0.3248,0 0.4133,0.67444 0.4133,3.15 0,2.52074 -0.085,3.15 -0.4259,3.15 -0.2456,0 -0.6406,-0.64637 -0.9332,-1.52738 -1.3972,-4.20673 -5.0738,-5.34063 -7.7416,-2.38764 -1.3022,1.44135 -1.9993,3.64358 -1.9993,6.31603 0,2.54928 0.6897,4.55342 2.0622,5.99252 2.5118,2.63358 6.5406,2.16758 8.2946,-0.95941 0.4405,-0.78528 0.7326,-1.02608 1.0252,-0.84525 0.3296,0.20368 0.2542,0.51736 -0.3876,1.6124 -1.3091,2.23392 -3.1807,3.19873 -6.2049,3.19873 -1.2986,0 -2.1123,-0.20445 -3.3155,-0.83297 z"
         style="fill:#000000"
         inkscape:connector-curvature="0" />
      <path
         id="path8063"
         d="m 1984.9662,840.16907 c 0,-0.27647 0.281,-0.45 0.7286,-0.45 1.5856,0 1.6714,-0.38492 1.6714,-7.49689 0,-3.60472 -0.079,-6.76105 -0.1765,-7.01406 -0.097,-0.25302 -0.6371,-0.61203 -1.2,-0.7978 -0.5629,-0.18578 -1.0235,-0.52981 -1.0235,-0.76452 0,-0.35604 1.0933,-0.42673 6.6,-0.42673 l 6.6,0 0,2.1 c 0,2.5081 -0.3787,2.69306 -1.5525,0.75814 -0.9412,-1.55167 -2.2286,-2.04189 -4.9839,-1.89777 l -1.7136,0.0896 0,3.45 0,3.45 1.6138,-0.0149 c 1.3796,-0.0127 1.717,-0.13489 2.325,-0.84173 0.3912,-0.45476 0.7112,-1.0893 0.7112,-1.4101 0,-0.3208 0.2025,-0.58327 0.45,-0.58327 0.3727,0 0.45,0.56667 0.45,3.3 0,2.73333 -0.077,3.3 -0.45,3.3 -0.2475,0 -0.45,-0.25179 -0.45,-0.55954 0,-0.30775 -0.2798,-0.91525 -0.6218,-1.35 -0.5467,-0.69511 -0.8362,-0.79046 -2.4,-0.79046 l -1.7782,1e-5 0,3.09266 c 0,4.17789 0.066,4.25734 3.5525,4.25734 2.4314,0 2.7752,-0.071 3.4604,-0.71487 0.4183,-0.39318 1.0029,-1.30392 1.2989,-2.02388 0.753,-1.83132 1.2882,-1.70616 1.2882,0.30125 0,0.88687 -0.084,2.03437 -0.1875,2.55 l -0.1875,0.9375 -7.0125,0 c -6.0333,0 -7.0125,-0.0628 -7.0125,-0.45 z"
         style="fill:#000000"
         inkscape:connector-curvature="0" />
      <path
         id="path8061"
         d="m 2001.7662,840.19287 c 0,-0.23439 0.391,-0.51204 0.8689,-0.61701 1.7785,-0.39062 1.9159,-0.83692 2.0581,-6.68435 0.1586,-6.52662 -0.054,-7.43318 -1.952,-8.31471 -2.0756,-0.96413 -1.6771,-1.39622 1.1943,-1.2949 l 2.4693,0.0871 4.8057,6.52518 4.8057,6.52517 0.082,-4.91202 c 0.048,-2.86067 -0.047,-5.25158 -0.2271,-5.72512 -0.2039,-0.5364 -0.7168,-0.97322 -1.5071,-1.28366 -0.6588,-0.25881 -1.1979,-0.65258 -1.1979,-0.87506 0,-0.31587 0.7559,-0.40449 3.45,-0.40449 2.8918,0 3.45,0.074 3.45,0.4575 0,0.26954 -0.3742,0.53234 -0.9108,0.63966 -1.7193,0.34386 -1.7892,0.69029 -1.7892,8.86959 0,7.23674 -0.016,7.43325 -0.6008,7.43325 -0.4355,0 -2.0251,-1.91902 -5.775,-6.97175 l -5.1742,-6.97176 -0.099,1.19675 c -0.054,0.65821 -0.054,3.2416 0,5.74086 0.1091,5.00779 0.3063,5.57313 2.0801,5.96272 0.4779,0.10496 0.8689,0.38262 0.8689,0.61701 0,0.34351 -0.6691,0.42616 -3.45,0.42616 -2.7809,0 -3.45,-0.0827 -3.45,-0.42616 z"
         style="fill:#000000"
         inkscape:connector-curvature="0" />
      <path
         id="path8059"
         d="m 2029.3662,840.16907 c 0,-0.27647 0.281,-0.45 0.7286,-0.45 1.5856,0 1.6714,-0.38492 1.6714,-7.49689 0,-3.60472 -0.079,-6.76105 -0.1765,-7.01406 -0.097,-0.25302 -0.6371,-0.61203 -1.2,-0.7978 -0.5629,-0.18578 -1.0235,-0.52981 -1.0235,-0.76452 0,-0.34527 0.6872,-0.42673 3.6,-0.42673 2.9105,0 3.6,0.0816 3.6,0.42616 0,0.23439 -0.4061,0.51537 -0.9025,0.62439 -0.4964,0.10902 -1.0364,0.44837 -1.2,0.75411 -0.1703,0.31819 -0.2975,3.32235 -0.2975,7.02562 0,6.06972 0.037,6.50681 0.6,7.06972 0.4528,0.4528 1,0.6 2.2305,0.6 2.712,0 3.7416,-0.65317 4.8471,-3.075 0.2825,-0.61875 0.6955,-1.125 0.918,-1.125 0.4538,0 0.4915,0.57915 0.2117,3.25599 l -0.1928,1.84401 -6.7072,0 c -5.7621,0 -6.7073,-0.0634 -6.7073,-0.45 z"
         style="fill:#000000"
         inkscape:connector-curvature="0" />
      <path
         id="path8057"
         transform="translate(0,520.86615)"
         d="m 2052.8965,302.42383 c -0.4972,-0.068 -0.9838,0.97646 -3.4238,7.34961 -2.9035,7.58407 -3.7419,9.08008 -5.084,9.08008 -0.3539,0 -0.6231,0.19365 -0.6231,0.44921 0,0.3727 0.5675,0.45118 3.3008,0.45118 2.7333,0 3.2988,-0.0785 3.2988,-0.45118 0,-0.27007 -0.2757,-0.44921 -0.6914,-0.44921 -0.3809,0 -0.9415,-0.18349 -1.2461,-0.40625 -0.6314,-0.4617 -0.546,-1.69275 0.25,-3.59766 l 0.4668,-1.11719 3.0547,0.084 3.0567,0.0859 0.7793,2.18555 c 0.8452,2.36705 0.7347,2.74937 -0.795,2.75977 -0.3979,0.003 -0.6738,0.18976 -0.6738,0.45507 0,0.375 0.5996,0.44922 3.5996,0.44922 3,0 3.5996,-0.0742 3.5996,-0.44922 0,-0.2475 -0.2546,-0.44921 -0.5664,-0.44921 -1.2392,0 -1.8541,-1.12149 -4.7754,-8.70118 -2.3508,-6.09942 -3.0651,-7.66531 -3.5273,-7.72851 z m -0.6973,4.04492 c 0.2651,0.26781 2.3672,5.69292 2.3672,6.10937 0,0.28635 -4.5815,0.39502 -4.8613,0.11524 -0.088,-0.0881 0.3849,-1.57853 1.0508,-3.31055 0.666,-1.73201 1.3158,-3.04292 1.4433,-2.91406 z"
         style="fill:#000000"
         inkscape:connector-curvature="0" />
      <path
         id="path8053"
         d="m 2107.3662,840.16907 c 0,-0.27647 0.281,-0.45 0.7286,-0.45 1.5856,0 1.6714,-0.38492 1.6714,-7.49689 0,-3.60472 -0.079,-6.76105 -0.1765,-7.01406 -0.097,-0.25302 -0.6371,-0.61203 -1.2,-0.7978 -0.5629,-0.18578 -1.0235,-0.52981 -1.0235,-0.76452 0,-0.34527 0.6872,-0.42673 3.6,-0.42673 2.9105,0 3.6,0.0816 3.6,0.42616 0,0.23439 -0.4061,0.51537 -0.9025,0.62439 -0.4964,0.10902 -1.0364,0.44837 -1.2,0.75411 -0.1703,0.31819 -0.2975,3.32235 -0.2975,7.02562 0,6.06972 0.037,6.50681 0.6,7.06972 0.4528,0.4528 1,0.6 2.2305,0.6 2.712,0 3.7416,-0.65317 4.8471,-3.075 0.2825,-0.61875 0.6955,-1.125 0.918,-1.125 0.4538,0 0.4915,0.57915 0.2117,3.25599 l -0.1928,1.84401 -6.7072,0 c -5.7621,0 -6.7073,-0.0634 -6.7073,-0.45 z"
         style="fill:#000000"
         inkscape:connector-curvature="0" />
      <path
         id="path8051"
         d="m 2125.6662,840.16907 c 0,-0.3 0.3,-0.45 0.9,-0.45 0.5,0 1.1667,-0.26667 1.5,-0.6 0.5659,-0.56587 0.6,-1 0.6,-7.63229 0,-4.67539 -0.1077,-7.09885 -0.3213,-7.23087 -0.1767,-0.10922 -0.9218,-0.10853 -1.6557,10e-4 -1.4959,0.22432 -2.6124,1.19986 -3.1891,2.78663 -0.6558,1.80399 -1.1339,1.20088 -1.1339,-1.43024 l 0,-2.40524 7.425,0.0802 7.425,0.0802 0.088,2.325 c 0.1016,2.69561 -0.3841,3.12866 -1.2802,1.14147 -0.7922,-1.75688 -1.6398,-2.40712 -3.4109,-2.61689 l -1.5465,-0.18315 0,7.35505 c 0,8.00786 -0.032,7.85708 1.7536,8.21424 0.5205,0.1041 0.9464,0.3749 0.9464,0.60178 0,0.32963 -0.8136,0.4125 -4.05,0.4125 -3.4,0 -4.05,-0.0722 -4.05,-0.45 z"
         style="fill:#000000"
         inkscape:connector-curvature="0" />
      <path
         id="path8049"
         transform="translate(0,520.86615)"
         d="m 2162.2773,302.35938 c -2.0226,-0.0151 -2.4121,0.0846 -2.4121,0.37695 0,0.24865 0.3715,0.54454 0.8243,0.6582 1.5877,0.39842 1.5761,0.34618 1.5761,7.67383 0,7.42506 -0.076,7.78516 -1.6699,7.78516 -0.4476,0 -0.7305,0.17274 -0.7305,0.44921 0,0.375 0.6016,0.45118 3.6016,0.45118 3,0 3.5996,-0.0762 3.5996,-0.45118 0,-0.27647 -0.2808,-0.44921 -0.7285,-0.44921 -1.3845,0 -1.6719,-0.67359 -1.6719,-3.92188 l 0,-2.97852 0.9981,0 c 0.9187,0 1.1666,0.23358 3.1035,2.92579 1.1574,1.60875 2.3568,3.36218 2.666,3.89843 l 0.5625,0.97657 5.4844,0 c 4.6758,0 5.4863,-0.0676 5.4863,-0.45118 0,-0.27007 -0.2777,-0.44921 -0.6934,-0.44921 -0.3809,0 -0.9415,-0.18349 -1.2461,-0.40625 -0.6314,-0.4617 -0.546,-1.69275 0.25,-3.59766 l 0.4668,-1.11719 3.0567,0.084 3.0547,0.0859 0.7812,2.18555 c 0.8452,2.36705 0.7348,2.74937 -0.7949,2.75977 -0.3979,0.003 -0.6758,0.18976 -0.6758,0.45507 0,0.375 0.5996,0.44922 3.5996,0.44922 3,0 3.5996,-0.0742 3.5996,-0.44922 0,-0.2475 -0.2546,-0.44921 -0.5664,-0.44921 -1.2392,0 -1.8541,-1.12149 -4.7754,-8.70118 -2.3508,-6.09942 -3.0651,-7.66531 -3.5273,-7.72851 -0.4972,-0.068 -0.9838,0.97646 -3.4238,7.34961 -3.0515,7.9706 -3.7077,9.08008 -5.3692,9.08008 -1.6526,0 -2.4974,-0.69432 -5.0547,-4.1504 -1.3878,-1.87564 -2.4797,-3.44091 -2.4277,-3.47851 0.052,-0.0376 0.5451,-0.24616 1.0938,-0.46484 3.5639,-1.42018 4.0578,-5.89993 0.8359,-7.58008 -1.0813,-0.5639 -1.8554,-0.65883 -6.2598,-0.76953 -1.0832,-0.0272 -1.9391,-0.0458 -2.6133,-0.0508 z m 3.4102,0.94726 c 0.3491,1.7e-4 0.7875,0.0289 1.2285,0.084 1.9271,0.24078 3.0234,1.12579 3.3145,2.67774 0.2852,1.52008 -0.042,2.52269 -1.2012,3.68164 -0.8977,0.89778 -1.1788,1.00391 -2.6836,1.00391 l -1.6797,0 0,-3.58399 c 0,-2.23255 0.1212,-3.65696 0.3223,-3.78125 0.089,-0.0548 0.3501,-0.0822 0.6992,-0.082 z m 19.1113,3.16211 c 0.2651,0.26781 2.3672,5.69292 2.3672,6.10937 0,0.28635 -4.5796,0.39502 -4.8594,0.11524 -0.088,-0.0881 0.3849,-1.57853 1.0508,-3.31055 0.666,-1.73201 1.3139,-3.04292 1.4414,-2.91406 z"
         style="fill:#000000"
         inkscape:connector-curvature="0" />
      <path
         id="path8043"
         d="m 2203.0662,840.16907 c 0,-0.27647 0.281,-0.45 0.7286,-0.45 1.5856,0 1.6714,-0.38492 1.6714,-7.49689 0,-3.60472 -0.079,-6.76105 -0.1765,-7.01406 -0.097,-0.25302 -0.6371,-0.61203 -1.2,-0.7978 -0.5629,-0.18578 -1.0235,-0.53239 -1.0235,-0.77025 0,-0.3661 1.0246,-0.42009 6.675,-0.35174 l 6.675,0.0807 0,2.075 c 0,2.44861 -0.4451,2.84849 -1.302,1.16963 -1.0371,-2.03204 -1.5286,-2.28663 -4.4743,-2.31731 l -2.6237,-0.0273 -0.085,3.56177 -0.085,3.56177 1.7986,-0.1301 c 2.02,-0.14611 2.8773,-0.70574 3.1779,-2.07455 0.105,-0.47789 0.3827,-0.86889 0.6171,-0.86889 0.3435,0 0.4261,0.6691 0.4261,3.45 0,2.74722 -0.085,3.45 -0.4175,3.45 -0.2296,0 -0.5096,-0.37125 -0.6222,-0.825 -0.3912,-1.57631 -1.2755,-2.175 -3.2126,-2.175 l -1.7477,0 0,3.15 c 0,2.75 0.076,3.22619 0.6,3.75 0.33,0.33 0.87,0.6 1.2,0.6 0.3333,0 0.6,0.2 0.6,0.45 0,0.375 -0.6,0.45 -3.6,0.45 -3,0 -3.6,-0.075 -3.6,-0.45 z"
         style="fill:#000000"
         inkscape:connector-curvature="0" />
      <path
         id="path8041"
         d="m 2218.6662,840.16907 c 0,-0.2932 0.2936,-0.45 0.8427,-0.45 1.8695,0 1.877,-0.0325 1.788,-7.80015 l -0.081,-7.04985 -1.2778,-0.4417 c -2.1175,-0.732 -1.3532,-1.05211 2.7273,-1.14226 3.1984,-0.0707 3.8005,-0.0134 3.8005,0.3614 0,0.27213 -0.4116,0.52259 -1.0581,0.64388 -0.582,0.10918 -1.1895,0.44392 -1.35,0.74387 -0.392,0.73236 -0.3814,13.05692 0.012,13.79162 0.167,0.31205 0.7745,0.6557 1.35,0.76367 0.5985,0.11229 1.0463,0.37457 1.0463,0.61291 0,0.33412 -0.7722,0.41661 -3.9,0.41661 -3.2667,0 -3.9,-0.0731 -3.9,-0.45 z"
         style="fill:#000000"
         inkscape:connector-curvature="0" />
      <path
         id="path8039"
         d="m 2244.4662,840.16907 c 0,-0.2932 0.2936,-0.45 0.8427,-0.45 1.8695,0 1.877,-0.0325 1.788,-7.80015 l -0.081,-7.04985 -1.2778,-0.4417 c -2.1175,-0.732 -1.3532,-1.05211 2.7273,-1.14226 3.1984,-0.0707 3.8005,-0.0134 3.8005,0.3614 0,0.27213 -0.4116,0.52259 -1.0581,0.64388 -0.582,0.10918 -1.1895,0.44392 -1.35,0.74387 -0.392,0.73236 -0.3814,13.05692 0.012,13.79162 0.167,0.31205 0.7745,0.6557 1.35,0.76367 0.5985,0.11229 1.0463,0.37457 1.0463,0.61291 0,0.33412 -0.7722,0.41661 -3.9,0.41661 -3.2667,0 -3.9,-0.0731 -3.9,-0.45 z"
         style="fill:#000000"
         inkscape:connector-curvature="0" />
      <path
         id="path8037"
         transform="translate(0,520.86615)"
         d="m 2279.9961,302.42383 c -0.4972,-0.068 -0.9838,0.97646 -3.4238,7.34961 -2.9035,7.58407 -3.74,9.08008 -5.0821,9.08008 -0.3539,0 -0.625,0.19365 -0.625,0.44921 0,0.3727 0.5675,0.45118 3.3008,0.45118 2.7333,0 3.3008,-0.0785 3.3008,-0.45118 0,-0.27007 -0.2777,-0.44921 -0.6934,-0.44921 -0.3809,0 -0.9415,-0.18349 -1.2461,-0.40625 -0.6314,-0.4617 -0.546,-1.69275 0.25,-3.59766 l 0.4668,-1.11719 3.0567,0.084 3.0547,0.0859 0.7812,2.18555 c 0.8452,2.36705 0.7348,2.74937 -0.7949,2.75977 -0.3979,0.003 -0.6758,0.18976 -0.6758,0.45507 0,0.375 0.5996,0.44922 3.5996,0.44922 3,0 3.5996,-0.0742 3.5996,-0.44922 0,-0.2475 -0.2546,-0.44921 -0.5664,-0.44921 -1.2392,0 -1.8541,-1.12149 -4.7754,-8.70118 -2.3508,-6.09942 -3.0651,-7.66531 -3.5273,-7.72851 z m -0.6973,4.04492 c 0.2651,0.26781 2.3672,5.69292 2.3672,6.10937 0,0.28635 -4.5796,0.39502 -4.8594,0.11524 -0.088,-0.0881 0.3849,-1.57853 1.0508,-3.31055 0.666,-1.73201 1.3139,-3.04292 1.4414,-2.91406 z"
         style="fill:#000000"
         inkscape:connector-curvature="0" />
      <path
         id="path8033"
         d="m 2220.046,822.06723 c -0.2593,-0.41954 3.8912,-4.3172 4.4751,-4.20246 0.8431,0.16568 1.236,1.01278 0.7444,1.6051 -0.5637,0.67923 -5.0311,2.90229 -5.2195,2.59736 z"
         style="fill:#000000"
         inkscape:connector-curvature="0" />
    </g>
    <g
       id="g8143"
       transform="translate(-1630.3441,-433.40685)">
      <path
         id="path8075"
         d="m 1984.4888,851.60592 c -0.087,-0.22721 -0.1167,-1.07096 -0.066,-1.875 l 0.093,-1.46188 152.475,-0.0753 152.475,-0.0753 0,1.9503 0,1.95029 -152.4094,0 c -129.1509,0 -152.4336,-0.063 -152.568,-0.41312 z"
         style="fill:#000000"
         inkscape:connector-curvature="0" />
      <path
         inkscape:connector-curvature="0"
         id="path8031"
         d="m 1708.6662,812.56907 0,-1.95 246.3,0 246.3,0 0,-63.75 0,-63.75 -202.8,0 -202.8,0 0,45.15 0,45.15 194.55,0 194.55,0 0,1.8 0,1.8 -238.05,0 -238.05,0 0,-1.8 0,-1.8 41.55,0 41.55,0 0,-45.225 c 0,-30.07072 0.1051,-45.5974 0.3103,-46.33635 0.1698,-0.61125 0.6598,-1.3875 1.0888,-1.725 l 0.78,-0.61365 204.5826,0 204.5826,0 0.877,0.87692 0.8769,0.87693 0,64.67307 0,64.67308 41.7,0 41.7,0 0,1.95 0,1.95 -289.8,0 -289.8,0 0,-1.95 z"
         style="fill:#000000" />
    </g>
    <g
       id="g8114"
       transform="translate(-1630.3441,-433.40685)">
      <path
         id="path8029"
         d="m 1750.5541,803.18043 c -0.081,-0.13125 -1.3785,-3.52809 -2.8831,-7.54852 -1.5046,-4.02044 -2.8585,-7.53953 -3.0087,-7.82022 -0.1503,-0.28068 -0.6833,-0.68022 -1.1846,-0.88787 -0.5013,-0.20765 -0.9115,-0.56367 -0.9115,-0.79115 0,-0.32749 0.7183,-0.4136 3.45,-0.4136 2.8667,0 3.45,0.0761 3.45,0.45 0,0.2475 -0.2442,0.45 -0.5427,0.45 -0.2984,0 -0.788,0.17943 -1.0879,0.39872 -0.5152,0.37669 -0.4231,0.72494 1.6649,6.3 1.2155,3.24571 2.294,5.90128 2.3965,5.90128 0.32,0 4.1692,-10.30657 4.1692,-11.16338 0,-0.68804 -0.1839,-0.86762 -1.2,-1.17207 -0.66,-0.19773 -1.2,-0.54066 -1.2,-0.76204 0,-0.31112 0.7152,-0.40251 3.15,-0.40251 2.5023,0 3.15,0.0865 3.15,0.42065 0,0.23136 -0.395,0.55835 -0.8778,0.72665 -0.4828,0.1683 -1.0727,0.62026 -1.3109,1.00435 -0.2382,0.38409 -1.7586,4.0396 -3.3785,8.12335 -2.6572,6.69832 -3.3482,7.98996 -3.8449,7.18636 z"
         style="fill:#000000"
         inkscape:connector-curvature="0" />
      <path
         id="path8027"
         d="m 1775.4733,802.82722 c -1.2153,-0.47483 -1.4689,-0.49628 -1.6071,-0.13596 -0.09,0.23529 -0.4197,0.42781 -0.7321,0.42781 -0.5193,0 -0.5679,-0.25652 -0.5679,-3 0,-3.57053 0.3718,-3.87461 1.5308,-1.25213 1.0588,2.39551 2.4794,3.46629 4.6261,3.48686 1.8359,0.0176 2.9525,-0.7569 3.2523,-2.25587 0.4135,-2.06729 -0.8034,-3.47973 -4.103,-4.76229 -3.802,-1.47787 -4.7062,-2.46928 -4.7062,-5.1603 0,-1.42169 0.1371,-1.87317 0.8126,-2.67594 0.9559,-1.13601 2.8404,-2.06446 4.2092,-2.07374 0.5345,-0.004 1.6367,0.24605 2.4493,0.55482 1.3088,0.49731 1.5285,0.51039 1.9244,0.1145 0.8197,-0.81972 1.1045,-0.13293 1.1045,2.66379 0,2.3526 -0.064,2.69168 -0.4952,2.6073 -0.2723,-0.0534 -0.6777,-0.62475 -0.9008,-1.26978 -0.9966,-2.881 -3.1744,-4.25725 -5.3189,-3.36123 -1.1834,0.49447 -1.6851,1.25105 -1.6851,2.54127 0,1.35982 1.2237,2.56918 3.5247,3.48332 4.6216,1.83607 5.6296,2.92363 5.4182,5.84615 -0.1514,2.09329 -0.8145,3.06271 -2.7768,4.05949 -1.805,0.9169 -3.8823,0.97335 -5.959,0.16193 z"
         style="fill:#000000"
         inkscape:connector-curvature="0" />
      <path
         id="path8025"
         d="m 1877.2402,802.5861 c -4.8064,-2.51091 -5.882,-9.90245 -2.1073,-14.48183 1.8875,-2.28979 5.4594,-3.19768 8.5098,-2.16296 1.4352,0.48684 1.783,0.5175 2.0617,0.1817 0.1844,-0.22217 0.5212,-0.40394 0.7485,-0.40394 0.3248,0 0.4133,0.67444 0.4133,3.15 0,2.52074 -0.085,3.15 -0.4259,3.15 -0.2456,0 -0.6406,-0.64637 -0.9332,-1.52738 -1.3972,-4.20673 -5.0738,-5.34063 -7.7416,-2.38764 -1.3022,1.44135 -1.9993,3.64358 -1.9993,6.31603 0,2.54928 0.6897,4.55342 2.0622,5.99252 2.5118,2.63358 6.5406,2.16758 8.2946,-0.95941 0.4405,-0.78528 0.7326,-1.02608 1.0252,-0.84525 0.3296,0.20368 0.2542,0.51736 -0.3876,1.6124 -1.3091,2.23392 -3.1807,3.19873 -6.2049,3.19873 -1.2986,0 -2.1123,-0.20445 -3.3155,-0.83297 z"
         style="fill:#000000"
         inkscape:connector-curvature="0" />
      <path
         id="path8023"
         d="m 1942.3402,802.5861 c -4.8064,-2.51091 -5.882,-9.90245 -2.1073,-14.48183 1.8875,-2.28979 5.4594,-3.19768 8.5098,-2.16296 1.4352,0.48684 1.783,0.5175 2.0617,0.1817 0.1844,-0.22217 0.5212,-0.40394 0.7485,-0.40394 0.3248,0 0.4133,0.67444 0.4133,3.15 0,2.52074 -0.085,3.15 -0.4259,3.15 -0.2456,0 -0.6406,-0.64637 -0.9332,-1.52738 -1.3972,-4.20673 -5.0738,-5.34063 -7.7416,-2.38764 -1.3022,1.44135 -1.9993,3.64358 -1.9993,6.31603 0,2.54928 0.6897,4.55342 2.0622,5.99252 2.5118,2.63358 6.5406,2.16758 8.2946,-0.95941 0.4405,-0.78528 0.7326,-1.02608 1.0252,-0.84525 0.3296,0.20368 0.2542,0.51736 -0.3876,1.6124 -1.3091,2.23392 -3.1807,3.19873 -6.2049,3.19873 -1.2986,0 -2.1123,-0.20445 -3.3155,-0.83297 z"
         style="fill:#000000"
         inkscape:connector-curvature="0" />
      <path
         id="path8021"
         d="m 2052.1402,802.5861 c -4.8064,-2.51091 -5.882,-9.90245 -2.1073,-14.48183 1.8875,-2.28979 5.4594,-3.19768 8.5098,-2.16296 1.4352,0.48684 1.7831,0.5175 2.0617,0.1817 0.1844,-0.22217 0.5212,-0.40394 0.7485,-0.40394 0.3248,0 0.4133,0.67444 0.4133,3.15 0,2.52074 -0.085,3.15 -0.4259,3.15 -0.2456,0 -0.6406,-0.64637 -0.9332,-1.52738 -1.3972,-4.20673 -5.0738,-5.34063 -7.7416,-2.38764 -1.3022,1.44135 -1.9993,3.64358 -1.9993,6.31603 0,2.54928 0.6897,4.55342 2.0622,5.99252 2.5118,2.63358 6.5406,2.16758 8.2946,-0.95941 0.4405,-0.78528 0.7326,-1.02608 1.0252,-0.84525 0.3296,0.20368 0.2542,0.51736 -0.3876,1.6124 -1.3091,2.23392 -3.1807,3.19873 -6.2049,3.19873 -1.2986,0 -2.1123,-0.20445 -3.3155,-0.83297 z"
         style="fill:#000000"
         inkscape:connector-curvature="0" />
      <path
         id="path8019"
         transform="translate(0,520.86615)"
         d="m 2093.2656,264.70312 c -1.9385,5e-5 -2.4739,0.12503 -3.875,0.9004 -2.8471,1.57567 -4.3807,4.43155 -4.3457,8.0996 0.035,3.67386 1.8375,6.76444 4.7539,8.15235 1.2657,0.60228 1.8937,0.70786 3.791,0.63476 1.9175,-0.0739 2.5038,-0.22966 3.7403,-0.99414 2.7818,-1.71991 4.1137,-4.23361 4.1367,-7.80664 0.016,-2.46409 -0.5427,-4.2712 -1.8516,-5.98437 -1.6094,-2.10664 -3.5048,-3.002 -6.3496,-3.00196 z m 0.1192,0.87891 c 1.0597,0.0405 2.1302,0.49686 3.0644,1.40235 1.5406,1.49315 2.0664,3.20501 2.0664,6.71874 0,2.73333 -0.08,3.15883 -0.9004,4.79883 -0.7291,1.45829 -1.1537,1.92971 -2.2382,2.47657 -2.9412,1.4832 -5.5249,0.28029 -6.9375,-3.22657 -0.2703,-0.67131 -0.4239,-2.18529 -0.4239,-4.19922 0,-2.84225 0.082,-3.3169 0.8399,-4.85937 1.0265,-2.09049 2.7631,-3.1788 4.5293,-3.11133 z"
         style="fill:#000000"
         inkscape:connector-curvature="0" />
      <path
         id="path8015"
         transform="translate(0,520.86615)"
         d="m 2128.9668,264.70312 c -1.9385,5e-5 -2.4759,0.12503 -3.877,0.9004 -2.8471,1.57567 -4.3787,4.43155 -4.3437,8.0996 0.035,3.67386 1.8375,6.76444 4.7539,8.15235 1.2657,0.60228 1.8918,0.70786 3.7891,0.63476 1.9175,-0.0739 2.5037,-0.22966 3.7402,-0.99414 2.7818,-1.71991 4.1137,-4.23361 4.1367,-7.80664 0.016,-2.46409 -0.5426,-4.2712 -1.8515,-5.98437 -1.6094,-2.10664 -3.5029,-3.002 -6.3477,-3.00196 z m 0.1172,0.87891 c 1.0597,0.0405 2.1302,0.49686 3.0644,1.40235 1.5406,1.49315 2.0684,3.20501 2.0684,6.71874 0,2.73333 -0.08,3.15883 -0.9004,4.79883 -0.7291,1.45829 -1.1538,1.92971 -2.2383,2.47657 -2.9412,1.4832 -5.5268,0.28029 -6.9394,-3.22657 -0.2703,-0.67131 -0.4219,-2.18529 -0.4219,-4.19922 0,-2.84225 0.082,-3.3169 0.8398,-4.85937 1.0266,-2.09049 2.7612,-3.1788 4.5274,-3.11133 z"
         style="fill:#000000"
         inkscape:connector-curvature="0" />
      <path
         id="path8011"
         d="m 2145.9906,803.00878 c -5.7622,-2.14715 -7.4086,-10.05278 -3.0891,-14.8339 2.1956,-2.43029 5.7478,-3.31779 8.9412,-2.23392 1.4352,0.48713 1.7831,0.51784 2.0617,0.18205 0.1844,-0.22217 0.5212,-0.40394 0.7485,-0.40394 0.3235,0 0.4133,0.65185 0.4133,3 0,3.43394 -0.4474,3.9718 -1.3461,1.61846 -1.5167,-3.97138 -5.134,-5.0858 -8.0884,-2.49186 -1.5243,1.33844 -2.1155,3.17523 -2.1155,6.5734 0,2.52568 0.097,3.04804 0.8546,4.5903 1.4475,2.94796 4.1492,4.14354 6.9478,3.07471 l 1.3476,-0.51464 0,-2.20817 c 0,-1.94178 -0.08,-2.26452 -0.6667,-2.67519 -0.3668,-0.25685 -0.9743,-0.46701 -1.35,-0.46701 -0.4074,0 -0.6833,-0.18173 -0.6833,-0.45 0,-0.376 0.6167,-0.45 3.75,-0.45 3.1333,0 3.75,0.074 3.75,0.45 0,0.2475 -0.24,0.45 -0.5332,0.45 -0.2933,0 -0.8333,0.21016 -1.2,0.46701 -0.5979,0.41875 -0.6668,0.72409 -0.6668,2.95443 l 0,2.48742 -1.575,0.53205 c -2.1066,0.71164 -6.0364,0.89439 -7.5006,0.3488 z"
         style="fill:#000000"
         inkscape:connector-curvature="0" />
      <path
         id="path8009"
         transform="translate(0,520.86615)"
         d="m 1710.7773,264.85938 c -2.0226,-0.0151 -2.4121,0.0846 -2.4121,0.37695 0,0.24865 0.3715,0.54454 0.8243,0.6582 1.5877,0.39842 1.5761,0.34618 1.5761,7.67383 0,7.42506 -0.076,7.78516 -1.6699,7.78516 -0.4476,0 -0.7305,0.17274 -0.7305,0.44921 0,0.375 0.6016,0.44922 3.6016,0.44922 3,0 3.5996,-0.0742 3.5996,-0.44922 0,-0.27647 -0.2809,-0.44921 -0.7285,-0.44921 -1.3845,0 -1.6719,-0.67359 -1.6719,-3.92188 l 0,-2.97852 0.9981,0 c 0.9187,0 1.1666,0.23162 3.1035,2.92383 1.1574,1.60875 2.3568,3.36414 2.666,3.90039 0.5584,0.968 0.5771,0.97461 2.8965,0.97461 1.8758,0 2.3359,-0.0878 2.3359,-0.44922 0,-0.2475 -0.1957,-0.44921 -0.4355,-0.44921 -1.1471,0 -2.2514,-1.00049 -4.5821,-4.1504 -1.3878,-1.87564 -2.4797,-3.44091 -2.4277,-3.47851 0.052,-0.0376 0.5451,-0.24616 1.0938,-0.46484 3.5639,-1.42018 4.0578,-5.89993 0.8359,-7.58008 -1.0813,-0.5639 -1.8554,-0.65883 -6.2598,-0.76953 -1.0832,-0.0272 -1.9391,-0.0458 -2.6133,-0.0508 z m 3.4102,0.94726 c 0.3491,1.7e-4 0.7875,0.0289 1.2285,0.084 1.9271,0.24078 3.0234,1.12579 3.3145,2.67774 0.2852,1.52008 -0.042,2.52269 -1.2012,3.68164 -0.8978,0.89778 -1.1788,1.00195 -2.6836,1.00195 l -1.6797,0 0,-3.58203 c 0,-2.23256 0.1212,-3.65698 0.3223,-3.78125 0.089,-0.0548 0.3501,-0.0822 0.6992,-0.082 z"
         style="fill:#000000"
         inkscape:connector-curvature="0" />
      <path
         id="path8005"
         d="m 1726.9662,802.66907 c 0,-0.27647 0.281,-0.45 0.7286,-0.45 1.5856,0 1.6714,-0.38492 1.6714,-7.49689 0,-3.60472 -0.079,-6.76105 -0.1765,-7.01406 -0.097,-0.25302 -0.6371,-0.61203 -1.2,-0.7978 -0.5629,-0.18578 -1.0235,-0.52981 -1.0235,-0.76452 0,-0.35604 1.0933,-0.42673 6.6,-0.42673 l 6.6,0 0,2.1 c 0,2.5081 -0.3787,2.69306 -1.5525,0.75814 -0.9412,-1.55167 -2.2286,-2.04189 -4.9839,-1.89777 l -1.7136,0.0896 0,3.45 0,3.45 1.6138,-0.0149 c 1.3796,-0.0127 1.717,-0.13489 2.325,-0.84173 0.3912,-0.45474 0.7112,-1.08929 0.7112,-1.41009 0,-0.3208 0.2025,-0.58327 0.45,-0.58327 0.3727,0 0.45,0.56667 0.45,3.3 0,2.73333 -0.077,3.3 -0.45,3.3 -0.2475,0 -0.45,-0.25179 -0.45,-0.55954 0,-0.30775 -0.2798,-0.91525 -0.6218,-1.35 -0.5467,-0.69511 -0.8362,-0.79046 -2.4,-0.79046 l -1.7782,0 0,3.09266 c 0,4.17789 0.066,4.25734 3.5525,4.25734 2.4314,0 2.7752,-0.071 3.4604,-0.71487 0.4183,-0.39318 1.0028,-1.30392 1.2989,-2.02388 0.753,-1.83132 1.2882,-1.70616 1.2882,0.30125 0,0.88687 -0.084,2.03437 -0.1875,2.55 l -0.1875,0.9375 -7.0125,0 c -6.0333,0 -7.0125,-0.0628 -7.0125,-0.45 z"
         style="fill:#000000"
         inkscape:connector-curvature="0" />
      <path
         id="path8003"
         d="m 1761.4662,802.66907 c 0,-0.2932 0.2936,-0.45 0.8427,-0.45 1.8695,0 1.8769,-0.0325 1.788,-7.80015 l -0.081,-7.04985 -1.2778,-0.4417 c -2.1175,-0.732 -1.3532,-1.05211 2.7273,-1.14226 3.1984,-0.0707 3.8005,-0.0134 3.8005,0.3614 0,0.27213 -0.4116,0.52259 -1.0581,0.64388 -0.582,0.10918 -1.1895,0.44392 -1.35,0.74387 -0.392,0.73236 -0.3815,13.05692 0.012,13.79162 0.167,0.31205 0.7745,0.6557 1.35,0.76367 0.5986,0.11229 1.0464,0.37457 1.0464,0.61291 0,0.33412 -0.7723,0.41661 -3.9,0.41661 -3.2667,0 -3.9,-0.0731 -3.9,-0.45 z"
         style="fill:#000000"
         inkscape:connector-curvature="0" />
      <path
         id="path8001"
         d="m 1789.9662,802.66907 c 0,-0.3 0.3,-0.45 0.9,-0.45 0.5,0 1.1667,-0.26667 1.5,-0.6 0.5659,-0.56587 0.6,-1 0.6,-7.63229 0,-4.67539 -0.1077,-7.09885 -0.3213,-7.23087 -0.1767,-0.10922 -0.9218,-0.10853 -1.6557,10e-4 -1.4959,0.22432 -2.6124,1.19986 -3.1891,2.78663 -0.6558,1.80402 -1.1339,1.20091 -1.1339,-1.43021 l 0,-2.40524 7.425,0.0802 7.425,0.0802 0.088,2.325 c 0.1016,2.69561 -0.3841,3.12866 -1.2802,1.14147 -0.7922,-1.75688 -1.6398,-2.40712 -3.4109,-2.61689 l -1.5465,-0.18315 0,7.35505 c 0,8.00786 -0.032,7.85708 1.7536,8.21424 0.5205,0.1041 0.9464,0.3749 0.9464,0.60178 0,0.32963 -0.8136,0.4125 -4.05,0.4125 -3.4,0 -4.05,-0.0722 -4.05,-0.45 z"
         style="fill:#000000"
         inkscape:connector-curvature="0" />
      <path
         id="path7999"
         transform="translate(0,520.86615)"
         d="m 1811.3965,264.92383 c -0.4972,-0.068 -0.9838,0.97646 -3.4238,7.34961 -2.9035,7.58407 -3.7419,9.08008 -5.084,9.08008 -0.3539,0 -0.6231,0.19365 -0.6231,0.44921 0,0.3727 0.5675,0.45118 3.3008,0.45118 2.7333,0 3.2988,-0.0785 3.2988,-0.45118 0,-0.27007 -0.2757,-0.44921 -0.6914,-0.44921 -0.3809,0 -0.9415,-0.18349 -1.2461,-0.40625 -0.6314,-0.4617 -0.5459,-1.69275 0.25,-3.59766 l 0.4668,-1.11719 3.0547,0.084 3.0567,0.0859 0.7793,2.18555 c 0.8452,2.36705 0.7347,2.74937 -0.795,2.75977 -0.398,0.003 -0.6738,0.18976 -0.6738,0.45507 0,0.375 0.5996,0.44922 3.5996,0.44922 3,0 3.5996,-0.0742 3.5996,-0.44922 0,-0.2475 -0.2546,-0.44921 -0.5664,-0.44921 -1.2392,0 -1.8541,-1.12149 -4.7754,-8.70118 -2.3508,-6.09942 -3.0651,-7.66531 -3.5273,-7.72851 z m -0.6973,4.04492 c 0.265,0.26781 2.3672,5.69292 2.3672,6.10937 0,0.28635 -4.5815,0.39502 -4.8613,0.11524 -0.088,-0.0881 0.3848,-1.57854 1.0508,-3.31055 0.6659,-1.73201 1.3158,-3.04292 1.4433,-2.91406 z"
         style="fill:#000000"
         inkscape:connector-curvature="0" />
      <path
         id="path7995"
         transform="translate(0,520.86615)"
         d="m 1832.8438,264.91797 c -1.9874,0.0459 -3.7181,0.20188 -3.795,0.43359 -0.063,0.19122 0.2996,0.43789 0.8047,0.54883 0.5051,0.11094 1.0513,0.45207 1.2149,0.75781 0.1708,0.31916 0.2968,3.36603 0.2968,7.1543 0,7.16011 -0.083,7.54102 -1.6699,7.54102 -0.4684,0 -0.7285,0.17135 -0.7285,0.48046 0,0.4269 0.5465,0.46569 4.875,0.34571 5.3897,-0.1494 6.8089,-0.48402 8.7168,-2.05664 1.7388,-1.43325 2.6671,-3.28063 2.8359,-5.64063 0.3591,-5.01845 -2.2751,-8.43096 -7.2129,-9.34375 -1.1057,-0.2044 -3.3505,-0.26661 -5.3378,-0.2207 z m 2.83,1.08203 c 4.509,0.11899 6.7739,2.74309 6.7832,7.85352 0.01,3.87406 -1.2155,6.14383 -3.7968,7.06445 -2.0345,0.72559 -3.9602,0.41892 -4.5743,-0.72852 -0.199,-0.37195 -0.3203,-3.1508 -0.3203,-7.36718 l 0,-6.76954 0.9746,-0.043 c 0.3206,-0.0143 0.633,-0.0177 0.9336,-0.01 z"
         style="fill:#000000"
         inkscape:connector-curvature="0" />
      <path
         id="path7991"
         d="m 1848.4662,802.66907 c 0,-0.27647 0.281,-0.45 0.7286,-0.45 1.5856,0 1.6714,-0.38492 1.6714,-7.49689 0,-3.60472 -0.079,-6.76105 -0.1765,-7.01406 -0.097,-0.25302 -0.6371,-0.61203 -1.2,-0.7978 -0.5629,-0.18578 -1.0235,-0.52981 -1.0235,-0.76452 0,-0.35604 1.0933,-0.42673 6.6,-0.42673 l 6.6,0 0,2.1 c 0,2.5081 -0.3787,2.69306 -1.5525,0.75814 -0.9412,-1.55167 -2.2286,-2.04189 -4.9839,-1.89777 l -1.7136,0.0896 0,3.45 0,3.45 1.6138,-0.0149 c 1.3796,-0.0127 1.717,-0.13489 2.325,-0.84173 0.3912,-0.45476 0.7112,-1.0893 0.7112,-1.4101 0,-0.3208 0.2025,-0.58327 0.45,-0.58327 0.3727,0 0.45,0.56667 0.45,3.3 0,2.73333 -0.077,3.3 -0.45,3.3 -0.2475,0 -0.45,-0.2518 -0.45,-0.55954 0,-0.30775 -0.2798,-0.91525 -0.6218,-1.35 -0.5467,-0.69511 -0.8362,-0.79046 -2.4,-0.79046 l -1.7782,1e-5 0,3.09266 c 0,4.17789 0.066,4.25734 3.5525,4.25734 2.4314,0 2.7752,-0.071 3.4604,-0.71487 0.4183,-0.39318 1.0029,-1.30392 1.2989,-2.02388 0.753,-1.83132 1.2882,-1.70616 1.2882,0.30125 0,0.88687 -0.084,2.03437 -0.1875,2.55 l -0.1875,0.9375 -7.0125,0 c -6.0333,0 -7.0125,-0.0628 -7.0125,-0.45 z"
         style="fill:#000000"
         inkscape:connector-curvature="0" />
      <path
         id="path7989"
         d="m 1889.5662,802.66907 c 0,-0.2932 0.2936,-0.45 0.8427,-0.45 1.8695,0 1.8769,-0.0325 1.788,-7.80015 l -0.081,-7.04985 -1.2778,-0.4417 c -2.1175,-0.732 -1.3532,-1.05211 2.7273,-1.14226 3.1984,-0.0707 3.8005,-0.0134 3.8005,0.3614 0,0.27213 -0.4116,0.52259 -1.0581,0.64388 -0.582,0.10918 -1.1895,0.44392 -1.35,0.74387 -0.392,0.73236 -0.3814,13.05692 0.012,13.79162 0.167,0.31205 0.7745,0.6557 1.35,0.76367 0.5986,0.11229 1.0463,0.37457 1.0463,0.61291 0,0.33412 -0.7722,0.41661 -3.9,0.41661 -3.2666,0 -3.9,-0.0731 -3.9,-0.45 z"
         style="fill:#000000"
         inkscape:connector-curvature="0" />
      <path
         id="path7987"
         d="m 1900.6662,802.66907 c 0,-0.27647 0.281,-0.45 0.7286,-0.45 1.5856,0 1.6714,-0.38492 1.6714,-7.49689 0,-3.60472 -0.079,-6.76105 -0.1765,-7.01406 -0.097,-0.25302 -0.6371,-0.61203 -1.2,-0.7978 -0.5629,-0.18578 -1.0235,-0.52981 -1.0235,-0.76452 0,-0.35604 1.0933,-0.42673 6.6,-0.42673 l 6.6,0 0,2.1 c 0,2.5081 -0.3787,2.69306 -1.5525,0.75814 -0.9412,-1.55167 -2.2286,-2.04189 -4.9839,-1.89777 l -1.7136,0.0896 0,3.45 0,3.45 1.6138,-0.0149 c 1.3796,-0.0127 1.717,-0.13489 2.325,-0.84173 0.3912,-0.45476 0.7112,-1.0893 0.7112,-1.4101 0,-0.3208 0.2025,-0.58327 0.45,-0.58327 0.3727,0 0.45,0.56667 0.45,3.3 0,2.73333 -0.077,3.3 -0.45,3.3 -0.2475,0 -0.45,-0.2518 -0.45,-0.55954 0,-0.30775 -0.2798,-0.91525 -0.6218,-1.35 -0.5467,-0.69511 -0.8362,-0.79046 -2.4,-0.79046 l -1.7782,1e-5 0,3.09266 c 0,4.17789 0.066,4.25734 3.5525,4.25734 2.4314,0 2.7752,-0.071 3.4604,-0.71487 0.4183,-0.39318 1.0029,-1.30392 1.2989,-2.02388 0.753,-1.83132 1.2882,-1.70616 1.2882,0.30125 0,0.88687 -0.084,2.03437 -0.1875,2.55 l -0.1875,0.9375 -7.0125,0 c -6.0333,0 -7.0125,-0.0628 -7.0125,-0.45 z"
         style="fill:#000000"
         inkscape:connector-curvature="0" />
      <path
         id="path7985"
         d="m 1917.4662,802.69287 c 0,-0.23439 0.391,-0.51204 0.8689,-0.61701 1.7785,-0.39062 1.9159,-0.83692 2.0581,-6.68435 0.1586,-6.52662 -0.054,-7.43318 -1.952,-8.31471 -2.0756,-0.96413 -1.6771,-1.39622 1.1943,-1.2949 l 2.4693,0.0871 4.8057,6.52518 4.8057,6.52517 0.082,-4.91202 c 0.048,-2.86067 -0.047,-5.25158 -0.2271,-5.72512 -0.2039,-0.5364 -0.7168,-0.97322 -1.5071,-1.28366 -0.6588,-0.25882 -1.1979,-0.6526 -1.1979,-0.87507 0,-0.31587 0.7558,-0.40449 3.45,-0.40449 2.8918,0 3.45,0.074 3.45,0.4575 0,0.26953 -0.3742,0.53234 -0.9108,0.63965 -1.7193,0.34387 -1.7892,0.69029 -1.7892,8.8696 0,7.23673 -0.016,7.43325 -0.6008,7.43325 -0.4355,0 -2.0251,-1.91903 -5.775,-6.97175 l -5.1742,-6.97175 -0.099,1.19675 c -0.055,0.65821 -0.055,3.2416 0,5.74086 0.1091,5.00779 0.3063,5.57313 2.0801,5.96272 0.4779,0.10496 0.8689,0.38262 0.8689,0.61701 0,0.34351 -0.6691,0.42616 -3.45,0.42616 -2.7809,0 -3.45,-0.0827 -3.45,-0.42616 z"
         style="fill:#000000"
         inkscape:connector-curvature="0" />
      <path
         id="path7983"
         d="m 1954.9662,802.66907 c 0,-0.2932 0.2936,-0.45 0.8427,-0.45 1.8695,0 1.8769,-0.0325 1.788,-7.80015 l -0.081,-7.04985 -1.2778,-0.4417 c -2.1175,-0.732 -1.3532,-1.05211 2.7273,-1.14226 3.1984,-0.0707 3.8005,-0.0134 3.8005,0.3614 0,0.27213 -0.4116,0.52259 -1.0581,0.64388 -0.582,0.10918 -1.1895,0.44392 -1.35,0.74387 -0.392,0.73236 -0.3814,13.05692 0.012,13.79162 0.167,0.31205 0.7745,0.6557 1.35,0.76367 0.5986,0.11229 1.0463,0.37457 1.0463,0.61291 0,0.33412 -0.7722,0.41661 -3.9,0.41661 -3.2666,0 -3.9,-0.0731 -3.9,-0.45 z"
         style="fill:#000000"
         inkscape:connector-curvature="0" />
      <path
         id="path7981"
         transform="translate(0,520.86615)"
         d="m 1973.3965,264.92383 c -0.4972,-0.068 -0.9838,0.97646 -3.4238,7.34961 -2.9035,7.58407 -3.7419,9.08008 -5.084,9.08008 -0.3539,0 -0.6231,0.19365 -0.6231,0.44921 0,0.3727 0.5675,0.45118 3.3008,0.45118 2.7333,0 3.2988,-0.0785 3.2988,-0.45118 0,-0.27007 -0.2757,-0.44921 -0.6914,-0.44921 -0.3809,0 -0.9415,-0.18349 -1.2461,-0.40625 -0.6314,-0.4617 -0.5459,-1.69275 0.25,-3.59766 l 0.4668,-1.11719 3.0547,0.084 3.0567,0.0859 0.7793,2.18555 c 0.8452,2.36705 0.7347,2.74937 -0.795,2.75977 -0.398,0.003 -0.6738,0.18976 -0.6738,0.45507 0,0.375 0.5996,0.44922 3.5996,0.44922 3,0 3.5996,-0.0742 3.5996,-0.44922 0,-0.2475 -0.2546,-0.44921 -0.5664,-0.44921 -1.2392,0 -1.8541,-1.12149 -4.7754,-8.70118 -2.3508,-6.09942 -3.0651,-7.66531 -3.5273,-7.72851 z m -0.6973,4.04492 c 0.2651,0.26781 2.3672,5.69292 2.3672,6.10937 0,0.28635 -4.5815,0.39502 -4.8613,0.11524 -0.088,-0.0881 0.3848,-1.57854 1.0508,-3.31055 0.6659,-1.73201 1.3158,-3.04292 1.4433,-2.91406 z"
         style="fill:#000000"
         inkscape:connector-curvature="0" />
      <path
         id="path7977"
         d="m 1993.3662,802.66907 c 0,-0.28307 0.2855,-0.45 0.7697,-0.45 1.7145,0 1.9303,-0.37551 1.9303,-3.35936 l 0,-2.73825 -1.985,-3.77619 c -2.1033,-4.00136 -3.1131,-5.339 -4.2447,-5.62302 -0.3831,-0.0961 -0.6455,-0.32742 -0.5834,-0.51398 0.1672,-0.50153 7.1704,-0.46736 7.3381,0.0358 0.074,0.22245 -0.1373,0.375 -0.5197,0.375 -0.3546,0 -0.9118,0.14293 -1.2382,0.31761 -0.5652,0.30246 -0.5034,0.48913 1.2947,3.91273 l 1.8882,3.59513 0.6,-0.75602 c 1.183,-1.49064 3.5125,-5.87378 3.3487,-6.30078 -0.092,-0.23956 -0.6526,-0.52664 -1.246,-0.63795 -2.0259,-0.38007 -0.9734,-0.87719 2.0466,-0.96658 2.4011,-0.0711 2.9007,-0.009 2.9007,0.35863 0,0.24447 -0.366,0.62061 -0.8133,0.83586 -1.0333,0.49717 -2.5118,2.46352 -4.5117,6.0004 l -1.575,2.7854 0,2.87963 c 0,2.79466 0.023,2.8899 0.7641,3.22778 0.4203,0.19149 1.0278,0.34816 1.35,0.34816 0.3223,0 0.5859,0.2025 0.5859,0.45 0,0.37778 -0.65,0.45 -4.05,0.45 -3.4,0 -4.05,-0.0722 -4.05,-0.45 z"
         style="fill:#000000"
         inkscape:connector-curvature="0" />
      <path
         id="path7975"
         d="m 2016.7662,802.66907 c 0,-0.3 0.3,-0.45 0.9,-0.45 0.5,0 1.1667,-0.26667 1.5,-0.6 0.5659,-0.56587 0.6,-1 0.6,-7.63229 0,-4.67539 -0.1077,-7.09885 -0.3213,-7.23087 -0.1767,-0.10922 -0.9218,-0.10853 -1.6557,10e-4 -1.4959,0.22432 -2.6124,1.19986 -3.1891,2.78663 -0.6558,1.80399 -1.1339,1.20088 -1.1339,-1.43024 l 0,-2.40524 7.425,0.0802 7.425,0.0802 0.088,2.325 c 0.1016,2.69561 -0.3841,3.12866 -1.2802,1.14147 -0.7922,-1.75688 -1.6398,-2.40712 -3.4109,-2.61689 l -1.5465,-0.18315 0,7.35505 c 0,8.00786 -0.032,7.85708 1.7536,8.21424 0.5205,0.1041 0.9464,0.3749 0.9464,0.60178 0,0.32963 -0.8136,0.4125 -4.05,0.4125 -3.4,0 -4.05,-0.0722 -4.05,-0.45 z"
         style="fill:#000000"
         inkscape:connector-curvature="0" />
      <path
         id="path7973"
         d="m 2030.5662,802.66907 c 0,-0.27647 0.281,-0.45 0.7286,-0.45 1.5856,0 1.6714,-0.38492 1.6714,-7.49689 0,-3.60472 -0.079,-6.76105 -0.1765,-7.01406 -0.097,-0.25302 -0.6371,-0.61203 -1.2,-0.7978 -0.5629,-0.18578 -1.0235,-0.52981 -1.0235,-0.76452 0,-0.35604 1.0933,-0.42673 6.6,-0.42673 l 6.6,0 0,2.1 c 0,2.5081 -0.3787,2.69306 -1.5525,0.75814 -0.9412,-1.55167 -2.2286,-2.04189 -4.9839,-1.89777 l -1.7136,0.0896 0,3.45 0,3.45 1.6138,-0.0149 c 1.3796,-0.0127 1.717,-0.13489 2.325,-0.84173 0.3912,-0.45476 0.7112,-1.0893 0.7112,-1.4101 0,-0.3208 0.2025,-0.58327 0.45,-0.58327 0.3727,0 0.45,0.56667 0.45,3.3 0,2.73333 -0.077,3.3 -0.45,3.3 -0.2475,0 -0.45,-0.2518 -0.45,-0.55954 0,-0.30775 -0.2798,-0.91525 -0.6218,-1.35 -0.5468,-0.69511 -0.8363,-0.79046 -2.4,-0.79046 l -1.7782,0 0,3.09266 c 0,4.17789 0.066,4.25734 3.5525,4.25734 2.4315,0 2.7753,-0.071 3.4604,-0.71487 0.4183,-0.39318 1.0029,-1.30392 1.2989,-2.02388 0.753,-1.83132 1.2882,-1.70616 1.2882,0.30125 0,0.88687 -0.084,2.03437 -0.1875,2.55 l -0.1875,0.9375 -7.0125,0 c -6.0333,10e-6 -7.0125,-0.0628 -7.0125,-0.44999 z"
         style="fill:#000000"
         inkscape:connector-curvature="0" />
      <path
         id="path7971"
         d="m 2064.4662,802.69287 c 0,-0.23439 0.391,-0.51204 0.8689,-0.61701 1.7785,-0.39062 1.9159,-0.83692 2.0581,-6.68435 0.1587,-6.52662 -0.054,-7.43318 -1.952,-8.31471 -2.0756,-0.96413 -1.6771,-1.39622 1.1943,-1.2949 l 2.4693,0.0871 4.8057,6.52518 4.8057,6.52517 0.082,-4.91202 c 0.048,-2.86067 -0.047,-5.25158 -0.2271,-5.72512 -0.2039,-0.5364 -0.7168,-0.97322 -1.5071,-1.28366 -0.6588,-0.25881 -1.1979,-0.65258 -1.1979,-0.87506 0,-0.31587 0.7559,-0.40449 3.45,-0.40449 2.8918,0 3.45,0.074 3.45,0.4575 0,0.26954 -0.3742,0.53234 -0.9108,0.63966 -1.7193,0.34386 -1.7892,0.69029 -1.7892,8.86959 0,7.23674 -0.016,7.43325 -0.6008,7.43325 -0.4355,0 -2.0251,-1.91902 -5.775,-6.97175 l -5.1742,-6.97175 -0.099,1.19675 c -0.055,0.65821 -0.055,3.2416 0,5.74086 0.1091,5.00779 0.3063,5.57314 2.0801,5.96272 0.4779,0.10497 0.8689,0.38262 0.8689,0.61701 0,0.34351 -0.6691,0.42616 -3.45,0.42616 -2.7809,0 -3.45,-0.0827 -3.45,-0.42616 z"
         style="fill:#000000"
         inkscape:connector-curvature="0" />
      <path
         id="path7969"
         d="m 2104.9662,802.66907 c 0,-0.27647 0.281,-0.45 0.7286,-0.45 1.5856,0 1.6714,-0.38492 1.6714,-7.49689 0,-3.60472 -0.079,-6.76105 -0.1765,-7.01406 -0.097,-0.25302 -0.6371,-0.61203 -1.2,-0.7978 -0.5629,-0.18578 -1.0235,-0.52981 -1.0235,-0.76452 0,-0.34527 0.6872,-0.42673 3.6,-0.42673 2.9105,0 3.6,0.0816 3.6,0.42616 0,0.23439 -0.4061,0.51537 -0.9025,0.62439 -0.4964,0.10902 -1.0364,0.44837 -1.2,0.75411 -0.1703,0.31819 -0.2975,3.32235 -0.2975,7.02562 0,6.06972 0.037,6.50681 0.6,7.06972 0.4528,0.4528 1,0.6 2.2305,0.6 2.712,0 3.7416,-0.65317 4.8471,-3.075 0.2825,-0.61875 0.6955,-1.125 0.918,-1.125 0.4538,0 0.4915,0.57915 0.2117,3.25599 l -0.1928,1.84401 -6.7072,0 c -5.7621,0 -6.7073,-0.0634 -6.7073,-0.45 z"
         style="fill:#000000"
         inkscape:connector-curvature="0" />
      <path
         id="path7967"
         d="m 2159.2662,802.66907 c 0,-0.2932 0.2936,-0.45 0.8427,-0.45 1.8695,0 1.877,-0.0325 1.788,-7.80015 l -0.081,-7.04985 -1.2778,-0.4417 c -2.1175,-0.732 -1.3532,-1.05211 2.7273,-1.14226 3.1984,-0.0707 3.8005,-0.0134 3.8005,0.3614 0,0.27213 -0.4116,0.52259 -1.0581,0.64388 -0.582,0.10918 -1.1895,0.44392 -1.35,0.74387 -0.392,0.73236 -0.3814,13.05692 0.012,13.79162 0.167,0.31205 0.7745,0.6557 1.35,0.76367 0.5985,0.11229 1.0463,0.37457 1.0463,0.61291 0,0.33412 -0.7722,0.41661 -3.9,0.41661 -3.2667,0 -3.9,-0.0731 -3.9,-0.45 z"
         style="fill:#000000"
         inkscape:connector-curvature="0" />
      <path
         id="path7965"
         transform="translate(0,520.86615)"
         d="m 2177.6953,264.92383 c -0.4972,-0.068 -0.9838,0.97646 -3.4238,7.34961 -2.9035,7.58407 -3.7399,9.08008 -5.082,9.08008 -0.3539,0 -0.6231,0.19365 -0.6231,0.44921 0,0.3727 0.5655,0.45118 3.2988,0.45118 2.7333,0 3.3008,-0.0785 3.3008,-0.45118 0,-0.27007 -0.2776,-0.44921 -0.6933,-0.44921 -0.3809,0 -0.9415,-0.18349 -1.2461,-0.40625 -0.6314,-0.4617 -0.546,-1.69275 0.25,-3.59766 l 0.4687,-1.11719 3.0547,0.084 3.0547,0.0859 0.7812,2.18555 c 0.8452,2.36705 0.7348,2.74937 -0.7949,2.75977 -0.3979,0.003 -0.6758,0.18976 -0.6758,0.45507 0,0.375 0.6016,0.44922 3.6016,0.44922 3,0 3.5996,-0.0742 3.5996,-0.44922 0,-0.2475 -0.2546,-0.44921 -0.5664,-0.44921 -1.2392,0 -1.8541,-1.12149 -4.7754,-8.70118 -2.3508,-6.09942 -3.0671,-7.66531 -3.5293,-7.72851 z M 2177,268.96875 c 0.2651,0.26781 2.3652,5.69292 2.3652,6.10937 0,0.28635 -4.5795,0.39502 -4.8593,0.11524 -0.088,-0.0881 0.3848,-1.57854 1.0507,-3.31055 0.666,-1.73201 1.3159,-3.04292 1.4434,-2.91406 z"
         style="fill:#000000"
         inkscape:connector-curvature="0" />
    </g>
    <path
       style="fill:#000000"
       d="m 530.3019,351.16038 c -0.2593,-0.41954 3.8912,-4.3172 4.4751,-4.20246 0.8431,0.16568 1.236,1.01278 0.7444,1.6051 -0.5637,0.67923 -5.0311,2.90229 -5.2195,2.59736 z"
       id="path7961"
       inkscape:connector-curvature="0" />
    <ellipse
       style="opacity:1;fill:#a01818;fill-opacity:0.94117647;stroke:none;stroke-width:0.1;stroke-miterlimit:4;stroke-dasharray:none;stroke-opacity:1"
       id="path8151"
       cx="268.069"
       cy="294.52435"
       rx="20.484444"
       ry="29.003969" />
    <path
       inkscape:connector-curvature="0"
       style="opacity:1;fill:#000080;fill-opacity:1"
       d="m 268.7321,263.28352 c -3.2352,-0.0729 -6.4942,0.40267 -9.6172,1.44726 -7.2827,2.43592 -12.7025,7.28204 -16.25,14.53125 -2.5305,5.17115 -3.6951,11.11919 -3.3262,16.98633 0.9959,15.8356 10.6171,27.18114 24.6328,29.04688 5.028,0.66932 11.1416,-0.25985 15.6719,-2.38282 3.425,-1.60499 5.8061,-3.36281 8.6465,-6.38085 4.7094,-5.00392 7.2091,-10.86692 7.9433,-18.63477 1.1636,-12.31184 -3.645,-23.80251 -12.4648,-29.7832 -4.5192,-3.06448 -9.8443,-4.70857 -15.2363,-4.83008 z m -0.5586,3.82812 c 11.4419,0 18.1418,10.08765 18.1308,27.30078 0,6.01696 -0.5181,9.76667 -1.9082,13.9375 -2.3357,7.00794 -6.5612,11.39995 -12.4121,12.90235 -1.6359,0.42008 -5.2201,0.55267 -7.0625,0.25976 -1.3254,-0.21073 -4.3126,-1.36331 -5.5488,-2.14062 -3.6191,-2.27563 -6.9482,-7.55798 -8.3906,-13.31055 -1.4228,-5.67404 -1.6778,-13.97027 -0.6153,-20.01367 2.2104,-12.57223 8.1934,-18.93555 17.8067,-18.93555 z"
       id="path7959" />
    <path
       inkscape:connector-curvature="0"
       style="fill:#ffffff"
       d="m 262.5238,302.73722 c 9e-4,-0.0412 0.4605,-1.53349 1.0211,-3.31608 l 1.0194,-3.24109 -2.8735,-2.15891 -2.8734,-2.15892 3.5807,-0.0837 3.5807,-0.0837 1.1558,-3.29134 c 0.6357,-1.81024 1.1968,-3.29134 1.2469,-3.29134 0.05,0 0.5845,1.48092 1.1876,3.29094 l 1.0966,3.29094 3.6489,0.0841 3.649,0.0841 -2.8458,2.07136 c -1.5651,1.13925 -2.8798,2.09581 -2.9214,2.12569 -0.042,0.0299 0.3905,1.52319 0.9602,3.31847 0.5697,1.79527 0.9805,3.31949 0.9128,3.38715 -0.068,0.0677 -1.3097,-0.72624 -2.7601,-1.76422 -1.4505,-1.03799 -2.7875,-1.88752 -2.9712,-1.88785 -0.1838,-3e-4 -1.4873,0.8319 -2.8967,1.8494 -2.272,1.64016 -2.9236,2.03657 -2.9176,1.775 z"
       id="path7955" />
    <path
       style="fill:#000000"
       d="m 439.4842,325.32081 c -6.7802,-0.85893 -12.8134,-4.12515 -15.5782,-8.43366 -0.5356,-0.83473 -1.3235,-2.41933 -1.7507,-3.52132 l -0.7768,-2.00361 -0.1532,-20.15114 -0.1532,-20.15115 -0.75,-0.80305 c -1.0586,-1.13351 -2.6374,-1.87289 -4.9263,-2.30709 l -1.9737,-0.3744 0,-1.43159 0,-1.43158 12.45,0 12.45,0 0,1.43377 0,1.43377 -2.4592,0.38696 c -3.2126,0.5055 -4.2822,0.98058 -4.9459,2.19687 -0.5101,0.93481 -0.5449,2.19683 -0.5449,19.74863 0,20.18211 0.033,20.68099 1.5868,24 0.9586,2.04756 3.3203,4.39596 5.4775,5.44666 4.5353,2.2089 12.4221,1.86627 16.7381,-0.72716 3.0662,-1.84243 5.206,-4.89228 6.2084,-8.84898 0.4137,-1.63294 0.4611,-4.0335 0.3614,-18.3 -0.1217,-17.41086 -0.1693,-18.01476 -1.6095,-20.45282 -0.7412,-1.25476 -3.0418,-2.3488 -6.2462,-2.97029 l -2.5645,-0.49741 0,-1.425 0,-1.425 12.15,0 12.15,0 0,1.44621 0,1.44622 -2.325,0.35993 c -4.1262,0.63879 -5.8971,1.98368 -6.6953,5.0848 -0.2531,0.9835 -0.4232,6.88281 -0.5596,19.41284 -0.1901,17.45246 -0.2161,18.05998 -0.8537,19.97164 -1.9913,5.9705 -7.2124,10.46162 -14.2561,12.26297 -2.7159,0.69458 -7.5921,0.98579 -10.4482,0.62398 z"
       id="path7953"
       inkscape:connector-curvature="0" />
    <path
       style="fill:#000000"
       d="m 183.3219,264.68391 0,1.47851 0,1.48047 1.875,0.2168 c 2.7341,0.317 4.7173,1.06264 5.4473,2.04883 0.627,0.84242 0.6269,0.9765 0.6269,24.65625 l 0,23.80859 -0.8847,0.92383 c -0.9612,1.0033 -1.9955,1.35627 -4.8887,1.66992 l -1.875,0.20313 0,1.4707 0,1.4707 12.75,0 12.75,0 0,-1.44531 0,-1.44531 -2.8379,-0.33008 c -3.2001,-0.37447 -4.1841,-0.75706 -5.0859,-1.97461 -0.602,-0.81278 -0.6299,-1.2443 -0.7129,-10.83594 l -0.086,-9.99023 5.7852,-0.15625 c 6.5364,-0.17691 8.9965,-0.65622 12.6699,-2.47266 4.4255,-2.18832 7.7846,-5.83095 9.2246,-9.99804 0.5847,-1.69212 0.6914,-2.60615 0.6914,-5.91602 l 0,-3.91601 -1.1328,-2.29297 c -1.3683,-2.76864 -3.5587,-4.86791 -6.666,-6.38868 -4.2472,-2.07859 -3.9841,-2.05369 -21.6758,-2.16601 l -15.9746,-0.0996 z m 17.0996,3.32812 3.375,0.002 c 6.2883,0.004 9.334,0.94408 11.7461,3.62695 4.2626,4.74105 4.0383,14.8103 -0.4258,19.14258 -1.6317,1.58353 -4.4348,2.93236 -6.8945,3.31836 -1.0725,0.16831 -3.2662,0.30759 -4.875,0.30859 l -2.9258,0.002 0,-13.19921 0,-13.20118 z"
       id="path7951"
       inkscape:connector-curvature="0" />
    <path
       style="fill:#000000"
       d="m 308.4215,264.71125 0,1.43946 0,1.43945 1.9668,0.33789 c 2.7253,0.46683 4.6567,1.47822 5.3086,2.7832 0.486,0.97207 0.5251,2.74932 0.5254,23.93555 4e-4,19.42969 -0.066,23.04369 -0.4394,23.9375 -0.5719,1.36883 -2.2423,2.12015 -5.336,2.40039 l -2.3242,0.21094 0,1.45703 0,0.002 0,1.45703 13.7246,-0.002 c 14.5218,-0.002 17.0429,-0.17561 21.9629,-1.51953 3.0087,-0.82181 8.391,-3.46293 10.8281,-5.31445 5.2112,-3.95914 8.8109,-9.84259 10.0449,-16.41993 0.7499,-3.99746 0.4905,-11.25887 -0.541,-15.16406 -2.488,-9.41948 -9.1573,-16.16987 -19.0683,-19.29687 -4.9844,-1.57262 -6.4387,-1.6836 -22.1407,-1.6836 l -14.5117,0 z m 21.3418,3.32227 c 2.8954,-0.006 6.5702,0.28419 8.209,0.71289 2.4708,0.64634 6.2834,2.57656 8.1543,4.12695 4.257,3.52769 7.2212,9.02749 8.3555,15.50391 0.505,2.88375 0.5723,9.67964 0.1269,12.78515 -0.7264,5.06426 -2.6091,9.91535 -5.0273,12.95118 -2.3367,2.93355 -6.5387,5.37837 -10.4102,6.05664 -5.6372,0.98759 -10.7901,0.29078 -12.5527,-1.69532 -1.3673,-1.54108 -1.3688,-1.57279 -1.3828,-26.51367 l -0.014,-23.60156 2.0098,-0.21484 c 0.6878,-0.0737 1.5661,-0.10936 2.5312,-0.11133 z"
       id="path7947"
       inkscape:connector-curvature="0" />
    <path
       style="fill:#000000"
       d="m 375.9221,322.6614 0,-1.45082 2.9622,-0.32195 c 3.243,-0.35246 4.5542,-0.86478 5.36,-2.09426 0.4896,-0.74707 0.5343,-2.41291 0.6179,-23.01875 0.05,-12.21737 0,-22.8091 -0.1007,-23.53717 -0.3386,-2.34933 -1.9478,-3.34386 -6.9644,-4.30414 l -1.875,-0.35892 0,-1.43159 0,-1.43158 13.35,0 13.35,0 0,1.45857 0,1.45857 -1.875,0.19536 c -2.8549,0.29744 -5.0531,0.97927 -5.9057,1.83178 l -0.7693,0.76918 -0.077,23.46827 c -0.075,22.86271 -0.062,23.49305 0.5117,24.4287 0.3238,0.52824 0.9709,1.15809 1.438,1.39967 0.8718,0.45083 4.9693,1.3899 6.0645,1.3899 0.5352,0 0.6127,0.18968 0.6127,1.5 l 0,1.5 -13.35,0 -13.35,0 0,-1.45082 z"
       id="path7943"
       inkscape:connector-curvature="0" />
    <path
       style="fill:#000000"
       d="m 481.8221,322.6746 0,-1.43759 2.5437,-0.48023 c 4.6272,-0.87357 6.113,-2.34925 6.741,-6.69501 0.1782,-1.23289 0.3059,-9.786 0.3094,-20.72013 0.01,-21.1983 0.045,-20.80648 -2.2351,-23.08624 -0.9817,-0.98167 -1.7951,-1.45379 -3.3117,-1.92224 -1.1058,-0.34153 -2.4013,-0.62097 -2.8789,-0.62097 -0.8421,0 -0.8684,-0.0455 -0.8684,-1.5 l 0,-1.5 10.1426,0 10.1426,0 8.1991,21.525 c 4.5096,11.83875 8.3491,21.8208 8.5324,22.18233 0.2891,0.57014 1.3435,-1.93661 7.9496,-18.9 4.189,-10.75653 7.8996,-20.73858 8.246,-22.18233 l 0.6296,-2.625 9.6791,0 9.679,0 0,1.43892 0,1.43891 -2.4404,0.3557 c -3.0761,0.44834 -4.4575,1.11199 -5.1341,2.46647 -0.4856,0.972 -0.5246,2.74379 -0.5246,23.85 0,21.10793 0.039,22.87759 0.5246,23.84548 0.7051,1.40541 2.3632,2.26718 5.216,2.71097 l 2.3585,0.3669 0,1.46332 0,1.46333 -13.05,0 -13.05,0 0,-1.46124 0,-1.46123 2.175,-0.20612 c 4.5194,-0.42828 6.2376,-1.46324 6.8026,-4.09757 0.5096,-2.3763 0.4446,-44.37384 -0.069,-44.37384 -0.2383,0 -4.3527,9.90546 -10.536,25.36596 l -10.145,25.36596 -1.0502,-0.091 -1.0502,-0.091 -9.5842,-25.65 c -5.2713,-14.1075 -9.71,-25.77825 -9.8638,-25.935 -0.1727,-0.17616 -0.2775,7.50008 -0.2743,20.1 0.01,21.90272 0.073,23.01425 1.5583,25.72988 0.8305,1.51842 2.2851,2.3102 6.0115,3.27236 l 2.625,0.67777 0,1.42749 0,1.4275 -12,0 -12,0 0,-1.43759 z"
       id="path7939"
       inkscape:connector-curvature="0" />
  </g>
</svg>
