<?xml version="1.0" encoding="utf-8"?>
<!-- Generator: Adobe Illustrator 22.0.1, SVG Export Plug-In . SVG Version: 6.00 Build 0)  -->
<svg version="1.1" id="Layer_1" xmlns="http://www.w3.org/2000/svg" xmlns:xlink="http://www.w3.org/1999/xlink" x="0px" y="0px"
	 viewBox="0 0 612 459" style="enable-background:new 0 0 612 459;" xml:space="preserve">
<style type="text/css">
	.st0{fill:url(#SVGID_1_);}
	.st1{fill:url(#SVGID_2_);}
	.st2{fill:#FFFFFF;}
	.st3{fill:url(#SVGID_3_);}
	.st4{fill:#EDEEF0;}
	.st5{fill:#2A2A2A;}
	.st6{fill:#4EBB72;}
	.st7{fill:url(#SVGID_4_);}
	.st8{opacity:0.6;fill:url(#SVGID_5_);}
	.st9{fill:#236838;}
	.st10{fill:#339966;}
	.st11{fill:#5B5B5F;}
	.st12{font-family:'MyriadPro-Light';}
	.st13{font-size:16px;}
	.st14{fill:#339052;}
	.st15{fill:url(#SVGID_6_);}
	.st16{fill:#D8D9DD;}
	.st17{fill:url(#SVGID_7_);}
	.st18{fill:url(#SVGID_8_);}
	.st19{opacity:0.6;fill:url(#SVGID_9_);}
	.st20{fill:none;}
	.st21{fill:#807F7F;}
	.st22{font-family:'MyriadPro-Regular';}
	.st23{font-size:7px;}
	.st24{fill:none;stroke:#5B5B5F;stroke-width:1.5678;stroke-linecap:round;stroke-linejoin:round;stroke-miterlimit:10;}
	.st25{fill:none;stroke:#5B5B5F;stroke-width:0.8759;stroke-linecap:round;stroke-linejoin:round;stroke-miterlimit:10;}
	.st26{fill:none;stroke:#5B5B5F;stroke-width:1.6245;stroke-linecap:round;stroke-miterlimit:10;}
	.st27{fill:#FFFFFF;stroke:#FFFFFF;stroke-width:4.5389;stroke-linecap:round;stroke-miterlimit:10;}
	.st28{fill:none;stroke:#5B5B5F;stroke-width:1.6245;stroke-miterlimit:10;}
	.st29{fill:#FFFFFF;stroke:#5B5B5F;stroke-width:1.6245;stroke-linecap:round;stroke-miterlimit:10;}
	.st30{fill:none;stroke:#5B5B5F;stroke-width:1.7683;stroke-miterlimit:10;}
	.st31{fill:none;stroke:#5B5B5F;stroke-width:1.7687;stroke-linecap:round;stroke-miterlimit:10;}
	.st32{fill:#9A999E;}
	.st33{font-family:'MyriadPro-BoldCond';}
	.st34{font-size:10.7931px;}
	.st35{fill:#242824;}
	.st36{font-size:5.6311px;}
	.st37{clip-path:url(#SVGID_11_);fill:url(#SVGID_12_);}
	.st38{clip-path:url(#SVGID_16_);fill:#9A999E;}
	.st39{clip-path:url(#SVGID_22_);fill:#9A999E;}
</style>
<g>
	<g>
		<g>
			<g>
				<radialGradient id="SVGID_1_" cx="209.9986" cy="120.8297" r="230.3317" gradientUnits="userSpaceOnUse">
					<stop  offset="3.763440e-02" style="stop-color:#D8D9DD"/>
					<stop  offset="0.5538" style="stop-color:#EDEEF0"/>
					<stop  offset="1" style="stop-color:#F7F7F8"/>
				</radialGradient>
				<path class="st0" d="M355.4,195.4c0-20.3-7.6-38.8-20-52.8c-14.5-15.2-35-24.7-57.7-24.7c-44,0-79.7,35.7-79.7,79.7
					c0,20.3,7.6,38.8,20,52.8c14.5,15.2,35,24.7,57.7,24.7C319.7,275.1,355.4,239.4,355.4,195.4z"/>
			</g>
			<radialGradient id="SVGID_2_" cx="275.4934" cy="189.7784" r="95.4615" gradientUnits="userSpaceOnUse">
				<stop  offset="0" style="stop-color:#828282"/>
				<stop  offset="0.3164" style="stop-color:#848484;stop-opacity:0.6836"/>
				<stop  offset="0.4929" style="stop-color:#8C8C8C;stop-opacity:0.5071"/>
				<stop  offset="0.6349" style="stop-color:#9A9A9A;stop-opacity:0.3651"/>
				<stop  offset="0.7585" style="stop-color:#ADADAE;stop-opacity:0.2415"/>
				<stop  offset="0.8702" style="stop-color:#C5C6C7;stop-opacity:0.1298"/>
				<stop  offset="0.9718" style="stop-color:#E3E4E6;stop-opacity:2.815276e-02"/>
				<stop  offset="1" style="stop-color:#EDEEF0;stop-opacity:0"/>
			</radialGradient>
			<path class="st1" d="M231.9,237.7l37.1,37.1c2.2,0.2,4.4,0.3,6.6,0.3c44,0,79.7-35.7,79.7-79.7c0-1.3,0-2.5-0.1-3.8l-27-27
				L231.9,237.7z"/>
			<g>
				<g>
					<g>
						<g>
							<path class="st2" d="M336.8,195.7c0,33.6-27.2,60.9-60.9,60.9c-33.6,0-60.9-27.2-60.9-60.9s27.2-60.9,60.9-60.9
								C309.5,134.8,336.8,162,336.8,195.7z"/>
						</g>
					</g>
				</g>
				<g>
					<radialGradient id="SVGID_3_" cx="225.7686" cy="138.7169" r="175.8817" gradientUnits="userSpaceOnUse">
						<stop  offset="0" style="stop-color:#F7F7F8"/>
						<stop  offset="0.5055" style="stop-color:#FBFBFB"/>
						<stop  offset="0.7151" style="stop-color:#FFFFFF"/>
					</radialGradient>
					<path class="st3" d="M336.8,195.7c0-15.5-5.8-29.6-15.3-40.3c-11.1-11.6-26.7-18.8-44-18.8c-33.6,0-60.9,27.2-60.9,60.9
						c0,15.5,5.8,29.6,15.3,40.3c11.1,11.6,26.7,18.8,44,18.8C309.5,256.5,336.8,229.3,336.8,195.7z"/>
				</g>
				<g>
					<g>
						<path class="st4" d="M330.6,169c3.4,7.6,5.2,15.9,5.2,24.7c0,33.6-27.2,60.9-60.9,60.9c-20.2,0-38.1-9.8-49.2-25
							c1.8,2.9,3.8,5.6,6.1,8.1c11.1,11.6,26.7,18.8,44,18.8c33.6,0,60.9-27.2,60.9-60.9C336.8,186.1,334.6,177,330.6,169z"/>
					</g>
				</g>
			</g>
		</g>
	</g>
	<path class="st5" d="M276.7,101.3c25.4,0,49.4,9.9,67.3,27.9c18,18,27.9,41.9,27.9,67.3s-9.9,49.4-27.9,67.3
		c-18,18-41.9,27.9-67.3,27.9c-25.4,0-49.4-9.9-67.3-27.9c-18-18-27.9-41.9-27.9-67.3s9.9-49.4,27.9-67.3
		C227.4,111.2,251.3,101.3,276.7,101.3 M276.7,97.1c-54.9,0-99.4,44.5-99.4,99.4c0,54.9,44.5,99.4,99.4,99.4
		c54.9,0,99.4-44.5,99.4-99.4C376.1,141.6,331.6,97.1,276.7,97.1L276.7,97.1z"/>
	
		<rect x="371.5" y="171.5" transform="matrix(0.981 -0.1942 0.1942 0.981 -26.1629 79.348)" class="st6" width="40.1" height="3.3"/>
	<radialGradient id="SVGID_4_" cx="373.5046" cy="177.5852" r="13.8385" gradientUnits="userSpaceOnUse">
		<stop  offset="0" style="stop-color:#464646"/>
		<stop  offset="0.1398" style="stop-color:#595959;stop-opacity:0.8602"/>
		<stop  offset="0.4239" style="stop-color:#8B8B8B;stop-opacity:0.5761"/>
		<stop  offset="0.8231" style="stop-color:#DADADA;stop-opacity:0.1769"/>
		<stop  offset="1" style="stop-color:#FFFFFF;stop-opacity:0"/>
	</radialGradient>
	<path class="st7" d="M383.8,179L383.8,179l-6.6-6.5l0,0c-1.2-1.4-3-2.2-5-2.2c-3.7,0-6.8,3-6.8,6.8c0,2,0.9,3.9,2.3,5.1l6.1,6.1v0
		c1.2,1.4,3.1,2.4,5.1,2.4c3.7,0,6.8-3,6.8-6.8C385.8,182,385,180.3,383.8,179z"/>
	<radialGradient id="SVGID_5_" cx="209.3946" cy="128.5268" r="13.8385" gradientUnits="userSpaceOnUse">
		<stop  offset="0" style="stop-color:#464646"/>
		<stop  offset="0.1398" style="stop-color:#595959;stop-opacity:0.8602"/>
		<stop  offset="0.4239" style="stop-color:#8B8B8B;stop-opacity:0.5761"/>
		<stop  offset="0.8231" style="stop-color:#DADADA;stop-opacity:0.1769"/>
		<stop  offset="1" style="stop-color:#FFFFFF;stop-opacity:0"/>
	</radialGradient>
	<path class="st8" d="M219.7,130L219.7,130l-6.6-6.5l0,0c-1.2-1.4-3-2.2-5-2.2c-3.7,0-6.8,3-6.8,6.8c0,2,0.9,3.9,2.3,5.1l6.1,6.1
		l0,0c1.2,1.4,3.1,2.4,5.1,2.4c3.7,0,6.8-3,6.8-6.8C221.7,132.9,220.9,131.2,219.7,130z"/>
	<g>
		
			<rect x="192.3" y="93.7" transform="matrix(0.7071 -0.7071 0.7071 0.7071 -23.6879 170.4445)" class="st9" width="3.3" height="40.1"/>
		<path class="st9" d="M203.3,132.8c-2.6-2.6-2.6-6.9,0-9.6c2.6-2.6,6.9-2.6,9.6,0c2.6,2.6,2.6,6.9,0,9.6
			C210.2,135.5,205.9,135.4,203.3,132.8z"/>
	</g>
	
		<rect x="173.7" y="278" transform="matrix(0.7071 -0.7071 0.7071 0.7071 -140.9707 218.8809)" class="st10" width="40.1" height="3.3"/>
	
		<ellipse transform="matrix(0.9226 -0.3857 0.3857 0.9226 -39.4954 157.2741)" class="st6" cx="372.2" cy="177.1" rx="6.8" ry="6.8"/>
	<g>
		<text transform="matrix(1 0 0 1 120.8947 37.1004)" class="st11 st12 st13">UNIVERSIDAD</text>
	</g>
	<g>
		<g>
			<text transform="matrix(1 0 0 1 408.0109 117.7913)" class="st11 st12 st13">MISIÓN</text>
		</g>
	</g>
	<g>
		<g>
			<text transform="matrix(1 0 0 1 141.5636 262.8734)" class="st11 st12 st13">VISIÓN</text>
		</g>
	</g>
	<g>
		<g>
			<path class="st14" d="M203.6,306.9c0-9.8-3.7-18.7-9.7-25.5c-7-7.3-16.9-11.9-27.9-11.9c-21.3,0-38.5,17.2-38.5,38.5
				c0,9.8,3.7,18.7,9.7,25.5c7,7.3,16.9,11.9,27.9,11.9C186.3,345.4,203.6,328.2,203.6,306.9z"/>
		</g>
		<g>
			<g>
				<g>
					<g>
						<path class="st2" d="M194.6,307.1c0,16.2-13.2,29.4-29.4,29.4c-16.2,0-29.4-13.2-29.4-29.4c0-16.2,13.2-29.4,29.4-29.4
							C181.4,277.6,194.6,290.8,194.6,307.1z"/>
					</g>
				</g>
			</g>
			<g>
				<radialGradient id="SVGID_6_" cx="140.9576" cy="279.5436" r="84.9836" gradientUnits="userSpaceOnUse">
					<stop  offset="0" style="stop-color:#F7F7F8"/>
					<stop  offset="0.5055" style="stop-color:#FBFBFB"/>
					<stop  offset="0.7151" style="stop-color:#FFFFFF"/>
				</radialGradient>
				<path class="st15" d="M194.6,307.1c0-7.5-2.8-14.3-7.4-19.5c-5.4-5.6-12.9-9.1-21.3-9.1c-16.2,0-29.4,13.2-29.4,29.4
					c0,7.5,2.8,14.3,7.4,19.5c5.4,5.6,12.9,9.1,21.3,9.1C181.4,336.5,194.6,323.3,194.6,307.1z"/>
			</g>
			<g>
				<g>
					<path class="st16" d="M191.6,294.2c1.6,3.7,2.5,7.7,2.5,12c0,16.2-13.2,29.4-29.4,29.4c-9.8,0-18.4-4.8-23.8-12.1
						c0.9,1.4,1.8,2.7,2.9,3.9c5.4,5.6,12.9,9.1,21.3,9.1c16.2,0,29.4-13.2,29.4-29.4C194.6,302.4,193.5,298.1,191.6,294.2z"/>
				</g>
			</g>
		</g>
	</g>
	<g>
		<g>
			<path class="st6" d="M470.3,164.7c0-9.8-3.7-18.7-9.7-25.5c-7-7.3-16.9-11.9-27.9-11.9c-21.3,0-38.5,17.2-38.5,38.5
				c0,9.8,3.7,18.7,9.7,25.5c7,7.3,16.9,11.9,27.9,11.9C453.1,203.2,470.3,186,470.3,164.7z"/>
		</g>
		<g>
			<g>
				<g>
					<g>
						<path class="st2" d="M461.3,164.9c0,16.2-13.2,29.4-29.4,29.4c-16.2,0-29.4-13.2-29.4-29.4c0-16.2,13.2-29.4,29.4-29.4
							C448.2,135.4,461.3,148.6,461.3,164.9z"/>
					</g>
				</g>
			</g>
			<g>
				<radialGradient id="SVGID_7_" cx="407.6868" cy="137.342" r="84.9836" gradientUnits="userSpaceOnUse">
					<stop  offset="0" style="stop-color:#F7F7F8"/>
					<stop  offset="0.5055" style="stop-color:#FBFBFB"/>
					<stop  offset="0.7151" style="stop-color:#FFFFFF"/>
				</radialGradient>
				<path class="st17" d="M461.3,164.9c0-7.5-2.8-14.3-7.4-19.5c-5.4-5.6-12.9-9.1-21.3-9.1c-16.2,0-29.4,13.2-29.4,29.4
					c0,7.5,2.8,14.3,7.4,19.5c5.4,5.6,12.9,9.1,21.3,9.1C448.2,194.3,461.3,181.1,461.3,164.9z"/>
			</g>
			<g>
				<g>
					<path class="st16" d="M458.4,152c1.6,3.7,2.5,7.7,2.5,12c0,16.2-13.2,29.4-29.4,29.4c-9.8,0-18.4-4.8-23.8-12.1
						c0.9,1.4,1.8,2.7,2.9,3.9c5.4,5.6,12.9,9.1,21.3,9.1c16.2,0,29.4-13.2,29.4-29.4C461.3,160.2,460.3,155.8,458.4,152z"/>
				</g>
			</g>
		</g>
	</g>
	<g>
		<g>
			<path class="st9" d="M203.6,85.4c0-9.8-3.7-18.7-9.7-25.5c-7-7.3-16.9-11.9-27.9-11.9c-21.3,0-38.5,17.2-38.5,38.5
				c0,9.8,3.7,18.7,9.7,25.5c7,7.3,16.9,11.9,27.9,11.9C186.4,123.9,203.6,106.7,203.6,85.4z"/>
		</g>
		<g>
			<g>
				<g>
					<g>
						<path class="st2" d="M194.6,85.6c0,16.2-13.2,29.4-29.4,29.4c-16.2,0-29.4-13.2-29.4-29.4c0-16.2,13.2-29.4,29.4-29.4
							C181.5,56.2,194.6,69.3,194.6,85.6z"/>
					</g>
				</g>
			</g>
			<g>
				<radialGradient id="SVGID_8_" cx="140.9773" cy="58.0524" r="84.9836" gradientUnits="userSpaceOnUse">
					<stop  offset="0" style="stop-color:#F7F7F8"/>
					<stop  offset="0.5055" style="stop-color:#FBFBFB"/>
					<stop  offset="0.7151" style="stop-color:#FFFFFF"/>
				</radialGradient>
				<path class="st18" d="M194.6,85.6c0-7.5-2.8-14.3-7.4-19.5c-5.4-5.6-12.9-9.1-21.3-9.1c-16.2,0-29.4,13.2-29.4,29.4
					c0,7.5,2.8,14.3,7.4,19.5c5.4,5.6,12.9,9.1,21.3,9.1C181.5,115,194.6,101.8,194.6,85.6z"/>
			</g>
			<g>
				<g>
					<path class="st16" d="M191.6,72.7c1.6,3.7,2.5,7.7,2.5,12c0,16.2-13.2,29.4-29.4,29.4c-9.8,0-18.4-4.8-23.8-12.1
						c0.9,1.4,1.8,2.7,2.9,3.9c5.4,5.6,12.9,9.1,21.3,9.1c16.2,0,29.4-13.2,29.4-29.4C194.6,80.9,193.6,76.6,191.6,72.7z"/>
				</g>
			</g>
		</g>
	</g>
	<radialGradient id="SVGID_9_" cx="209.2213" cy="265.9646" r="13.8384" gradientUnits="userSpaceOnUse">
		<stop  offset="0" style="stop-color:#464646"/>
		<stop  offset="0.1398" style="stop-color:#595959;stop-opacity:0.8602"/>
		<stop  offset="0.4239" style="stop-color:#8B8B8B;stop-opacity:0.5761"/>
		<stop  offset="0.8231" style="stop-color:#DADADA;stop-opacity:0.1769"/>
		<stop  offset="1" style="stop-color:#FFFFFF;stop-opacity:0"/>
	</radialGradient>
	<path class="st19" d="M219.5,267.4L219.5,267.4l-6.6-6.5l0,0c-1.2-1.4-3-2.2-5-2.2c-3.7,0-6.8,3-6.8,6.8c0,2,0.9,3.9,2.3,5.1
		l6.1,6.1l0,0c1.2,1.4,3.1,2.4,5.1,2.4c3.7,0,6.8-3,6.8-6.8C221.5,270.3,220.7,268.6,219.5,267.4z"/>
	<path class="st10" d="M212.7,270.2c-2.6,2.6-6.9,2.6-9.6,0c-2.6-2.6-2.6-6.9,0-9.6c2.6-2.6,6.9-2.6,9.6,0
		C215.4,263.3,215.4,267.6,212.7,270.2z"/>
	<g>
		<rect x="211.5" y="47.9" class="st20" width="333.1" height="39.9"/>
		<text transform="matrix(1 0 0 1 211.4825 52.8983)"><tspan x="0" y="0" class="st21 st22 st23">La Universidad de Pinar del Río “Hermanos Saíz Montes de Oca” nace el 1º de septiembre de 2015 a partir de la </tspan><tspan x="0" y="8.4" class="st21 st22 st23">integración de tres centros con excelente trayectoria y probados aportes al desarrollo económico, social y </tspan><tspan x="0" y="16.8" class="st21 st22 st23">científico de la provincia y el país: la Universidad de Ciencias Pedagógicas “Rafael María de Mendive”, la Facultad </tspan><tspan x="0" y="25.2" class="st21 st22 st23">de Cultura Física “Nancy Uranga” y la Universidad “Hermanos Saíz Montes de Oca”. </tspan><tspan x="0" y="33.6" class="st21 st22 st23">  </tspan></text>
	</g>
	<g>
		<rect x="39.8" y="128.5" class="st20" width="130.1" height="117.1"/>
		<text transform="matrix(1 0 0 1 39.7555 133.4788)"><tspan x="0" y="0" class="st21 st22 st23">La casa de alto estudios en Vueltabajo se </tspan><tspan x="0" y="8.4" class="st21 st22 st23">compone por siete facultades, diez Centros </tspan><tspan x="0" y="16.8" class="st21 st22 st23">Universitarios Municipales y una Unidad </tspan><tspan x="0" y="25.2" class="st21 st22 st23">Presupuestada Independiente: el Jardín </tspan><tspan x="0" y="33.6" class="st21 st22 st23">Botánico Orquideario de Soroa. En esta </tspan><tspan x="0" y="42" class="st21 st22 st23">estructura se integran ramas de las ciencias </tspan><tspan x="0" y="50.4" class="st21 st22 st23">forestales y agropecuarias, económicas y </tspan><tspan x="0" y="58.8" class="st21 st22 st23">empresariales, sociales y humanísticas, </tspan><tspan x="0" y="67.2" class="st21 st22 st23">técnicas, pedagógicas y de la cultura física; </tspan><tspan x="0" y="75.6" class="st21 st22 st23">lo cual constituye una enorme fortaleza para </tspan><tspan x="0" y="84" class="st21 st22 st23">abordar y dar solución integrada a los </tspan><tspan x="0" y="92.4" class="st21 st22 st23">problemas del territorio y responde al </tspan><tspan x="0" y="100.8" class="st21 st22 st23">carácter universal del origen de las </tspan><tspan x="0" y="109.2" class="st21 st22 st23">universidades. </tspan></text>
	</g>
	<g>
		<rect x="478.7" y="116.2" class="st20" width="96" height="169.9"/>
		<text transform="matrix(1 0 0 1 478.6583 121.1966)"><tspan x="0" y="0" class="st21 st22 st23">La Universidad de Pinar del Río </tspan><tspan x="0" y="8.4" class="st21 st22 st23">contribuye a satisfacer las </tspan><tspan x="0" y="16.8" class="st21 st22 st23">necesidades formativas de </tspan><tspan x="0" y="25.2" class="st21 st22 st23">profesionales de nivel superior y </tspan><tspan x="0" y="33.6" class="st21 st22 st23">su superación continua en las </tspan><tspan x="0" y="42" class="st21 st22 st23">ciencias Agropecuarias, técnicas, </tspan><tspan x="0" y="50.4" class="st21 st22 st23">sociales, humanísticas, </tspan><tspan x="0" y="58.8" class="st21 st22 st23">pedagógicas y de la cultura física </tspan><tspan x="0" y="67.2" class="st21 st22 st23">y el deporte, a partir de la </tspan><tspan x="0" y="75.6" class="st21 st22 st23">integración de los procesos </tspan><tspan x="0" y="84" class="st21 st22 st23">sustantivos y de apoyo, que </tspan><tspan x="0" y="92.4" class="st21 st22 st23">garantice un egresado </tspan><tspan x="0" y="100.8" class="st21 st22 st23">competente, comprometido con </tspan><tspan x="0" y="109.2" class="st21 st22 st23">la Revolución y con una cultura </tspan><tspan x="0" y="117.6" class="st21 st22 st23">integral, así como la generación </tspan><tspan x="0" y="126" class="st21 st22 st23">e implementación de resultados </tspan><tspan x="0" y="134.4" class="st21 st22 st23">científico-técnicos que impacten </tspan><tspan x="0" y="142.8" class="st21 st22 st23">en el desarrollo socioeconómico </tspan><tspan x="0" y="151.2" class="st21 st22 st23">de la provincia Pinar del Río y </tspan><tspan x="0" y="159.6" class="st21 st22 st23">otras regiones del país.</tspan></text>
	</g>
	<g>
		<rect x="213.8" y="310.9" class="st20" width="330.8" height="110.2"/>
		<text transform="matrix(1 0 0 1 213.7697 315.8431)"><tspan x="0" y="0" class="st21 st22 st23">Fortalecemos los procesos de universalización e incrementamos el ingreso a las carreras priorizadas, las que se </tspan><tspan x="0" y="8.4" class="st21 st22 st23">consolidan y acreditan nacionalmente, logrando un alto impacto en la sociedad pinareña. Satisfacemos con </tspan><tspan x="0" y="16.8" class="st21 st22 st23">calidad la demanda de formación continua de los profesionales del territorio, a partir de programas de postgrado </tspan><tspan x="0" y="25.2" class="st21 st22 st23">propios y externos. Logramos resultados de impacto en la preparación y superación continua de los directivos del </tspan><tspan x="0" y="33.6" class="st21 st22 st23">estado, gobierno y sistema empresarial. </tspan><tspan x="0" y="50.4" class="st21 st22 st23">Son reconocidos a nivel territorial y nacional el papel y los resultados de la universidad en la gestión de la </tspan><tspan x="0" y="58.8" class="st21 st22 st23">innovación, en particular en las áreas de: desarrollo forestal sostenible, producción sostenible de alimentos, </tspan><tspan x="0" y="67.2" class="st21 st22 st23">desarrollo local, ciencias de la educación y sociales, medio ambiente y energía, desarrollo cooperativo y turismo. </tspan><tspan x="0" y="75.6" class="st21 st22 st23">Continuamos las transformaciones en la gestión de la extensión universitaria, aplicando su concepción de </tspan><tspan x="0" y="84" class="st21 st22 st23">proceso formativo. Incrementamos las relaciones con los países desarrollados y se consolidan con América Latina </tspan><tspan x="0" y="92.4" class="st21 st22 st23">y el Caribe, fortaleciéndose nuestra imagen internacional. Somos un referente nacional en la gestión de los </tspan><tspan x="0" y="100.8" class="st21 st22 st23">procesos internos de la universidad.</tspan></text>
	</g>
	<g>
		<rect x="39.8" y="293.6" class="st20" width="85.1" height="127.5"/>
		<text transform="matrix(1 0 0 1 39.7555 298.577)"><tspan x="0" y="0" class="st21 st22 st23">Somos una Universidad que </tspan><tspan x="0" y="8.4" class="st21 st22 st23">alcanza reconocimiento </tspan><tspan x="0" y="16.8" class="st21 st22 st23">nacional e internacional por </tspan><tspan x="0" y="25.2" class="st21 st22 st23">la calidad en sus procesos </tspan><tspan x="0" y="33.6" class="st21 st22 st23">principales. </tspan><tspan x="0" y="50.4" class="st21 st22 st23">Formamos profesionales </tspan><tspan x="0" y="58.8" class="st21 st22 st23">integrales, competentes, </tspan><tspan x="0" y="67.2" class="st21 st22 st23">reconocidos nacional e </tspan><tspan x="0" y="75.6" class="st21 st22 st23">internacionalmente, de </tspan><tspan x="0" y="84" class="st21 st22 st23">amplia formación </tspan><tspan x="0" y="92.4" class="st21 st22 st23">humanística, portadores de </tspan><tspan x="0" y="100.8" class="st21 st22 st23">una cultura general, </tspan><tspan x="0" y="109.2" class="st21 st22 st23">comprometidos con la Patria </tspan><tspan x="0" y="117.6" class="st21 st22 st23">y la Revolución Cubana. </tspan></text>
	</g>
	<polyline class="st24" points="178.7,98.5 172,86.4 170.4,87.1 168,82.6 177.7,82.6 170.1,77 173.1,68.5 165.6,74.1 158.2,68.5 
		161.1,77.2 153.6,82.5 163.1,82.6 160.8,87 159.4,86.3 152.6,98.5 	"/>
	<path class="st24" d="M186.3,99c0,0-1.9,0.8-4.4,0.6c-4.5-0.5-7-3-11.1-3c-3.1,0-5.2,2.2-5.2,2.2s-2.1-2.2-5.2-2.2
		c-4.1,0-6.7,2.5-11.1,3c-2.4,0.3-4.4-0.6-4.4-0.6"/>
	<path class="st25" d="M162.9,75l1,3.2l-2.6,1.9h3.3l1.1,3.1l0.9-3h3.3l-2.7-2l1.1-3.2c0,0-2.4,2-2.6,1.9
		C165.5,76.9,162.9,75,162.9,75z"/>
	<polyline class="st24" points="162.8,96.5 165.6,89.1 168.5,96.5 	"/>
	<g>
		<path class="st26" d="M443.1,168.3c7,0,9.2,7,9.2,7"/>
		<path class="st26" d="M411.6,175.3c0,0,3.2-6.7,9.8-6.7"/>
		<path class="st27" d="M419.8,175.3c0,0,6.1-8.3,12.7-8.3c7,0,11.5,8.3,11.5,8.3"/>
		<circle class="st28" cx="440.7" cy="158.2" r="6.1"/>
		<circle class="st28" cx="424" cy="158.2" r="6.1"/>
		<circle class="st27" cx="432.5" cy="156.1" r="6.1"/>
		<circle class="st29" cx="432.5" cy="156.1" r="6.1"/>
		<path class="st29" d="M419.8,175.3c0,0,3.9-8.3,12.7-8.3c8.8,0.1,11.5,8.3,11.5,8.3"/>
	</g>
	<path class="st30" d="M164.6,323.8h2c0.6,0,1.1-0.5,1.1-1.1v-5c0.1-4.8,6.8-7,6.8-13.6c0-8.3-7-10.1-9.9-10.1
		c-3.2,0-9.9,1.6-9.9,10.1c0,6.5,6.7,8.8,6.8,13.6v5c0,0.6,0.5,1.1,1.1,1.1H164.6z"/>
	<line class="st31" x1="154.7" y1="314.5" x2="152" y2="318.1"/>
	<line class="st31" x1="150.9" y1="305.3" x2="146.3" y2="305.3"/>
	<line class="st31" x1="154.4" y1="294.6" x2="151.3" y2="291.2"/>
	<line class="st31" x1="175.7" y1="314.5" x2="178.4" y2="318.1"/>
	<line class="st31" x1="179.5" y1="305.3" x2="184" y2="305.3"/>
	<line class="st31" x1="176" y1="294.6" x2="179.1" y2="291.2"/>
	<line class="st30" x1="161.5" y1="317.7" x2="167.7" y2="317.7"/>
	<g>
		<text transform="matrix(1 0 0 1 251.0402 217.0775)" class="st32 st33 st34">UN</text>
	</g>
	<text transform="matrix(1 0 0 1 261.8341 217.0775)" class="st32 st33 st34">I</text>
	<g>
		<text transform="matrix(1 0 0 1 264.3917 217.0775)" class="st32 st33 st34">V</text>
	</g>
	<text transform="matrix(1 0 0 1 269.1632 217.0775)"><tspan x="0" y="0" class="st32 st33 st34">E</tspan><tspan x="4.2" y="0" class="st32 st33 st34">R</tspan><tspan x="9.2" y="0" class="st32 st33 st34">S</tspan></text>
	<g>
		<text transform="matrix(1 0 0 1 282.4816 217.0775)" class="st32 st33 st34">I</text>
	</g>
	<g>
		<text transform="matrix(1 0 0 1 285.0284 217.0775)" class="st32 st33 st34">D</text>
	</g>
	<g>
		<text transform="matrix(1 0 0 1 290.047 217.0775)" class="st32 st33 st34">A</text>
	</g>
	<g>
		<text transform="matrix(1 0 0 1 294.8927 217.0775)" class="st32 st33 st34">D</text>
	</g>
	<g>
		<text transform="matrix(1 0 0 1 244.1437 226.1976)" class="st32 st33 st34">D</text>
	</g>
	<g>
		<text transform="matrix(1 0 0 1 249.3351 226.1976)" class="st32 st33 st34">E</text>
	</g>
	<g>
		<text transform="matrix(1 0 0 1 253.4806 226.1976)" class="st32 st33 st34"> PI</text>
	</g>
	<g>
		<text transform="matrix(1 0 0 1 262.546 226.1976)" class="st32 st33 st34">N</text>
	</g>
	<g>
		<text transform="matrix(1 0 0 1 267.9855 226.1976)" class="st32 st33 st34">A</text>
	</g>
	<g>
		<text transform="matrix(1 0 0 1 272.8214 226.1976)" class="st32 st33 st34">R</text>
	</g>
	<text transform="matrix(1 0 0 1 277.796 226.1976)" class="st35 st33 st34"> </text>
	<g>
		<text transform="matrix(1 0 0 1 279.4044 226.1976)" class="st32 st33 st34">D</text>
	</g>
	<g>
		<text transform="matrix(1 0 0 1 284.5958 226.1976)" class="st32 st33 st34">E</text>
	</g>
	<g>
		<text transform="matrix(1 0 0 1 288.7618 226.1976)" class="st32 st33 st34">L</text>
	</g>
	<text transform="matrix(1 0 0 1 292.756 226.1976)" class="st35 st33 st34"> </text>
	<g>
		<text transform="matrix(1 0 0 1 294.3634 226.1976)" class="st32 st33 st34">R</text>
	</g>
	<g>
		<text transform="matrix(1 0 0 1 299.3497 226.1976)" class="st32 st33 st34">Í</text>
	</g>
	<g>
		<text transform="matrix(1 0 0 1 301.9191 226.1976)" class="st32 st33 st34">O</text>
	</g>
	<text transform="matrix(1 0 0 1 242.9103 232.0555)"><tspan x="0" y="0" class="st32 st33 st36">H</tspan><tspan x="3" y="0" class="st32 st33 st36">E</tspan></text>
	<text transform="matrix(1 0 0 1 248.3097 232.0555)" class="st32 st33 st36">R</text>
	<text transform="matrix(1 0 0 1 251.0978 232.0555)" class="st32 st33 st36">M</text>
	<text transform="matrix(1 0 0 1 254.8195 232.0555)"><tspan x="0" y="0" class="st32 st33 st36">ANO</tspan><tspan x="8.6" y="0" class="st32 st33 st36">S</tspan><tspan x="11" y="0" class="st32 st33 st36"> </tspan></text>
	<text transform="matrix(1 0 0 1 266.8312 232.0555)" class="st32 st33 st36">S</text>
	<text transform="matrix(1 0 0 1 269.1847 232.0555)"><tspan x="0" y="0" class="st32 st33 st36">AÍ</tspan><tspan x="4.3" y="0" class="st32 st33 st36">Z</tspan></text>
	<text transform="matrix(1 0 0 1 275.7609 232.0555)" class="st32 st33 st36"> </text>
	<text transform="matrix(1 0 0 1 276.8038 232.0555)" class="st32 st33 st36">M</text>
	<text transform="matrix(1 0 0 1 280.5265 232.0555)"><tspan x="0" y="0" class="st32 st33 st36">O</tspan><tspan x="2.8" y="0" class="st32 st33 st36">N</tspan></text>
	<text transform="matrix(1 0 0 1 286.422 232.0555)" class="st32 st33 st36">T</text>
	<text transform="matrix(1 0 0 1 288.7755 232.0555)" class="st32 st33 st36">E</text>
	<text transform="matrix(1 0 0 1 291.13 232.0555)"><tspan x="0" y="0" class="st32 st33 st36">S</tspan><tspan x="2.4" y="0" class="st32 st33 st36"> </tspan></text>
	<text transform="matrix(1 0 0 1 294.5245 232.0555)" class="st32 st33 st36">D</text>
	<text transform="matrix(1 0 0 1 297.4308 232.0555)" class="st32 st33 st36">E</text>
	<text transform="matrix(1 0 0 1 299.7843 232.0555)" class="st32 st33 st36"> </text>
	<text transform="matrix(1 0 0 1 300.8204 232.0555)" class="st32 st33 st36">O</text>
	<text transform="matrix(1 0 0 1 303.6691 232.0555)" class="st32 st33 st36">C</text>
	<text transform="matrix(1 0 0 1 306.1193 232.0555)" class="st32 st33 st36">A</text>
	<g>
		<defs>
			<path id="SVGID_10_" d="M281.7,200.3C281.8,200.3,281.8,200.3,281.7,200.3C281.8,200.3,281.8,200.3,281.7,200.3"/>
		</defs>
		<clipPath id="SVGID_11_">
			<use xlink:href="#SVGID_10_"  style="overflow:visible;"/>
		</clipPath>
		
			<linearGradient id="SVGID_12_" gradientUnits="userSpaceOnUse" x1="5672.3267" y1="-5635.022" x2="5673.0103" y2="-5635.022" gradientTransform="matrix(0 -4.440000e-02 -4.440000e-02 0 31.5768 452.1052)">
			<stop  offset="0" style="stop-color:#145B2D"/>
			<stop  offset="1" style="stop-color:#107D35"/>
		</linearGradient>
		<rect x="281.7" y="200.3" class="st37" width="0.1" height="0"/>
	</g>
	<g>
		<g>
			<defs>
				<path id="SVGID_13_" d="M280.3,165l-1.7,5.1l4.4,3.2h-5.4l-1.7,5.1l-1.7-5.1h-5.4l4.4-3.2l-1.7-5.1l4.4,3.2L280.3,165z
					 M286.9,154.6l-10.7,7.8c-0.1,0.1-0.3,0.1-0.4,0l-10.7-7.8c-0.6-0.4-1.4,0.1-1.2,0.8l4.1,12.6c0,0.1,0,0.3-0.1,0.4l-10.7,7.8
					c-0.6,0.4-0.3,1.4,0.4,1.4h12.9c0.3,0,0.4,0.3,0.3,0.5l-2.8,5.5l-1.6-0.8c-0.2-0.1-0.5,0-0.7,0.2L255,201.7
					c1.1-0.4,2.3-0.9,3.5-1.5l1-0.5l0,0l0,0c0.1-0.1,0.2-0.1,0.3-0.2c0.2-0.1,0.5-0.2,0.8-0.4c0.1,0,0.2-0.1,0.3-0.1
					c0.3-0.1,0.6-0.2,0.9-0.3l0.6-0.2l0,0l0,0c0.1,0,0.3-0.1,0.4-0.1l0.2-0.1c1.6-0.5,3.2-0.7,4.7-0.7c0.2,0,0.3,0,0.5,0
					c1.3,0,2.7,0.3,4,0.7l3.4-10c0.1-0.3,0.5-0.3,0.6,0l3.8,9.9c1.1-0.3,2.3-0.5,3.5-0.6c0.2,0,0.5,0,0.7,0c0.7,0,1.3,0,1.9,0.1
					c0.3,0,0.7,0.1,1,0.2c0.1,0,0.2,0,0.3,0.1l0,0l0,0l0.2,0c0.3,0.1,0.7,0.2,1,0.3l0.2,0.1c0.3,0.1,0.7,0.2,1,0.3l0.6,0.2l0,0l0,0
					l0.5,0.2c0.4,0.1,0.7,0.3,1,0.5l0.1,0.1l1,0.5c1.3,0.7,2.7,1.2,4,1.7c0,0,0,0,0,0l-10.5-18.8c-0.1-0.2-0.4-0.3-0.7-0.2l-1.8,0.8
					l-2.9-5.5c-0.1-0.2,0-0.5,0.3-0.5h12.8c0.7,0,1-0.9,0.4-1.4l-10.7-7.8c-0.1-0.1-0.2-0.2-0.1-0.4l4.1-12.6c0.2-0.5-0.2-1-0.7-1
					C287.2,154.5,287,154.5,286.9,154.6"/>
			</defs>
			<clipPath id="SVGID_14_">
				<use xlink:href="#SVGID_13_"  style="overflow:visible;"/>
			</clipPath>
		</g>
		<g>
			<defs>
				<path id="SVGID_15_" d="M280.3,165l-1.7,5.1l4.4,3.2h-5.4l-1.7,5.1l-1.7-5.1h-5.4l4.4-3.2l-1.7-5.1l4.4,3.2L280.3,165z
					 M286.9,154.6l-10.7,7.8c-0.1,0.1-0.3,0.1-0.4,0l-10.7-7.8c-0.6-0.4-1.4,0.1-1.2,0.8l4.1,12.6c0,0.1,0,0.3-0.1,0.4l-10.7,7.8
					c-0.6,0.4-0.3,1.4,0.4,1.4h12.9c0.3,0,0.4,0.3,0.3,0.5l-2.8,5.5l-1.6-0.8c-0.2-0.1-0.5,0-0.7,0.2L255,201.7
					c1.1-0.4,2.3-0.9,3.5-1.5l1-0.5l0,0l0,0c0.1-0.1,0.2-0.1,0.3-0.2c0.2-0.1,0.5-0.2,0.8-0.4c0.1,0,0.2-0.1,0.3-0.1
					c0.3-0.1,0.6-0.2,0.9-0.3l0.6-0.2l0,0l0,0c0.1,0,0.3-0.1,0.4-0.1l0.2-0.1c1.6-0.5,3.2-0.7,4.7-0.7c0.2,0,0.3,0,0.5,0
					c1.3,0,2.7,0.3,4,0.7l3.4-10c0.1-0.3,0.5-0.3,0.6,0l3.8,9.9c1.1-0.3,2.3-0.5,3.5-0.6c0.2,0,0.5,0,0.7,0c0.7,0,1.3,0,1.9,0.1
					c0.3,0,0.7,0.1,1,0.2c0.1,0,0.2,0,0.3,0.1l0,0l0,0l0.2,0c0.3,0.1,0.7,0.2,1,0.3l0.2,0.1c0.3,0.1,0.7,0.2,1,0.3l0.6,0.2l0,0l0,0
					l0.5,0.2c0.4,0.1,0.7,0.3,1,0.5l0.1,0.1l1,0.5c1.3,0.7,2.7,1.2,4,1.7c0,0,0,0,0,0l-10.5-18.8c-0.1-0.2-0.4-0.3-0.7-0.2l-1.8,0.8
					l-2.9-5.5c-0.1-0.2,0-0.5,0.3-0.5h12.8c0.7,0,1-0.9,0.4-1.4l-10.7-7.8c-0.1-0.1-0.2-0.2-0.1-0.4l4.1-12.6c0.2-0.5-0.2-1-0.7-1
					C287.2,154.5,287,154.5,286.9,154.6"/>
			</defs>
			<use xlink:href="#SVGID_15_"  style="overflow:visible;fill:#9A999E;"/>
			<clipPath id="SVGID_16_">
				<use xlink:href="#SVGID_15_"  style="overflow:visible;"/>
			</clipPath>
			<rect x="255" y="154.2" class="st38" width="42.2" height="47.7"/>
		</g>
		<g>
			<defs>
				<path id="SVGID_17_" d="M280.3,165l-1.7,5.1l4.4,3.2h-5.4l-1.7,5.1l-1.7-5.1h-5.4l4.4-3.2l-1.7-5.1l4.4,3.2L280.3,165z
					 M286.9,154.6l-10.7,7.8c-0.1,0.1-0.3,0.1-0.4,0l-10.7-7.8c-0.6-0.4-1.4,0.1-1.2,0.8l4.1,12.6c0,0.1,0,0.3-0.1,0.4l-10.7,7.8
					c-0.6,0.4-0.3,1.4,0.4,1.4h12.9c0.3,0,0.4,0.3,0.3,0.5l-2.8,5.5l-1.6-0.8c-0.2-0.1-0.5,0-0.7,0.2L255,201.7
					c1.1-0.4,2.3-0.9,3.5-1.5l1-0.5l0,0l0,0c0.1-0.1,0.2-0.1,0.3-0.2c0.2-0.1,0.5-0.2,0.8-0.4c0.1,0,0.2-0.1,0.3-0.1
					c0.3-0.1,0.6-0.2,0.9-0.3l0.6-0.2l0,0l0,0c0.1,0,0.3-0.1,0.4-0.1l0.2-0.1c1.6-0.5,3.2-0.7,4.7-0.7c0.2,0,0.3,0,0.5,0
					c1.3,0,2.7,0.3,4,0.7l3.4-10c0.1-0.3,0.5-0.3,0.6,0l3.8,9.9c1.1-0.3,2.3-0.5,3.5-0.6c0.2,0,0.5,0,0.7,0c0.7,0,1.3,0,1.9,0.1
					c0.3,0,0.7,0.1,1,0.2c0.1,0,0.2,0,0.3,0.1l0,0l0,0l0.2,0c0.3,0.1,0.7,0.2,1,0.3l0.2,0.1c0.3,0.1,0.7,0.2,1,0.3l0.6,0.2l0,0l0,0
					l0.5,0.2c0.4,0.1,0.7,0.3,1,0.5l0.1,0.1l1,0.5c1.3,0.7,2.7,1.2,4,1.7c0,0,0,0,0,0l-10.5-18.8c-0.1-0.2-0.4-0.3-0.7-0.2l-1.8,0.8
					l-2.9-5.5c-0.1-0.2,0-0.5,0.3-0.5h12.8c0.7,0,1-0.9,0.4-1.4l-10.7-7.8c-0.1-0.1-0.2-0.2-0.1-0.4l4.1-12.6c0.2-0.5-0.2-1-0.7-1
					C287.2,154.5,287,154.5,286.9,154.6"/>
			</defs>
			<clipPath id="SVGID_18_">
				<use xlink:href="#SVGID_17_"  style="overflow:visible;"/>
			</clipPath>
		</g>
	</g>
	<g>
		<g>
			<defs>
				<path id="SVGID_19_" d="M263.3,199.4c-0.2,0.1-0.4,0.1-0.6,0.2l-0.6,0.2c-0.4,0.1-0.7,0.3-1.1,0.4c-0.4,0.1-0.7,0.3-1.1,0.5
					l-1,0.5c-1.3,0.6-2.7,1.2-4.1,1.7c-1.4,0.5-2.8,0.9-4.2,1.2c-1.2,0.2-2.4,0.3-3.6,0.3c-0.3,0-0.5,0-0.8,0
					c-1.5-0.1-2.9-0.3-4.4-0.7l-0.1,0.3c1.4,0.6,2.9,1,4.4,1.2c0.9,0.1,1.7,0.2,2.6,0.2c0.7,0,1.3,0,2-0.1c1.5-0.1,3-0.4,4.5-0.8
					c1.5-0.4,2.9-0.9,4.4-1.4l1.1-0.4c0.3-0.1,0.7-0.3,1-0.4c0.3-0.1,0.7-0.2,1-0.3l0.5-0.1c0.2,0,0.3-0.1,0.5-0.1
					c0.9-0.2,1.8-0.3,2.7-0.3c0.5,0,0.9,0,1.4,0.1c1.3,0.2,2.6,0.6,3.7,1.2c0.5,0.3,1.1,0.7,1.5,1.1c0.2,0.2,0.4,0.4,0.6,0.7
					c0.1,0.1,0.2,0.2,0.3,0.4l0.1,0.2l0.1,0.1l0,0c0,0,0,0,0,0h3l0-0.1l0.1-0.2c0.1-0.1,0.2-0.2,0.3-0.4c0.2-0.2,0.4-0.5,0.7-0.7
					c0.5-0.4,1-0.8,1.6-1.2c1.1-0.7,2.4-1.1,3.7-1.3c0.5-0.1,1-0.1,1.5-0.1c0.2,0,0.3,0,0.5,0c0.3,0,0.7,0,1,0.1
					c0.3,0,0.7,0.1,1,0.2c0.3,0.1,0.7,0.1,1,0.2l0.5,0.1l0.5,0.2c0.3,0.1,0.7,0.2,1,0.4l1.1,0.4c1.4,0.6,2.9,1.1,4.4,1.4
					c1.5,0.4,3,0.7,4.6,0.8c0.7,0.1,1.4,0.1,2.1,0.1c0.9,0,1.7-0.1,2.5-0.2c1.5-0.2,3-0.6,4.4-1.2l-0.1-0.3
					c-1.4,0.4-2.9,0.7-4.4,0.7c-0.2,0-0.5,0-0.7,0c-1.2,0-2.5-0.1-3.7-0.4c-1.5-0.3-2.9-0.7-4.3-1.2c-1.4-0.5-2.8-1.1-4.1-1.8
					l-1-0.5c-0.4-0.2-0.7-0.3-1.1-0.5l-0.6-0.2l-0.6-0.2c-0.4-0.1-0.8-0.3-1.2-0.4c-0.4-0.1-0.8-0.2-1.2-0.3
					c-0.4-0.1-0.8-0.2-1.2-0.2c-0.6-0.1-1.2-0.1-1.8-0.1c-0.2,0-0.5,0-0.7,0c-1.7,0.1-3.4,0.5-4.9,1.2c-0.8,0.4-1.5,0.8-2.2,1.3
					c-0.2,0.1-0.4,0.3-0.5,0.4c-0.1-0.1-0.3-0.3-0.5-0.4c-0.7-0.5-1.4-1-2.2-1.4c-1.6-0.7-3.3-1.2-4.9-1.2c-0.1,0-0.3,0-0.4,0
					C266.2,198.7,264.7,199,263.3,199.4"/>
			</defs>
			<clipPath id="SVGID_20_">
				<use xlink:href="#SVGID_19_"  style="overflow:visible;"/>
			</clipPath>
		</g>
		<g>
			<defs>
				<path id="SVGID_21_" d="M263.3,199.4c-0.2,0.1-0.4,0.1-0.6,0.2l-0.6,0.2c-0.4,0.1-0.7,0.3-1.1,0.4c-0.4,0.1-0.7,0.3-1.1,0.5
					l-1,0.5c-1.3,0.6-2.7,1.2-4.1,1.7c-1.4,0.5-2.8,0.9-4.2,1.2c-1.2,0.2-2.4,0.3-3.6,0.3c-0.3,0-0.5,0-0.8,0
					c-1.5-0.1-2.9-0.3-4.4-0.7l-0.1,0.3c1.4,0.6,2.9,1,4.4,1.2c0.9,0.1,1.7,0.2,2.6,0.2c0.7,0,1.3,0,2-0.1c1.5-0.1,3-0.4,4.5-0.8
					c1.5-0.4,2.9-0.9,4.4-1.4l1.1-0.4c0.3-0.1,0.7-0.3,1-0.4c0.3-0.1,0.7-0.2,1-0.3l0.5-0.1c0.2,0,0.3-0.1,0.5-0.1
					c0.9-0.2,1.8-0.3,2.7-0.3c0.5,0,0.9,0,1.4,0.1c1.3,0.2,2.6,0.6,3.7,1.2c0.5,0.3,1.1,0.7,1.5,1.1c0.2,0.2,0.4,0.4,0.6,0.7
					c0.1,0.1,0.2,0.2,0.3,0.4l0.1,0.2l0.1,0.1l0,0c0,0,0,0,0,0h3l0-0.1l0.1-0.2c0.1-0.1,0.2-0.2,0.3-0.4c0.2-0.2,0.4-0.5,0.7-0.7
					c0.5-0.4,1-0.8,1.6-1.2c1.1-0.7,2.4-1.1,3.7-1.3c0.5-0.1,1-0.1,1.5-0.1c0.2,0,0.3,0,0.5,0c0.3,0,0.7,0,1,0.1
					c0.3,0,0.7,0.1,1,0.2c0.3,0.1,0.7,0.1,1,0.2l0.5,0.1l0.5,0.2c0.3,0.1,0.7,0.2,1,0.4l1.1,0.4c1.4,0.6,2.9,1.1,4.4,1.4
					c1.5,0.4,3,0.7,4.6,0.8c0.7,0.1,1.4,0.1,2.1,0.1c0.9,0,1.7-0.1,2.5-0.2c1.5-0.2,3-0.6,4.4-1.2l-0.1-0.3
					c-1.4,0.4-2.9,0.7-4.4,0.7c-0.2,0-0.5,0-0.7,0c-1.2,0-2.5-0.1-3.7-0.4c-1.5-0.3-2.9-0.7-4.3-1.2c-1.4-0.5-2.8-1.1-4.1-1.8
					l-1-0.5c-0.4-0.2-0.7-0.3-1.1-0.5l-0.6-0.2l-0.6-0.2c-0.4-0.1-0.8-0.3-1.2-0.4c-0.4-0.1-0.8-0.2-1.2-0.3
					c-0.4-0.1-0.8-0.2-1.2-0.2c-0.6-0.1-1.2-0.1-1.8-0.1c-0.2,0-0.5,0-0.7,0c-1.7,0.1-3.4,0.5-4.9,1.2c-0.8,0.4-1.5,0.8-2.2,1.3
					c-0.2,0.1-0.4,0.3-0.5,0.4c-0.1-0.1-0.3-0.3-0.5-0.4c-0.7-0.5-1.4-1-2.2-1.4c-1.6-0.7-3.3-1.2-4.9-1.2c-0.1,0-0.3,0-0.4,0
					C266.2,198.7,264.7,199,263.3,199.4"/>
			</defs>
			<use xlink:href="#SVGID_21_"  style="overflow:visible;fill:#9A999E;"/>
			<clipPath id="SVGID_22_">
				<use xlink:href="#SVGID_21_"  style="overflow:visible;"/>
			</clipPath>
			<rect x="241.9" y="198.7" class="st39" width="68.2" height="6.6"/>
		</g>
		<g>
			<defs>
				<path id="SVGID_23_" d="M263.3,199.4c-0.2,0.1-0.4,0.1-0.6,0.2l-0.6,0.2c-0.4,0.1-0.7,0.3-1.1,0.4c-0.4,0.1-0.7,0.3-1.1,0.5
					l-1,0.5c-1.3,0.6-2.7,1.2-4.1,1.7c-1.4,0.5-2.8,0.9-4.2,1.2c-1.2,0.2-2.4,0.3-3.6,0.3c-0.3,0-0.5,0-0.8,0
					c-1.5-0.1-2.9-0.3-4.4-0.7l-0.1,0.3c1.4,0.6,2.9,1,4.4,1.2c0.9,0.1,1.7,0.2,2.6,0.2c0.7,0,1.3,0,2-0.1c1.5-0.1,3-0.4,4.5-0.8
					c1.5-0.4,2.9-0.9,4.4-1.4l1.1-0.4c0.3-0.1,0.7-0.3,1-0.4c0.3-0.1,0.7-0.2,1-0.3l0.5-0.1c0.2,0,0.3-0.1,0.5-0.1
					c0.9-0.2,1.8-0.3,2.7-0.3c0.5,0,0.9,0,1.4,0.1c1.3,0.2,2.6,0.6,3.7,1.2c0.5,0.3,1.1,0.7,1.5,1.1c0.2,0.2,0.4,0.4,0.6,0.7
					c0.1,0.1,0.2,0.2,0.3,0.4l0.1,0.2l0.1,0.1l0,0c0,0,0,0,0,0h3l0-0.1l0.1-0.2c0.1-0.1,0.2-0.2,0.3-0.4c0.2-0.2,0.4-0.5,0.7-0.7
					c0.5-0.4,1-0.8,1.6-1.2c1.1-0.7,2.4-1.1,3.7-1.3c0.5-0.1,1-0.1,1.5-0.1c0.2,0,0.3,0,0.5,0c0.3,0,0.7,0,1,0.1
					c0.3,0,0.7,0.1,1,0.2c0.3,0.1,0.7,0.1,1,0.2l0.5,0.1l0.5,0.2c0.3,0.1,0.7,0.2,1,0.4l1.1,0.4c1.4,0.6,2.9,1.1,4.4,1.4
					c1.5,0.4,3,0.7,4.6,0.8c0.7,0.1,1.4,0.1,2.1,0.1c0.9,0,1.7-0.1,2.5-0.2c1.5-0.2,3-0.6,4.4-1.2l-0.1-0.3
					c-1.4,0.4-2.9,0.7-4.4,0.7c-0.2,0-0.5,0-0.7,0c-1.2,0-2.5-0.1-3.7-0.4c-1.5-0.3-2.9-0.7-4.3-1.2c-1.4-0.5-2.8-1.1-4.1-1.8
					l-1-0.5c-0.4-0.2-0.7-0.3-1.1-0.5l-0.6-0.2l-0.6-0.2c-0.4-0.1-0.8-0.3-1.2-0.4c-0.4-0.1-0.8-0.2-1.2-0.3
					c-0.4-0.1-0.8-0.2-1.2-0.2c-0.6-0.1-1.2-0.1-1.8-0.1c-0.2,0-0.5,0-0.7,0c-1.7,0.1-3.4,0.5-4.9,1.2c-0.8,0.4-1.5,0.8-2.2,1.3
					c-0.2,0.1-0.4,0.3-0.5,0.4c-0.1-0.1-0.3-0.3-0.5-0.4c-0.7-0.5-1.4-1-2.2-1.4c-1.6-0.7-3.3-1.2-4.9-1.2c-0.1,0-0.3,0-0.4,0
					C266.2,198.7,264.7,199,263.3,199.4"/>
			</defs>
			<clipPath id="SVGID_24_">
				<use xlink:href="#SVGID_23_"  style="overflow:visible;"/>
			</clipPath>
		</g>
	</g>
</g>
</svg>
