<?xml version="1.0" encoding="UTF-8" standalone="no"?>
<!-- Created with Inkscape (http://www.inkscape.org/) -->

<svg
   xmlns:dc="http://purl.org/dc/elements/1.1/"
   xmlns:cc="http://creativecommons.org/ns#"
   xmlns:rdf="http://www.w3.org/1999/02/22-rdf-syntax-ns#"
   xmlns:svg="http://www.w3.org/2000/svg"
   xmlns="http://www.w3.org/2000/svg"
   xmlns:sodipodi="http://sodipodi.sourceforge.net/DTD/sodipodi-0.dtd"
   xmlns:inkscape="http://www.inkscape.org/namespaces/inkscape"
   width="95.752792mm"
   height="78.323128mm"
   viewBox="0 0 339.28155 277.52289"
   id="svg4576"
   version="1.1"
   inkscape:version="0.91 r13725"
   sodipodi:docname="cfores.svg">
  <defs
     id="defs4578" />
  <sodipodi:namedview
     id="base"
     pagecolor="#ffffff"
     bordercolor="#666666"
     borderopacity="1.0"
     inkscape:pageopacity="0.0"
     inkscape:pageshadow="2"
     inkscape:zoom="1.4"
     inkscape:cx="196.78143"
     inkscape:cy="141.76697"
     inkscape:document-units="px"
     inkscape:current-layer="layer1"
     showgrid="false"
     fit-margin-top="0"
     fit-margin-left="0"
     fit-margin-right="0"
     fit-margin-bottom="0"
     inkscape:window-width="1364"
     inkscape:window-height="747"
     inkscape:window-x="0"
     inkscape:window-y="0"
     inkscape:window-maximized="1" />
  <metadata
     id="metadata4581">
    <rdf:RDF>
      <cc:Work
         rdf:about="">
        <dc:format>image/svg+xml</dc:format>
        <dc:type
           rdf:resource="http://purl.org/dc/dcmitype/StillImage" />
        <dc:title></dc:title>
      </cc:Work>
    </rdf:RDF>
  </metadata>
  <g
     inkscape:label="Layer 1"
     inkscape:groupmode="layer"
     id="layer1"
     transform="translate(-96.073506,-133.60077)">
    <g
       transform="translate(83.15081,-587.37523)"
       id="g4467">
      <g
         transform="translate(-52.938625,606.80097)"
         id="g4359">
        <path
           inkscape:connector-curvature="0"
           style="fill:#000000"
           d="m 68.24287,389.89791 0,-1.8 166.35,0 166.35001,0 0,1.8 0,1.8 -166.35001,0 -166.35,0 0,-1.8 z"
           id="path4319" />
        <path
           inkscape:connector-curvature="0"
           style="fill:#000000"
           d="m 73.016904,380.06495 c -4.80644,-2.51092 -5.882006,-9.90245 -2.107297,-14.48183 1.887439,-2.28979 5.459378,-3.19769 8.509754,-2.16297 1.435227,0.48685 1.783047,0.5175 2.061735,0.1817 0.184383,-0.22216 0.521211,-0.40394 0.748506,-0.40394 0.324783,0 0.413268,0.67444 0.413268,3.15 0,2.52075 -0.08508,3.15 -0.425889,3.15 -0.245658,0 -0.640581,-0.64637 -0.933204,-1.52737 -1.397253,-4.20674 -5.073795,-5.34064 -7.74165,-2.38764 -1.30217,1.44134 -1.999257,3.64357 -1.999257,6.31602 0,2.54929 0.689694,4.55343 2.062233,5.99252 2.511777,2.63358 6.540576,2.16758 8.29461,-0.9594 0.440493,-0.78528 0.732552,-1.02609 1.025145,-0.84526 0.329565,0.20368 0.254166,0.51736 -0.38757,1.6124 -1.309164,2.23392 -3.180714,3.19873 -6.204927,3.19873 -1.298574,0 -2.11233,-0.20444 -3.315457,-0.83296 z"
           id="path4317" />
        <path
           inkscape:connector-curvature="0"
           style="fill:#000000"
           d="m 145.91691,380.06495 c -4.80644,-2.51092 -5.88201,-9.90245 -2.1073,-14.48183 1.88744,-2.28979 5.45938,-3.19769 8.50975,-2.16297 1.43523,0.48685 1.78305,0.5175 2.06174,0.1817 0.18438,-0.22216 0.52121,-0.40394 0.7485,-0.40394 0.32479,0 0.41327,0.67444 0.41327,3.15 0,2.52075 -0.0851,3.15 -0.42589,3.15 -0.24566,0 -0.64058,-0.64637 -0.9332,-1.52737 -1.39725,-4.20674 -5.0738,-5.34064 -7.74165,-2.38764 -1.30217,1.44134 -1.99926,3.64357 -1.99926,6.31602 0,2.54929 0.6897,4.55343 2.06223,5.99252 2.51178,2.63358 6.54058,2.16758 8.29461,-0.9594 0.4405,-0.78528 0.73256,-1.02609 1.02515,-0.84526 0.32956,0.20368 0.25417,0.51736 -0.38757,1.6124 -1.30916,2.23392 -3.18071,3.19873 -6.20493,3.19873 -1.29857,0 -2.11233,-0.20444 -3.31545,-0.83296 z"
           id="path4315" />
        <path
           inkscape:connector-curvature="0"
           style="fill:#000000"
           d="m 195.64994,380.30607 c -1.21528,-0.47483 -1.46883,-0.49629 -1.60709,-0.13597 -0.0903,0.2353 -0.41973,0.42781 -0.73207,0.42781 -0.51935,0 -0.56791,-0.25651 -0.56791,-3 0,-3.57052 0.37177,-3.8746 1.53083,-1.25213 1.05875,2.39551 2.47936,3.4663 4.62603,3.48686 1.83597,0.0176 2.95258,-0.7569 3.25237,-2.25587 0.41346,-2.06728 -0.80345,-3.47972 -4.10302,-4.76228 -3.80204,-1.47787 -4.70621,-2.46928 -4.70621,-5.16031 0,-1.42169 0.1371,-1.87316 0.81259,-2.67594 0.95589,-1.136 2.84042,-2.06446 4.20919,-2.07374 0.53448,-0.004 1.63667,0.24605 2.44931,0.55483 1.30881,0.4973 1.52854,0.51038 1.92443,0.1145 0.81972,-0.81972 1.10448,-0.13293 1.10448,2.66379 0,2.35259 -0.0644,2.69167 -0.49515,2.60729 -0.27233,-0.0534 -0.67771,-0.62475 -0.90084,-1.26978 -0.99658,-2.881 -3.1744,-4.25725 -5.31889,-3.36122 -1.18343,0.49446 -1.68512,1.25104 -1.68512,2.54126 0,1.35982 1.22374,2.56919 3.52474,3.48333 4.6216,1.83607 5.62953,2.92363 5.41814,5.84615 -0.15142,2.09328 -0.81452,3.0627 -2.77678,4.05948 -1.80502,0.9169 -3.88231,0.97335 -5.95903,0.16194 z"
           id="path4313" />
        <path
           inkscape:connector-curvature="0"
           style="fill:#000000"
           d="m 244.64258,363.04883 c -1.93853,4e-5 -2.47394,0.12306 -3.875,0.89844 -2.84714,1.57566 -4.3805,4.43351 -4.3457,8.10156 0.0348,3.67386 1.8375,6.76443 4.7539,8.15234 1.26567,0.60238 1.89376,0.70787 3.79102,0.63477 1.9175,-0.0739 2.50373,-0.22966 3.74023,-0.99414 2.78186,-1.71992 4.11342,-4.23362 4.13672,-7.80664 0.0161,-2.4641 -0.5427,-4.2712 -1.85156,-5.98438 -1.60947,-2.10664 -3.50485,-3.00201 -6.34961,-3.00195 z m 0.11914,0.8789 c 1.0597,0.0405 2.13023,0.49686 3.06445,1.40235 1.54056,1.49317 2.06641,3.20502 2.06641,6.71875 0,2.73334 -0.0804,3.15883 -0.90039,4.79883 -0.72914,1.4583 -1.15383,1.92776 -2.23828,2.47461 -2.94127,1.4832 -5.52491,0.28226 -6.9375,-3.22461 -0.27041,-0.67131 -0.42383,-2.18528 -0.42383,-4.19922 0,-2.84225 0.0824,-3.31692 0.83984,-4.85938 1.02658,-2.09049 2.76314,-3.1788 4.5293,-3.11133 z"
           id="path4311" />
        <path
           inkscape:connector-curvature="0"
           style="fill:#000000"
           d="m 300.34994,380.30607 c -1.21527,-0.47483 -1.46883,-0.49629 -1.60709,-0.13597 -0.0903,0.2353 -0.41972,0.42781 -0.73207,0.42781 -0.51935,0 -0.5679,-0.25651 -0.5679,-3 0,-3.57052 0.37176,-3.8746 1.53082,-1.25213 1.05875,2.39551 2.47937,3.4663 4.62603,3.48686 1.83597,0.0176 2.95258,-0.7569 3.25237,-2.25587 0.41346,-2.06728 -0.80345,-3.47972 -4.10302,-4.76228 -3.80204,-1.47787 -4.7062,-2.46928 -4.7062,-5.16031 0,-1.42169 0.13709,-1.87316 0.81258,-2.67594 0.95589,-1.136 2.84043,-2.06446 4.2092,-2.07374 0.53448,-0.004 1.63666,0.24605 2.4493,0.55483 1.30881,0.4973 1.52855,0.51038 1.92443,0.1145 0.81972,-0.81972 1.10449,-0.13293 1.10449,2.66379 0,2.35259 -0.0644,2.69167 -0.49516,2.60729 -0.27233,-0.0534 -0.67771,-0.62475 -0.90083,-1.26978 -0.99659,-2.881 -3.17441,-4.25725 -5.3189,-3.36122 -1.18343,0.49446 -1.68511,1.25104 -1.68511,2.54126 0,1.35982 1.22373,2.56919 3.52473,3.48333 4.6216,1.83607 5.62953,2.92363 5.41814,5.84615 -0.15142,2.09328 -0.81452,3.0627 -2.77678,4.05948 -1.80502,0.9169 -3.88231,0.97335 -5.95903,0.16194 z"
           id="path4307" />
        <path
           inkscape:connector-curvature="0"
           style="fill:#000000"
           d="m 392.44994,380.30607 c -1.21527,-0.47483 -1.46883,-0.49629 -1.6071,-0.13597 -0.0903,0.2353 -0.4197,0.42781 -0.73206,0.42781 -0.51933,0 -0.5679,-0.25651 -0.5679,-3 0,-3.57052 0.37176,-3.8746 1.53084,-1.25213 1.05873,2.39551 2.47935,3.4663 4.626,3.48686 1.83597,0.0176 2.9526,-0.7569 3.25239,-2.25587 0.41346,-2.06728 -0.80346,-3.47972 -4.10304,-4.76228 -3.80202,-1.47787 -4.70619,-2.46928 -4.70619,-5.16031 0,-1.42169 0.1371,-1.87316 0.81258,-2.67594 0.95589,-1.136 2.84043,-2.06446 4.20921,-2.07374 0.53448,-0.004 1.63665,0.24605 2.44929,0.55483 1.30881,0.4973 1.52856,0.51038 1.92444,0.1145 0.81972,-0.81972 1.10448,-0.13293 1.10448,2.66379 0,2.35259 -0.0644,2.69167 -0.49515,2.60729 -0.27234,-0.0534 -0.6777,-0.62475 -0.90084,-1.26978 -0.9966,-2.881 -3.17439,-4.25725 -5.31888,-3.36122 -1.18344,0.49446 -1.68513,1.25104 -1.68513,2.54126 0,1.35982 1.22373,2.56919 3.52473,3.48333 4.62159,1.83607 5.62953,2.92363 5.41815,5.84615 -0.15141,2.09328 -0.81453,3.0627 -2.77677,4.05948 -1.80504,0.9169 -3.88233,0.97335 -5.95905,0.16194 z"
           id="path4305" />
        <path
           inkscape:connector-curvature="0"
           style="fill:#000000"
           d="m 87.44287,380.14791 c 0,-0.29319 0.293628,-0.45 0.842661,-0.45 1.869528,0 1.876983,-0.0325 1.788051,-7.80015 l -0.08071,-7.04985 -1.277766,-0.4417 c -2.117526,-0.73199 -1.353201,-1.05211 2.727306,-1.14226 3.19833,-0.0707 3.80046,-0.0134 3.80046,0.36141 0,0.27212 -0.411603,0.52258 -1.05813,0.64387 -0.58197,0.10918 -1.18947,0.44392 -1.35,0.74387 -0.391944,0.73236 -0.381423,13.05693 0.01176,13.79163 0.167007,0.31205 0.774507,0.6557 1.35,0.76366 0.59859,0.1123 1.046355,0.37458 1.046355,0.61291 0,0.33412 -0.772242,0.41661 -3.9,0.41661 -3.266667,0 -3.9,-0.0731 -3.9,-0.45 z"
           id="path4303" />
        <path
           inkscape:connector-curvature="0"
           style="fill:#000000"
           d="m 100.34287,380.14791 c 0,-0.27647 0.28095,-0.45 0.72857,-0.45 1.58561,0 1.67143,-0.38491 1.67143,-7.49689 0,-3.60472 -0.0794,-6.76104 -0.17653,-7.01406 -0.0971,-0.25302 -0.63709,-0.61203 -1.2,-0.7978 -0.56291,-0.18578 -1.02347,-0.52981 -1.02347,-0.76451 0,-0.35605 1.09326,-0.42674 6.6,-0.42674 l 6.6,0 0,2.1 c 0,2.50811 -0.37874,2.69306 -1.55248,0.75815 -0.94127,-1.55168 -2.22867,-2.04189 -4.98391,-1.89778 l -1.71361,0.0896 0,3.45 0,3.45 1.61379,-0.0149 c 1.3796,-0.0127 1.717,-0.13489 2.325,-0.84173 0.39117,-0.45475 0.71121,-1.0893 0.71121,-1.4101 0,-0.32079 0.2025,-0.58327 0.45,-0.58327 0.37273,0 0.45,0.56667 0.45,3.3 0,2.73334 -0.0773,3.3 -0.45,3.3 -0.2475,0 -0.45,-0.25179 -0.45,-0.55954 0,-0.30775 -0.2798,-0.91525 -0.62177,-1.35 -0.54677,-0.69511 -0.83628,-0.79046 -2.4,-0.79046 l -1.77823,10e-6 0,3.09267 c 0,4.17789 0.0663,4.25733 3.55247,4.25733 2.43147,0 2.77527,-0.071 3.46038,-0.71486 0.41838,-0.39318 1.0029,-1.30393 1.29892,-2.02388 0.75299,-1.83132 1.28823,-1.70616 1.28823,0.30124 0,0.88688 -0.0844,2.03438 -0.1875,2.55 l -0.1875,0.9375 -7.0125,0 c -6.03333,0 -7.0125,-0.0628 -7.0125,-0.45 z"
           id="path4301" />
        <path
           inkscape:connector-curvature="0"
           style="fill:#000000"
           d="m 118.94287,380.17171 c 0,-0.23439 0.391,-0.51204 0.86889,-0.617 1.77849,-0.39062 1.91591,-0.83693 2.05807,-6.68436 0.15868,-6.52662 -0.0541,-7.43318 -1.95196,-8.31471 -2.07563,-0.96413 -1.67711,-1.39622 1.1943,-1.2949 l 2.46929,0.0871 4.80571,6.52517 4.8057,6.52517 0.0821,-4.91202 c 0.0478,-2.86066 -0.047,-5.25158 -0.22706,-5.72511 -0.20394,-0.53641 -0.71679,-0.97323 -1.50708,-1.28366 -0.65887,-0.25883 -1.19794,-0.6526 -1.19794,-0.87507 0,-0.31588 0.75584,-0.4045 3.45,-0.4045 2.8918,0 3.45,0.074 3.45,0.4575 0,0.26954 -0.37419,0.53234 -0.91076,0.63966 -1.71936,0.34387 -1.78924,0.69029 -1.78924,8.8696 0,7.23673 -0.0159,7.43324 -0.60084,7.43324 -0.43546,0 -2.02507,-1.91902 -5.775,-6.97175 l -5.17416,-6.97175 -0.099,1.19675 c -0.0545,0.65822 -0.0545,3.24161 0,5.74087 0.10915,5.00778 0.30637,5.57313 2.08015,5.96272 0.47789,0.10496 0.86889,0.38261 0.86889,0.617 0,0.34351 -0.66909,0.42616 -3.45,0.42616 -2.7809,0 -3.45,-0.0827 -3.45,-0.42616 z"
           id="path4299" />
        <path
           inkscape:connector-curvature="0"
           style="fill:#000000"
           d="m 160.34287,380.14791 c 0,-0.29319 0.29363,-0.45 0.84266,-0.45 1.86953,0 1.87699,-0.0325 1.78805,-7.80015 l -0.0807,-7.04985 -1.27776,-0.4417 c -2.11753,-0.73199 -1.3532,-1.05211 2.7273,-1.14226 3.19833,-0.0707 3.80046,-0.0134 3.80046,0.36141 0,0.27212 -0.4116,0.52258 -1.05813,0.64387 -0.58197,0.10918 -1.18947,0.44392 -1.35,0.74387 -0.39194,0.73236 -0.38142,13.05693 0.0118,13.79163 0.16701,0.31205 0.77451,0.6557 1.35,0.76366 0.59859,0.1123 1.04636,0.37458 1.04636,0.61291 0,0.33412 -0.77224,0.41661 -3.9,0.41661 -3.26667,0 -3.9,-0.0731 -3.9,-0.45 z"
           id="path4297" />
        <path
           inkscape:connector-curvature="0"
           style="fill:#000000"
           d="m 180.57227,363.26953 c -0.49722,-0.068 -0.98389,0.97646 -3.42383,7.34961 -2.90352,7.58407 -3.73994,9.07813 -5.08203,9.07813 -0.35385,0 -0.62305,0.19562 -0.62305,0.45117 0,0.3727 0.5655,0.44922 3.29883,0.44922 2.73334,0 3.30078,-0.0765 3.30078,-0.44922 0,-0.27006 -0.27766,-0.45117 -0.69336,-0.45117 -0.38096,0 -0.94145,-0.18154 -1.24609,-0.4043 -0.63142,-0.46171 -0.54593,-1.69274 0.25,-3.59766 l 0.46679,-1.11914 3.05664,0.0859 3.05469,0.0859 0.78125,2.18554 c 0.84519,2.36705 0.73478,2.74937 -0.79492,2.75977 -0.39796,0.003 -0.67578,0.18978 -0.67578,0.45508 0,0.375 0.60156,0.44922 3.60156,0.44922 3,0 3.59961,-0.0742 3.59961,-0.44922 0,-0.2475 -0.25469,-0.45117 -0.56641,-0.45117 -1.23927,0 -1.85601,-1.11952 -4.77734,-8.69922 -2.35082,-6.09941 -3.0652,-7.66532 -3.52734,-7.72852 z m -0.69532,4.04492 c 0.26505,0.26781 2.36524,5.69292 2.36524,6.10938 0,0.28635 -4.5796,0.39306 -4.85938,0.11328 -0.0881,-0.0881 0.3848,-1.57658 1.05078,-3.30859 0.66599,-1.73202 1.31584,-3.04292 1.44336,-2.91407 z"
           id="path4295" />
        <path
           inkscape:connector-curvature="0"
           style="fill:#000000"
           d="m 218.54287,380.14791 c 0,-0.27647 0.28096,-0.45 0.72857,-0.45 1.58562,0 1.67143,-0.38491 1.67143,-7.49689 0,-3.60472 -0.0794,-6.76104 -0.17653,-7.01406 -0.0971,-0.25302 -0.63708,-0.61203 -1.2,-0.7978 -0.5629,-0.18578 -1.02347,-0.53239 -1.02347,-0.77025 0,-0.36609 1.02456,-0.42008 6.675,-0.35174 l 6.675,0.0807 0,2.075 c 0,2.44861 -0.44512,2.84849 -1.30196,1.16963 -1.0371,-2.03204 -1.52867,-2.28662 -4.47434,-2.3173 l -2.6237,-0.0273 -0.0848,3.56177 -0.0848,3.56177 1.79859,-0.1301 c 2.02,-0.14611 2.87728,-0.70574 3.17791,-2.07454 0.10497,-0.47789 0.38262,-0.8689 0.61701,-0.8689 0.34351,0 0.42616,0.6691 0.42616,3.45 0,2.74722 -0.085,3.45 -0.41747,3.45 -0.22962,0 -0.50963,-0.37125 -0.62224,-0.825 -0.39124,-1.57631 -1.27553,-2.175 -3.21258,-2.175 l -1.74771,0 0,3.15 c 0,2.75001 0.0762,3.2262 0.6,3.75 0.33,0.33 0.87,0.6 1.2,0.6 0.33334,0 0.6,0.20001 0.6,0.45 0,0.375 -0.6,0.45 -3.6,0.45 -3,0 -3.6,-0.075 -3.6,-0.45 z"
           id="path4291" />
        <path
           inkscape:connector-curvature="0"
           style="fill:#000000"
           d="m 260.25391,363.20508 c -2.0226,-0.0151 -2.41016,0.0826 -2.41016,0.375 0,0.24866 0.36944,0.5465 0.82227,0.66015 1.58747,0.39842 1.57617,0.34618 1.57617,7.67383 0,7.42507 -0.0757,7.78321 -1.66992,7.78321 -0.44762,0 -0.72852,0.1747 -0.72852,0.45117 0,0.375 0.59961,0.44922 3.59961,0.44922 3,0 3.59961,-0.0742 3.59961,-0.44922 0,-0.27647 -0.2809,-0.45117 -0.72852,-0.45117 -1.38451,0 -1.67187,-0.67165 -1.67187,-3.91993 l 0,-2.97851 0.99804,0 c 0.91867,0 1.16664,0.23163 3.10352,2.92383 1.1574,1.60875 2.35679,3.36414 2.66602,3.90039 0.55838,0.968 0.57709,0.97461 2.89648,0.97461 1.87583,0 2.33594,-0.0878 2.33594,-0.44922 0,-0.2475 -0.19581,-0.45117 -0.43555,-0.45117 -1.14708,0 -2.25131,-0.99853 -4.58203,-4.14844 -1.38786,-1.87564 -2.48013,-3.44092 -2.42773,-3.47852 0.0524,-0.0376 0.545,-0.24812 1.09375,-0.46679 3.56389,-1.42019 4.05786,-5.89798 0.83593,-7.57813 -1.08135,-0.56391 -1.85533,-0.65882 -6.25976,-0.76953 -1.08322,-0.0272 -1.93909,-0.0458 -2.61328,-0.0508 z m 3.41015,0.94726 c 0.34914,1.7e-4 0.78753,0.0269 1.22852,0.082 1.9271,0.24077 3.0233,1.12774 3.31445,2.67968 0.28516,1.52008 -0.0422,2.52268 -1.20117,3.68164 -0.89777,0.89777 -1.17881,1.00196 -2.68359,1.00196 l -1.67969,0 0,-3.58204 c 0,-2.23254 0.12115,-3.65697 0.32226,-3.78124 0.0887,-0.0549 0.35008,-0.0822 0.69922,-0.082 z"
           id="path4289" />
        <path
           inkscape:connector-curvature="0"
           style="fill:#000000"
           d="m 278.24288,380.14791 c 0,-0.27647 0.28095,-0.45 0.72857,-0.45 1.58561,0 1.67143,-0.38491 1.67143,-7.49689 0,-3.60472 -0.0794,-6.76104 -0.17653,-7.01406 -0.0971,-0.25302 -0.63709,-0.61203 -1.2,-0.7978 -0.56291,-0.18578 -1.02347,-0.52981 -1.02347,-0.76451 0,-0.35605 1.09326,-0.42674 6.6,-0.42674 l 6.6,0 0,2.1 c 0,2.50811 -0.37874,2.69306 -1.55249,0.75815 -0.94126,-1.55168 -2.22866,-2.04189 -4.98391,-1.89778 l -1.7136,0.0896 0,3.45 0,3.45 1.61379,-0.0149 c 1.37959,-0.0127 1.717,-0.13489 2.325,-0.84173 0.39116,-0.45475 0.71121,-1.0893 0.71121,-1.4101 0,-0.32079 0.2025,-0.58327 0.45,-0.58327 0.37272,0 0.45,0.56667 0.45,3.3 0,2.73334 -0.0773,3.3 -0.45,3.3 -0.2475,0 -0.45,-0.25179 -0.45,-0.55954 0,-0.30775 -0.2798,-0.91525 -0.62178,-1.35 -0.54677,-0.69511 -0.83627,-0.79046 -2.4,-0.79046 l -1.77822,10e-6 0,3.09267 c 0,4.17789 0.0663,4.25733 3.55246,4.25733 2.43148,0 2.77527,-0.071 3.46039,-0.71486 0.41838,-0.39318 1.00289,-1.30393 1.29892,-2.02388 0.75299,-1.83132 1.28823,-1.70616 1.28823,0.30124 0,0.88688 -0.0844,2.03438 -0.1875,2.55 l -0.1875,0.9375 -7.0125,0 c -6.03334,0 -7.0125,-0.0628 -7.0125,-0.45 z"
           id="path4285" />
        <path
           inkscape:connector-curvature="0"
           style="fill:#000000"
           d="m 316.94288,380.14791 c 0,-0.3 0.3,-0.45 0.9,-0.45 0.5,0 1.16666,-0.26666 1.5,-0.6 0.56587,-0.56587 0.6,-0.99999 0.6,-7.63229 0,-4.67538 -0.10769,-7.09885 -0.3213,-7.23087 -0.17672,-0.10922 -0.92178,-0.10853 -1.6557,10e-4 -1.49591,0.22433 -2.61236,1.19986 -3.18914,2.78663 -0.65573,1.80403 -1.13386,1.20091 -1.13386,-1.43021 l 0,-2.40524 7.425,0.0802 7.425,0.0802 0.0876,2.325 c 0.10159,2.69562 -0.38409,3.12867 -1.28019,1.14147 -0.79224,-1.75688 -1.63978,-2.40712 -3.41094,-2.61688 l -1.54648,-0.18316 0,7.35505 c 0,8.00786 -0.0322,7.85709 1.75359,8.21424 0.52052,0.10411 0.94641,0.37491 0.94641,0.60178 0,0.32964 -0.81364,0.4125 -4.05,0.4125 -3.4,0 -4.05,-0.0722 -4.05,-0.45 z"
           id="path4283" />
        <path
           inkscape:connector-curvature="0"
           style="fill:#000000"
           d="m 340.17188,363.26953 c -0.49724,-0.068 -0.9839,0.97646 -3.42383,7.34961 -2.90353,7.58407 -3.73994,9.07813 -5.08203,9.07813 -0.35384,0 -0.62305,0.19562 -0.62305,0.45117 0,0.3727 0.56744,0.44922 3.30078,0.44922 2.73333,0 3.29883,-0.0765 3.29883,-0.44922 0,-0.27006 -0.27572,-0.45117 -0.69141,-0.45117 -0.38097,0 -0.9434,-0.18154 -1.24805,-0.4043 -0.63141,-0.46171 -0.54592,-1.69274 0.25,-3.59766 l 0.46876,-1.11914 3.05468,0.0859 3.05469,0.0859 0.78125,2.18554 c 0.8452,2.36705 0.73478,2.74937 -0.79492,2.75977 -0.39796,0.003 -0.67383,0.18978 -0.67383,0.45508 0,0.375 0.59961,0.44922 3.59961,0.44922 3,0 3.59961,-0.0742 3.59961,-0.44922 0,-0.2475 -0.25468,-0.45117 -0.56641,-0.45117 -1.23927,0 -1.85405,-1.11952 -4.77539,-8.69922 -2.3508,-6.09941 -3.06716,-7.66532 -3.52929,-7.72852 z m -0.69532,4.04492 c 0.26504,0.26781 2.36719,5.69292 2.36719,6.10938 0,0.28635 -4.58155,0.39306 -4.86133,0.11328 -0.0881,-0.0881 0.38479,-1.57658 1.05078,-3.30859 0.66598,-1.73202 1.31583,-3.04292 1.44336,-2.91407 z"
           id="path4281" />
        <path
           inkscape:connector-curvature="0"
           style="fill:#000000"
           d="m 352.34288,380.14791 c 0,-0.27647 0.28095,-0.45 0.72858,-0.45 1.58559,0 1.67142,-0.38491 1.67142,-7.49689 0,-3.60472 -0.0794,-6.76104 -0.17652,-7.01406 -0.0971,-0.25302 -0.63711,-0.61203 -1.2,-0.7978 -0.56292,-0.18578 -1.02348,-0.52981 -1.02348,-0.76451 0,-0.34527 0.68724,-0.42674 3.6,-0.42674 2.91051,0 3.6,0.0816 3.6,0.42617 0,0.23439 -0.40611,0.51536 -0.90249,0.62438 -0.49638,0.10902 -1.03638,0.44837 -1.2,0.75412 -0.17031,0.31819 -0.29751,3.32234 -0.29751,7.02561 0,6.06973 0.0371,6.50682 0.6,7.06972 0.45279,0.45281 0.99999,0.6 2.23047,0.6 2.71206,0 3.74166,-0.65317 4.84713,-3.075 0.28245,-0.61875 0.69552,-1.125 0.91797,-1.125 0.45381,0 0.49149,0.57915 0.21168,3.256 l -0.19272,1.844 -6.70728,0 c -5.76201,0 -6.70725,-0.0634 -6.70725,-0.45 z"
           id="path4277" />
        <path
           inkscape:connector-curvature="0"
           style="fill:#000000"
           d="m 370.34288,380.14791 c 0,-0.27647 0.28095,-0.45 0.72858,-0.45 1.58559,0 1.67142,-0.38491 1.67142,-7.49689 0,-3.60472 -0.0794,-6.76104 -0.17652,-7.01406 -0.0971,-0.25302 -0.63711,-0.61203 -1.2,-0.7978 -0.56292,-0.18578 -1.02348,-0.52981 -1.02348,-0.76451 0,-0.35605 1.09326,-0.42674 6.6,-0.42674 l 6.6,0 0,2.1 c 0,2.50811 -0.37875,2.69306 -1.55247,0.75815 -0.94128,-1.55168 -2.22867,-2.04189 -4.98393,-1.89778 l -1.7136,0.0896 0,3.45 0,3.45 1.61379,-0.0149 c 1.37961,-0.0127 1.71699,-0.13489 2.325,-0.84173 0.39117,-0.45475 0.71121,-1.0893 0.71121,-1.4101 0,-0.32079 0.2025,-0.58327 0.45,-0.58327 0.37272,0 0.45,0.56667 0.45,3.3 0,2.73334 -0.0773,3.3 -0.45,3.3 -0.2475,0 -0.45,-0.25179 -0.45,-0.55954 0,-0.30775 -0.27981,-0.91525 -0.62178,-1.35 -0.54678,-0.69511 -0.83628,-0.79046 -2.4,-0.79046 l -1.77822,0 0,3.09266 c 0,4.1779 0.0663,4.25734 3.55248,4.25734 2.43147,0 2.77527,-0.071 3.46038,-0.71486 0.41838,-0.39318 1.0029,-1.30393 1.29891,-2.02388 0.753,-1.83133 1.28823,-1.70616 1.28823,0.30124 0,0.88688 -0.0844,2.03438 -0.1875,2.55 l -0.1875,0.9375 -7.0125,0 c -6.03333,1e-5 -7.0125,-0.0628 -7.0125,-0.44999 z"
           id="path4275" />
        <path
           inkscape:connector-curvature="0"
           style="fill:#000000"
           d="m 68.44287,354.29791 c -0.11,-0.11 -0.2,-0.9875 -0.2,-1.95 l 0,-1.75 166.35,0 166.35001,0 0,1.95 0,1.95 -166.15001,0 c -91.3825,0 -166.24,-0.09 -166.35,-0.2 z"
           id="path4273" />
        <path
           inkscape:connector-curvature="0"
           style="fill:#000000"
           d="m 118.53079,343.15928 c -0.0811,-0.13126 -1.37852,-3.52809 -2.88312,-7.54853 -1.50459,-4.02044 -2.85853,-7.53953 -3.00875,-7.82021 -0.15021,-0.28069 -0.68328,-0.68023 -1.18458,-0.88788 -0.50131,-0.20765 -0.91147,-0.56366 -0.91147,-0.79114 0,-0.3275 0.71826,-0.41361 3.45,-0.41361 2.86667,0 3.45,0.0761 3.45,0.45 0,0.2475 -0.2442,0.45 -0.54266,0.45 -0.29846,0 -0.78804,0.17943 -1.08795,0.39873 -0.51515,0.37668 -0.42312,0.72493 1.66486,6.3 1.21558,3.2457 2.29402,5.90127 2.39653,5.90127 0.32,0 4.16922,-10.30657 4.16922,-11.16337 0,-0.68804 -0.18386,-0.86763 -1.2,-1.17207 -0.66,-0.19774 -1.2,-0.54066 -1.2,-0.76204 0,-0.31113 0.71517,-0.40252 3.15,-0.40252 2.50233,0 3.15,0.0865 3.15,0.42065 0,0.23136 -0.395,0.55836 -0.87778,0.72665 -0.48278,0.1683 -1.0727,0.62026 -1.31093,1.00435 -0.23823,0.38409 -1.75857,4.0396 -3.37854,8.12335 -2.65713,6.69833 -3.34818,7.98996 -3.84483,7.18637 z"
           id="path4271" />
        <path
           inkscape:connector-curvature="0"
           style="fill:#000000"
           d="m 150.94994,342.80607 c -1.21528,-0.47483 -1.46883,-0.49629 -1.60709,-0.13597 -0.0903,0.2353 -0.41973,0.42781 -0.73208,0.42781 -0.51934,0 -0.5679,-0.25651 -0.5679,-3 0,-3.57052 0.37177,-3.87461 1.53083,-1.25213 1.05875,2.39551 2.47936,3.4663 4.62602,3.48686 1.83597,0.0176 2.95259,-0.7569 3.25238,-2.25587 0.41346,-2.06728 -0.80345,-3.47972 -4.10302,-4.76228 -3.80204,-1.47787 -4.70621,-2.46928 -4.70621,-5.16031 0,-1.42169 0.1371,-1.87316 0.81259,-2.67594 0.95589,-1.13601 2.84042,-2.06446 4.20919,-2.07374 0.53448,-0.004 1.63667,0.24605 2.4493,0.55483 1.30881,0.4973 1.52855,0.51038 1.92444,0.1145 0.81972,-0.81973 1.10448,-0.13294 1.10448,2.66378 0,2.3526 -0.0644,2.69168 -0.49515,2.6073 -0.27233,-0.0534 -0.67771,-0.62475 -0.90084,-1.26978 -0.99659,-2.881 -3.1744,-4.25725 -5.31889,-3.36123 -1.18343,0.49447 -1.68512,1.25105 -1.68512,2.54127 0,1.35982 1.22374,2.56918 3.52474,3.48333 4.62159,1.83607 5.62953,2.92363 5.41814,5.84614 -0.15142,2.09329 -0.81453,3.06271 -2.77678,4.05949 -1.80502,0.9169 -3.88231,0.97335 -5.95903,0.16194 z"
           id="path4269" />
        <path
           inkscape:connector-curvature="0"
           style="fill:#000000"
           d="m 223.31691,342.56495 c -4.80644,-2.51092 -5.88201,-9.90246 -2.1073,-14.48183 1.88744,-2.2898 5.45938,-3.19769 8.50975,-2.16297 1.43523,0.48685 1.78305,0.5175 2.06174,0.1817 0.18438,-0.22216 0.52121,-0.40394 0.74851,-0.40394 0.32478,0 0.41326,0.67444 0.41326,3.15 0,2.52075 -0.0851,3.15 -0.42589,3.15 -0.24565,0 -0.64058,-0.64637 -0.9332,-1.52738 -1.39725,-4.20673 -5.07379,-5.34063 -7.74165,-2.38764 -1.30217,1.44135 -1.99926,3.64358 -1.99926,6.31603 0,2.54928 0.6897,4.55343 2.06224,5.99252 2.51177,2.63358 6.54057,2.16758 8.29461,-0.9594 0.44049,-0.78528 0.73255,-1.02609 1.02514,-0.84526 0.32957,0.20368 0.25417,0.51736 -0.38757,1.6124 -1.30916,2.23392 -3.18071,3.19873 -6.20493,3.19873 -1.29857,0 -2.11233,-0.20444 -3.31545,-0.83296 z"
           id="path4267" />
        <path
           inkscape:connector-curvature="0"
           style="fill:#000000"
           d="m 246.14287,343.18778 c -1.59732,-0.57777 -2.52793,-1.20997 -3.16831,-2.15238 -0.71564,-1.05315 -0.73169,-1.20912 -0.73169,-7.11063 0,-6.52851 -0.0279,-6.64442 -1.725,-7.16159 -0.37125,-0.11313 -0.675,-0.3991 -0.675,-0.63548 0,-0.34917 0.67527,-0.42979 3.6,-0.42979 2.87536,0 3.6,0.084 3.6,0.41748 0,0.22961 -0.37049,0.51046 -0.82332,0.62412 -1.56592,0.39302 -1.57714,0.43889 -1.57009,6.42013 0.006,4.887 0.0798,5.74969 0.59039,6.87457 0.7293,1.60687 2.14198,2.29395 4.29181,2.08738 1.70422,-0.16375 2.85086,-0.91154 3.59578,-2.345 0.46452,-0.89389 0.52348,-1.72238 0.45,-6.32303 -0.0933,-5.84131 -0.23461,-6.30066 -2.0499,-6.66371 -0.51547,-0.1031 -0.88467,-0.36787 -0.88467,-0.63444 0,-0.38348 0.5582,-0.4575 3.45,-0.4575 2.78091,0 3.45,0.0827 3.45,0.42616 0,0.23439 -0.40483,0.51509 -0.89962,0.62376 -1.65385,0.36325 -1.79969,0.91948 -1.80696,6.89184 -0.006,4.62444 -0.0875,5.58646 -0.56504,6.63792 -0.93051,2.04891 -3.0407,3.13833 -5.99814,3.09664 -0.92413,-0.013 -1.88274,-0.0969 -2.13024,-0.18645 z"
           id="path4265" />
        <path
           inkscape:connector-curvature="0"
           style="fill:#000000"
           d="m 71.253906,325.70508 c -2.022594,-0.0151 -2.410156,0.0826 -2.410156,0.375 0,0.24865 0.36944,0.54649 0.822266,0.66015 1.587439,0.39842 1.576172,0.34618 1.576172,7.67383 0,7.42507 -0.07571,7.78321 -1.669922,7.78321 -0.447619,0 -0.728516,0.1747 -0.728516,0.45117 0,0.375 0.599609,0.44922 3.599609,0.44922 3,0 3.59961,-0.0742 3.59961,-0.44922 0,-0.27647 -0.280898,-0.45117 -0.728516,-0.45117 -1.384515,0 -1.671875,-0.67164 -1.671875,-3.91993 l 0,-2.97851 0.998047,0 c 0.91866,0 1.166629,0.23162 3.103516,2.92383 1.1574,1.60875 2.356793,3.36414 2.666015,3.90039 0.558387,0.968 0.577095,0.97461 2.896485,0.97461 1.875837,0 2.335937,-0.0878 2.335937,-0.44922 0,-0.2475 -0.195811,-0.45117 -0.435547,-0.45117 -1.14708,0 -2.251307,-0.99854 -4.582031,-4.14844 -1.387857,-1.87565 -2.480114,-3.44092 -2.427734,-3.47852 0.05238,-0.0376 0.544996,-0.24812 1.09375,-0.46679 3.563889,-1.42019 4.057862,-5.89798 0.835937,-7.57813 -1.081356,-0.5639 -1.855337,-0.65883 -6.259765,-0.76953 -1.083223,-0.0272 -1.939084,-0.0458 -2.613282,-0.0508 z m 3.410156,0.94726 c 0.34914,1.7e-4 0.787528,0.0269 1.228516,0.082 1.927098,0.24076 3.023306,1.12773 3.314453,2.67968 0.285168,1.52008 -0.04222,2.52269 -1.201172,3.68164 -0.897777,0.89778 -1.178817,1.00196 -2.683593,1.00196 l -1.679688,0 0,-3.58204 c 0,-2.23255 0.121158,-3.65697 0.322266,-3.78124 0.08874,-0.0549 0.350079,-0.0822 0.699218,-0.082 z"
           id="path4263" />
        <path
           inkscape:connector-curvature="0"
           style="fill:#000000"
           d="m 91.04287,342.64791 c 0,-0.27647 0.280953,-0.45 0.728571,-0.45 1.585611,0 1.671429,-0.38491 1.671429,-7.49689 0,-3.60472 -0.07944,-6.76105 -0.176529,-7.01406 -0.09709,-0.25302 -0.637089,-0.61203 -1.2,-0.7978 -0.562908,-0.18578 -1.023471,-0.52981 -1.023471,-0.76451 0,-0.35605 1.09326,-0.42674 6.6,-0.42674 l 6.6,0 0,2.1 c 0,2.5081 -0.37874,2.69306 -1.55248,0.75815 -0.94127,-1.55168 -2.22867,-2.04189 -4.983914,-1.89778 l -1.713606,0.0896 0,3.45 0,3.45 1.61379,-0.0149 c 1.379598,-0.0127 1.717002,-0.13489 2.325,-0.84173 0.39117,-0.45475 0.71121,-1.0893 0.71121,-1.4101 0,-0.3208 0.2025,-0.58327 0.45,-0.58327 0.37273,0 0.45,0.56667 0.45,3.3 0,2.73333 -0.0773,3.3 -0.45,3.3 -0.2475,0 -0.45,-0.25179 -0.45,-0.55954 0,-0.30775 -0.2798,-0.91525 -0.62177,-1.35 -0.546775,-0.69511 -0.836278,-0.79046 -2.400004,-0.79046 l -1.778226,10e-6 0,3.09266 c 0,4.1779 0.06629,4.25734 3.552468,4.25734 2.431472,0 2.775272,-0.071 3.460382,-0.71486 0.41838,-0.39318 1.0029,-1.30393 1.29892,-2.02388 0.75299,-1.83132 1.28823,-1.70616 1.28823,0.30124 0,0.88688 -0.0844,2.03438 -0.1875,2.55 l -0.1875,0.9375 -7.0125,0 c -6.033333,0 -7.0125,-0.0628 -7.0125,-0.45 z"
           id="path4259" />
        <path
           inkscape:connector-curvature="0"
           style="fill:#000000"
           d="m 133.34287,342.64791 c 0,-0.29319 0.29363,-0.45 0.84266,-0.45 1.86953,0 1.87699,-0.0325 1.78805,-7.80015 l -0.0807,-7.04985 -1.27776,-0.4417 c -2.11753,-0.73199 -1.35321,-1.05211 2.7273,-1.14226 3.19833,-0.0707 3.80046,-0.0134 3.80046,0.36141 0,0.27212 -0.4116,0.52258 -1.05813,0.64387 -0.58197,0.10918 -1.18947,0.44392 -1.35,0.74387 -0.39194,0.73236 -0.38142,13.05693 0.0118,13.79163 0.16701,0.31205 0.77451,0.6557 1.35,0.76366 0.59859,0.1123 1.04636,0.37458 1.04636,0.61291 0,0.33412 -0.77225,0.41661 -3.9,0.41661 -3.26667,0 -3.9,-0.0731 -3.9,-0.45 z"
           id="path4257" />
        <path
           inkscape:connector-curvature="0"
           style="fill:#000000"
           d="m 169.04287,342.64791 c 0,-0.3 0.3,-0.45 0.9,-0.45 0.5,0 1.16667,-0.26666 1.5,-0.6 0.56587,-0.56587 0.6,-1 0.6,-7.63229 0,-4.67538 -0.10768,-7.09885 -0.3213,-7.23087 -0.17671,-0.10922 -0.92177,-0.10853 -1.65569,10e-4 -1.49592,0.22433 -2.61237,1.19986 -3.18914,2.78663 -0.65573,1.80403 -1.13387,1.20091 -1.13387,-1.43021 l 0,-2.40524 7.425,0.0802 7.425,0.0802 0.0876,2.325 c 0.10159,2.69562 -0.38409,3.12867 -1.28019,1.14147 -0.79224,-1.75688 -1.63979,-2.40712 -3.41095,-2.61689 l -1.54648,-0.18315 0,7.35505 c 0,8.00786 -0.0322,7.85709 1.7536,8.21424 0.52052,0.10411 0.9464,0.37491 0.9464,0.60178 0,0.32963 -0.81363,0.4125 -4.05,0.4125 -3.4,0 -4.05,-0.0722 -4.05,-0.45 z"
           id="path4255" />
        <path
           inkscape:connector-curvature="0"
           style="fill:#000000"
           d="m 194.37305,325.76953 c -0.49722,-0.068 -0.98389,0.97646 -3.42383,7.34961 -2.90352,7.58407 -3.7419,9.07813 -5.08399,9.07813 -0.35385,0 -0.62304,0.19562 -0.62304,0.45117 0,0.3727 0.56745,0.44922 3.30078,0.44922 2.73334,0 3.30078,-0.0765 3.30078,-0.44922 0,-0.27006 -0.27766,-0.45117 -0.69336,-0.45117 -0.38096,0 -0.94145,-0.18154 -1.24609,-0.4043 -0.63142,-0.46171 -0.54593,-1.69274 0.25,-3.59766 l 0.46679,-1.11914 3.05469,0.0859 3.05664,0.0859 0.7793,2.18554 c 0.84519,2.36706 0.73673,2.74937 -0.79297,2.75977 -0.39796,0.003 -0.67578,0.18978 -0.67578,0.45508 0,0.375 0.59961,0.44922 3.59961,0.44922 3,0 3.59961,-0.0742 3.59961,-0.44922 0,-0.2475 -0.25469,-0.45117 -0.56641,-0.45117 -1.23927,0 -1.85405,-1.11952 -4.77539,-8.69922 -2.35082,-6.09941 -3.0652,-7.66532 -3.52734,-7.72852 z m -0.69727,4.04492 c 0.26505,0.26781 2.36719,5.69292 2.36719,6.10938 0,0.28634 -4.5796,0.39306 -4.85938,0.11328 -0.0881,-0.0881 0.38481,-1.57657 1.05079,-3.30859 0.66598,-1.73201 1.31388,-3.04293 1.4414,-2.91407 z"
           id="path4253" />
        <path
           style="fill:#000000"
           d="m 267.64062,325.76367 c -2.08767,0.0365 -3.933,0.18672 -4.01171,0.42383 -0.0619,0.18656 0.22271,0.42295 0.63086,0.52539 1.64804,0.41365 1.68359,0.57894 1.68359,7.75781 0,5.74824 -0.0656,6.70208 -0.49609,7.17774 -0.27307,0.30174 -0.81425,0.54883 -1.20118,0.54883 -0.42534,0 -0.70312,0.1791 -0.70312,0.45117 0,0.38043 0.70681,0.44826 4.57422,0.44726 2.51625,-9.2e-4 5.11325,-0.14983 5.76953,-0.33203 1.59454,-0.44268 3.30658,-2.19464 3.57812,-3.66015 0.31759,-1.71397 -0.67725,-3.58472 -2.33398,-4.38672 -0.70218,-0.33992 -1.5053,-0.61914 -1.7832,-0.61914 -0.84854,0 -0.56281,-0.4579 0.53125,-0.85352 1.64909,-0.59632 2.56445,-1.91373 2.56445,-3.69141 0,-1.9917 -0.99587,-3.04505 -3.33789,-3.53125 -1.0473,-0.21742 -3.37716,-0.29431 -5.46485,-0.25781 z m 2.45118,0.88672 c 1.99784,-0.036 3.65214,1.32776 3.65039,3.19531 -10e-4,1.36188 -0.94376,2.96968 -1.96875,3.35938 -0.42317,0.16089 -1.36785,0.29297 -2.09961,0.29297 l -1.33008,0 0,-3.27539 0,-3.27735 0.87305,-0.1914 c 0.29559,-0.0649 0.58959,-0.0984 0.875,-0.10352 z m -1.74805,7.67969 2.08984,0.11914 c 1.81176,0.10237 2.21042,0.2336 2.9961,0.98633 1.57041,1.50454 1.51557,4.30961 -0.11328,5.83984 -0.47111,0.44258 -1.20165,0.73013 -2.0293,0.79883 -2.6114,0.2168 -2.94336,-0.28628 -2.94336,-4.4668 l 0,-3.27734 z"
           id="path4249"
           inkscape:connector-curvature="0" />
        <path
           inkscape:connector-curvature="0"
           style="fill:#000000"
           d="m 292.17188,325.76953 c -0.49724,-0.068 -0.9839,0.97646 -3.42383,7.34961 -2.90353,7.58407 -3.73994,9.07813 -5.08203,9.07813 -0.35384,0 -0.62305,0.19562 -0.62305,0.45117 0,0.3727 0.56744,0.44922 3.30078,0.44922 2.73333,0 3.29883,-0.0765 3.29883,-0.44922 0,-0.27006 -0.27571,-0.45117 -0.69141,-0.45117 -0.38096,0 -0.9434,-0.18154 -1.24805,-0.4043 -0.63142,-0.46171 -0.54592,-1.69274 0.25,-3.59766 l 0.46876,-1.11914 3.05468,0.0859 3.05469,0.0859 0.78125,2.18554 c 0.84519,2.36706 0.73478,2.74937 -0.79492,2.75977 -0.39796,0.003 -0.67383,0.18978 -0.67383,0.45508 0,0.375 0.59961,0.44922 3.59961,0.44922 3,0 3.59961,-0.0742 3.59961,-0.44922 0,-0.2475 -0.25469,-0.45117 -0.56641,-0.45117 -1.23927,0 -1.85405,-1.11952 -4.77539,-8.69922 -2.35081,-6.09941 -3.06716,-7.66532 -3.52929,-7.72852 z m -0.69532,4.04492 c 0.26504,0.26781 2.36719,5.69292 2.36719,6.10938 0,0.28634 -4.58155,0.39306 -4.86133,0.11328 -0.0881,-0.0881 0.3848,-1.57657 1.05078,-3.30859 0.66599,-1.73201 1.31583,-3.04293 1.44336,-2.91407 z"
           id="path4243" />
        <path
           inkscape:connector-curvature="0"
           style="fill:#000000"
           d="m 305.54288,342.67175 c 0,-0.23439 0.391,-0.51204 0.86889,-0.61701 1.77849,-0.39062 1.9159,-0.83692 2.05806,-6.68435 0.15868,-6.52662 -0.0541,-7.43318 -1.95195,-8.31471 -2.07564,-0.96413 -1.67711,-1.39622 1.19429,-1.2949 l 2.46929,0.0871 4.80571,6.52518 4.80571,6.52517 0.0821,-4.91202 c 0.0478,-2.86067 -0.047,-5.25158 -0.22706,-5.72512 -0.20394,-0.5364 -0.71679,-0.97322 -1.50708,-1.28366 -0.65887,-0.25881 -1.19794,-0.65258 -1.19794,-0.87505 0,-0.31588 0.75583,-0.4045 3.45,-0.4045 2.8918,0 3.45,0.074 3.45,0.4575 0,0.26954 -0.37419,0.53234 -0.91077,0.63966 -1.71935,0.34387 -1.78923,0.69029 -1.78923,8.8696 0,7.23673 -0.0159,7.43324 -0.60085,7.43324 -0.43546,0 -2.02507,-1.91902 -5.775,-6.97175 l -5.17415,-6.97175 -0.099,1.19675 c -0.0545,0.65821 -0.0545,3.2416 0,5.74086 0.10915,5.00779 0.30638,5.57314 2.08015,5.96272 0.47789,0.10497 0.8689,0.38262 0.8689,0.61701 0,0.34351 -0.6691,0.42616 -3.45,0.42616 -2.78091,0 -3.45,-0.0827 -3.45,-0.42616 z"
           id="path4239" />
        <path
           inkscape:connector-curvature="0"
           style="fill:#000000"
           d="m 337.47266,325.76953 c -0.49723,-0.068 -0.9839,0.97646 -3.42383,7.34961 -2.90353,7.58407 -3.73994,9.07813 -5.08203,9.07813 -0.35384,0 -0.62305,0.19562 -0.62305,0.45117 0,0.3727 0.56549,0.44922 3.29883,0.44922 2.73333,0 3.30078,-0.0765 3.30078,-0.44922 0,-0.27006 -0.27767,-0.45117 -0.69336,-0.45117 -0.38097,0 -0.94145,-0.18154 -1.24609,-0.4043 -0.63142,-0.46171 -0.54592,-1.69274 0.25,-3.59766 l 0.46679,-1.11914 3.05664,0.0859 3.05469,0.0859 0.78125,2.18554 c 0.84519,2.36706 0.73478,2.74937 -0.79492,2.75977 -0.39796,0.003 -0.67578,0.18978 -0.67578,0.45508 0,0.375 0.59961,0.44922 3.59961,0.44922 3,0 3.60156,-0.0742 3.60156,-0.44922 0,-0.2475 -0.25663,-0.45117 -0.56836,-0.45117 -1.23927,0 -1.85406,-1.11952 -4.77539,-8.69922 -2.35081,-6.09941 -3.06521,-7.66532 -3.52734,-7.72852 z m -0.69727,4.04492 c 0.26504,0.26781 2.36719,5.69292 2.36719,6.10938 0,0.28634 -4.5796,0.39306 -4.85938,0.11328 -0.0881,-0.0881 0.38479,-1.57657 1.05078,-3.30859 0.66598,-1.73201 1.31388,-3.04293 1.44141,-2.91407 z"
           id="path4237" />
        <path
           inkscape:connector-curvature="0"
           style="fill:#000000"
           d="m 366.12109,325.76367 c -1.98732,0.0459 -3.718,0.19993 -3.79492,0.43164 -0.0634,0.19122 0.29763,0.43789 0.80274,0.54883 0.50514,0.11094 1.05317,0.45207 1.21679,0.75781 0.17082,0.31916 0.29688,3.36603 0.29688,7.1543 0,7.16011 -0.0849,7.54102 -1.67188,7.54102 -0.46839,0 -0.72851,0.17331 -0.72851,0.48242 0,0.4269 0.54654,0.46569 4.875,0.3457 5.38974,-0.1494 6.8109,-0.48597 8.71875,-2.05859 1.73877,-1.43326 2.6671,-3.27869 2.83594,-5.63868 0.35906,-5.01846 -2.27511,-8.43094 -7.2129,-9.34374 -1.10568,-0.2044 -3.35057,-0.26662 -5.33789,-0.22071 z m 2.82813,1.08203 c 4.50918,0.119 6.7757,2.74115 6.7832,7.85157 0.006,3.87406 -1.2136,6.14578 -3.79492,7.0664 -2.03448,0.72559 -3.96015,0.41892 -4.57422,-0.72851 -0.19908,-0.37195 -0.32031,-3.15081 -0.32031,-7.36719 l 0,-6.76953 0.97461,-0.0449 c 0.32054,-0.0143 0.63103,-0.0158 0.93164,-0.008 z"
           id="path4233" />
        <path
           inkscape:connector-curvature="0"
           style="fill:#000000"
           d="m 385.64288,342.64795 c 0,-0.27647 0.28095,-0.45 0.72858,-0.45 1.58559,0 1.67142,-0.38491 1.67142,-7.49689 0,-3.60472 -0.0794,-6.76105 -0.17652,-7.01406 -0.0971,-0.25302 -0.63711,-0.61203 -1.2,-0.7978 -0.56292,-0.18578 -1.02348,-0.52981 -1.02348,-0.76451 0,-0.35605 1.09326,-0.42674 6.6,-0.42674 l 6.6,0 0,2.1 c 0,2.5081 -0.37875,2.69306 -1.55247,0.75815 -0.94128,-1.55168 -2.22867,-2.04189 -4.98393,-1.89778 l -1.7136,0.0896 0,3.45 0,3.45 1.61379,-0.0149 c 1.37961,-0.0127 1.71699,-0.13489 2.325,-0.84173 0.39117,-0.45475 0.71121,-1.0893 0.71121,-1.4101 0,-0.3208 0.2025,-0.58327 0.45,-0.58327 0.37272,0 0.45,0.56667 0.45,3.3 0,2.73333 -0.0773,3.3 -0.45,3.3 -0.2475,0 -0.45,-0.25179 -0.45,-0.55954 0,-0.30775 -0.27981,-0.91525 -0.62178,-1.35 -0.54678,-0.69511 -0.83628,-0.79046 -2.4,-0.79046 l -1.77822,0 0,3.09266 c 0,4.1779 0.0663,4.25734 3.55248,4.25734 2.43147,0 2.77527,-0.071 3.46038,-0.71487 0.41838,-0.39318 1.0029,-1.30392 1.29891,-2.02387 0.753,-1.83133 1.28823,-1.70616 1.28823,0.30124 0,0.88688 -0.0844,2.03438 -0.1875,2.55 l -0.1875,0.9375 -7.0125,0 c -6.03333,1e-5 -7.0125,-0.0628 -7.0125,-0.44999 z"
           id="path4229" />
        <path
           inkscape:connector-curvature="0"
           style="fill:#000000"
           d="m 68.303555,315.12295 0.08931,-1.875 166.275005,-0.0753 166.27501,-0.0753 0,1.95026 0,1.95027 -166.36432,0 -166.364326,0 0.08932,-1.875 z"
           id="path4227" />
      </g>
      <path
         inkscape:connector-curvature="0"
         id="path4225"
         d="m 36.807834,905.18217 c -3.828168,-0.44495 -8.399997,-2.1963 -11.861523,-4.54386 -3.608502,-2.44723 -7.450724,-7.34132 -9.393367,-11.96496 -3.110525,-7.40327 -3.493311,-17.21433 -0.982202,-25.17447 3.27103,-10.36906 10.941378,-17.57237 20.895855,-19.62353 1.385676,-0.28553 3.804819,-0.47647 6.036534,-0.47647 4.528632,0 8.249714,0.83641 11.941304,2.6841 1.33611,0.66874 2.46833,1.2159 2.51604,1.2159 0.0477,0 0.44278,-0.6075 0.87791,-1.35 0.78068,-1.33212 0.81232,-1.35 2.38977,-1.35 l 1.59862,0 0.18351,2.325 c 0.10094,1.27875 0.21053,6.0375 0.24353,10.575 l 0.06,8.25 -1.55409,0.0907 c -1.79864,0.10492 -1.58191,0.41529 -3.032,-4.34173 -2.55628,-8.38587 -6.68052,-13.18812 -12.346967,-14.37678 -6.773049,-1.42078 -14.106429,2.34876 -17.586885,9.04012 -2.668227,5.1298 -3.784974,10.32921 -3.799026,17.68774 -0.01032,5.40574 0.475473,8.56974 1.926075,12.54448 4.380855,12.00383 15.555975,17.35099 25.922773,12.40372 3.56275,-1.70022 6.90277,-5.28094 8.75424,-9.38513 0.43744,-0.96969 0.82939,-1.80589 0.871,-1.85824 0.0416,-0.0523 0.76186,0.25256 1.60056,0.67756 l 1.52492,0.77274 -0.75215,1.70073 c -1.70865,3.86355 -4.64284,7.76474 -7.42695,9.87456 -3.49343,2.64735 -7.35145,4.06555 -12.549038,4.613 -3.110286,0.3276 -3.153393,0.32753 -6.058443,-0.0101 z"
         style="fill:#000000" />
      <path
         inkscape:connector-curvature="0"
         id="path4223"
         d="m 152.45981,843.17988 c -0.77813,0.0322 -1.54807,0.0993 -2.30469,0.19921 -9.56942,1.26428 -17.26059,6.8759 -21.60937,15.76954 -2.5297,5.17342 -3.69307,11.12106 -3.32422,16.98632 0.99545,15.82914 10.62281,27.18189 24.63281,29.04688 5.02796,0.66931 11.14159,-0.25985 15.67187,-2.38281 3.42497,-1.605 5.8061,-3.36282 8.64649,-6.38086 4.7094,-5.00393 7.2092,-10.86691 7.94337,-18.63477 1.22832,-12.99627 -4.13463,-24.8348 -13.92578,-30.74023 -4.43946,-2.67762 -10.28362,-4.08851 -15.73047,-3.86328 z m 1.15625,3.82226 c 4.94594,-0.006 8.04554,1.1928 11.24804,4.34766 1.00494,0.99 2.3337,2.64235 2.95313,3.67187 5.36655,8.91936 5.83352,26.71852 0.95703,36.52735 -2.39598,4.81939 -5.19647,7.55297 -9.39844,9.17383 -2.26075,0.87203 -7.80999,1.09998 -10.24023,0.41992 -6.42504,-1.79794 -11.0259,-7.78385 -12.92383,-16.81446 -0.90034,-4.284 -1.12383,-11.76561 -0.49414,-16.51367 0.99289,-7.48665 3.08598,-12.59608 6.63477,-16.20117 3.33306,-3.38592 6.30986,-4.60533 11.26367,-4.61133 z"
         style="fill:#000000" />
      <path
         inkscape:connector-curvature="0"
         id="path4219"
         d="m 326.70425,904.63184 c -2.77992,-0.61699 -5.60235,-1.6173 -8.01996,-2.84239 l -1.54869,-0.78478 -0.84066,1.4968 -0.84069,1.4968 -1.692,3e-4 -1.692,3e-4 -0.1866,-6.225 c -0.10263,-3.42375 -0.26667,-8.02091 -0.36459,-10.21591 l -0.17799,-3.99092 1.73061,0.0909 1.73061,0.0909 0.81306,2.4 c 2.2875,6.75213 5.62041,11.35072 9.86724,13.61425 4.83072,2.57475 11.64609,2.34685 15.2532,-0.51003 3.99168,-3.16147 4.39947,-10.47591 0.85335,-15.30668 -1.62066,-2.20781 -3.67038,-3.4127 -9.78489,-5.75195 -6.78339,-2.59515 -11.08722,-4.66826 -12.97875,-6.25174 -3.99183,-3.34171 -5.62125,-6.90581 -5.62125,-12.29558 0,-4.53058 1.32198,-7.66825 4.64487,-11.02453 3.54546,-3.58108 7.98762,-5.33001 13.50513,-5.31714 4.27461,0.01 6.59409,0.72047 12.81858,3.92655 0.12021,0.0619 0.59172,-0.50521 1.04781,-1.26028 l 0.82923,-1.37286 1.72719,0 1.72719,0 0,4.45191 c 0,2.44855 0.0891,6.91093 0.19794,9.9164 l 0.19794,5.46449 -1.73628,-0.0914 -1.73625,-0.0914 -1.10424,-3.45 c -2.19741,-6.86538 -5.00232,-10.83078 -8.98461,-12.70183 -1.72239,-0.80926 -2.38743,-0.94773 -5.03517,-1.04842 -2.80034,-0.10648 -3.19425,-0.0504 -4.8,0.6828 -2.01645,0.92079 -3.77037,2.49644 -4.69461,4.21745 -0.52104,0.97022 -0.64542,1.717 -0.64956,3.9 -0.007,3.42352 0.61737,5.13393 2.66085,7.29462 1.87143,1.97875 3.91788,3.12407 9.48399,5.30781 9.01164,3.53552 11.7177,4.9655 14.57934,7.70422 3.10299,2.96971 4.32066,6.03973 4.32066,10.89335 0,4.18149 -1.00785,7.32827 -3.35073,10.46198 -2.31066,3.09062 -6.49428,5.82636 -10.59927,6.93106 -2.87928,0.77485 -8.49825,0.86725 -11.55,0.18992 z"
         style="fill:#000000" />
      <path
         inkscape:connector-curvature="0"
         id="path4217"
         d="m 72.604245,902.53011 0,-1.46878 2.475,-0.21052 c 1.36125,-0.11579 3.05331,-0.46177 3.76013,-0.76884 2.26943,-0.98593 2.16487,0.24585 2.16487,-25.50311 0,-25.14568 0.0705,-24.1773 -1.84369,-25.30807 -1.00019,-0.59083 -4.76677,-1.65828 -5.88131,-1.66677 -0.60931,-0.005 -0.675,-0.15111 -0.675,-1.50514 l 0,-1.5 23.25,0 23.249995,0 0,7.36568 0,7.36568 -1.51695,-0.0907 -1.51696,-0.0907 -0.72813,-1.7953 c -1.40546,-3.46538 -5.09579,-8.0011 -7.25468,-8.91663 -0.54962,-0.23308 -3.76935,-0.39411 -9.458275,-0.47306 l -8.625,-0.11969 0,11.87734 0,11.87734 5.06228,0 c 5.482395,0 6.780785,-0.25145 8.646485,-1.67449 0.54999,-0.41949 1.3294,-1.4128 1.73203,-2.20734 0.65767,-1.29786 0.93052,-2.18934 1.4976,-4.89317 0.16075,-0.76642 0.27914,-0.825 1.66732,-0.825 l 1.49428,0 0,11.7 0,11.7 -1.49428,0 c -1.38818,0 -1.50657,-0.0586 -1.66732,-0.825 -0.90959,-4.33689 -1.62961,-6.02621 -3.15639,-7.40556 -1.75668,-1.58706 -3.51118,-1.96944 -9.036455,-1.96944 l -4.74555,0 6e-4,10.875 c 3e-4,9.75642 0.0544,10.98195 0.525,11.9148 0.7134,1.41419 1.85385,1.99731 5.11025,2.61291 l 2.76429,0.52256 0,1.43737 0,1.43736 -12.9,0 -12.9,0 0,-1.46877 z"
         style="fill:#000000" />
      <path
         inkscape:connector-curvature="0"
         id="path4215"
         d="m 186.60434,844.56464 0.002,1.44336 0,1.44141 2.77344,0.53125 c 2.88425,0.55333 4.01498,1.12471 4.64844,2.34765 0.291,0.56103 0.35602,5.96025 0.29882,24.32618 l -0.0723,23.60546 -0.88672,0.92383 c -0.96124,1.00322 -1.99558,1.35628 -4.88867,1.66992 l -1.875,0.20313 0,1.4707 0,0.002 0,1.46875 12.44922,0 12.45118,0 0,-1.44532 0,-1.44531 -2.55275,-0.33984 c -1.40354,-0.18779 -2.99062,-0.55 -3.52734,-0.80469 -1.88164,-0.89288 -1.86077,-0.7668 -1.95898,-12.40039 l -0.0898,-10.58399 3.08985,0.084 3.08789,0.0859 4.40625,5.84961 c 2.42291,3.2175 6.67442,9.25832 9.44923,13.42382 l 5.04492,7.57422 8.02539,0.002 8.02539,0 0,-1.44532 0,-1.44726 -2.12109,-0.32813 c -4.47699,-0.69297 -6.86697,-2.63091 -12.1211,-9.82812 -1.80681,-2.475 -5.21493,-7.0808 -7.57226,-10.23438 -2.35733,-3.15359 -4.28516,-5.80849 -4.28516,-5.90039 0,-0.0919 0.70797,-0.40128 1.57422,-0.68555 4.01153,-1.31641 7.9426,-3.75436 9.76758,-6.05859 3.15443,-3.98279 3.87694,-10.75264 1.64062,-15.37109 -1.12942,-2.33249 -3.41576,-4.50608 -6.10351,-5.79883 -4.38017,-2.10678 -4.30778,-2.09827 -22.4043,-2.22266 l -16.27539,-0.11328 z m 16.80078,3.33399 4.14453,0 c 2.27969,0 4.94024,0.14813 5.91406,0.32812 4.32315,0.79917 7.1934,3.39579 8.40235,7.60156 0.68629,2.38749 0.48421,7.13668 -0.40039,9.41407 -1.26854,3.26585 -4.01018,5.95415 -7.56055,7.41015 -1.0441,0.42819 -2.38742,0.58254 -5.92577,0.68164 l -4.57423,0.12891 0,-12.7832 0,-12.78125 z"
         style="fill:#000000" />
      <path
         inkscape:connector-curvature="0"
         id="path4211"
         d="m 250.80425,902.5379 0,-1.46075 2.73785,-0.35112 c 2.90573,-0.37265 3.94582,-0.75965 4.91286,-1.82806 0.5867,-0.64819 0.60099,-1.15056 0.67973,-23.89893 0.0887,-25.62917 0.16067,-24.58557 -1.77412,-25.72848 -1.0002,-0.59083 -4.76678,-1.65828 -5.88131,-1.66677 -0.60932,-0.005 -0.675,-0.15108 -0.675,-1.50511 l 0,-1.5 22.95,0 22.95,0 0,7.2 0,7.2 -1.425,-0.01 -1.425,-0.01 -1.25248,-2.61509 c -1.4123,-2.94888 -3.57287,-5.78572 -5.35129,-7.02635 -1.73867,-1.21291 -3.58112,-1.43876 -11.73719,-1.43876 l -7.30905,0 0,11.88837 0,11.88837 5.025,-0.13548 c 5.7021,-0.15374 7.00012,-0.51558 8.66924,-2.41663 0.99645,-1.13491 2.02369,-3.54616 2.54369,-5.97083 l 0.31179,-1.4538 1.47513,0 1.47515,0 0,11.7 0,11.7 -1.48641,0 c -1.48415,0 -1.48669,-0.002 -1.67473,-1.125 -0.47027,-2.80928 -1.71261,-5.84874 -2.85927,-6.99541 -1.6957,-1.6957 -3.33936,-2.07959 -8.90395,-2.07959 l -4.61545,0 0.0949,11.025 c 0.09,10.45517 0.12647,11.07872 0.70552,12.06439 1.03454,1.76099 2.08593,2.15436 6.65717,2.49075 4.7516,0.34967 11.74585,-0.0635 13.91016,-0.82174 0.75787,-0.2655 1.79723,-0.91601 2.30972,-1.44556 1.24758,-1.28917 3.52497,-5.12519 5.16378,-8.6978 l 1.33713,-2.91504 1.47498,0 1.47498,0 -0.1821,2.475 c -0.10014,1.36125 -0.34917,5.27625 -0.55341,8.7 l -0.37131,6.225 -24.69085,0 -24.69086,0 0,-1.46075 z"
         style="fill:#000000" />
      <path
         id="path4351"
         d="m 222.81352,818.27388 c -2.59555,-6.39375 -4.71696,-11.8239 -4.71423,-12.06699 0.003,-0.2431 2.52972,-6.76632 5.61555,-14.49606 3.81395,-9.55365 5.6755,-13.8792 5.8133,-13.50801 0.1115,0.30033 4.7569,11.75106 10.32312,25.44606 5.56622,13.695 10.2369,25.20375 10.37928,25.575 l 0.25887,0.675 -11.47836,0 -11.47834,0 -4.71918,-11.625 z"
         style="fill:#217821;fill-opacity:1"
         inkscape:connector-curvature="0" />
      <path
         id="path4349"
         d="m 164.37244,814.97388 c 3.24259,-8.20875 9.1311,-23.12092 13.08557,-33.13814 3.95448,-10.01723 7.28279,-18.11723 7.39624,-18 0.19356,0.19999 25.41378,63.93029 25.87628,65.38814 l 0.21415,0.675 -26.23393,0 -26.23393,0 5.89563,-14.925 z"
         style="fill:#165016;fill-opacity:1"
         inkscape:connector-curvature="0" />
      <path
         id="path4347"
         d="m 129.32051,804.09313 c 5.90694,-14.19699 10.78697,-25.95395 10.84452,-26.12657 0.0575,-0.17262 2.64672,6.04425 5.75377,13.81525 l 5.64914,14.12911 -4.95146,11.91898 -4.95145,11.91898 -11.54222,0.0785 -11.5422,0.0785 10.7399,-25.81272 z"
         style="fill:#217821;fill-opacity:1"
         inkscape:connector-curvature="0" />
      <path
         id="path4201"
         d="m 15.36493,828.02368 0.08931,-1.875 43.767005,0 43.767005,0 17.14963,-41.1 c 11.63938,-27.8944 17.40321,-41.36508 17.93886,-41.925 1.10299,-1.15297 2.87266,-1.15297 4.08682,0 0.65483,0.62182 2.73918,5.27845 8.46338,18.90793 4.33824,10.32951 7.68431,17.91874 7.80388,17.7 0.11511,-0.21062 5.50279,-13.14043 11.97261,-28.73293 9.15201,-22.05671 11.95721,-28.53314 12.63678,-29.175 1.13229,-1.06943 2.88422,-1.13539 3.98377,-0.15 0.54602,0.48933 3.93473,8.50251 12.31959,29.13175 6.36151,15.65121 11.66635,28.63118 11.78854,28.84438 0.13346,0.23291 3.02503,-6.27586 7.24437,-16.30675 8.53036,-20.27971 8.51785,-20.25244 9.49054,-20.69562 1.03199,-0.47021 2.09265,-0.43893 3.11931,0.092 0.69387,0.35881 1.14327,1.15346 2.41769,4.275 0.86096,2.10884 8.46947,20.77676 16.9078,41.48426 l 15.34242,37.65 41.175,-0.11851 41.17501,-0.11851 0,1.99454 0,1.99454 -42.46792,-0.076 -42.4679,-0.076 -16.44353,-40.35 c -9.04394,-22.1925 -16.63421,-40.80946 -16.86725,-41.37102 l -0.42372,-1.02101 -8.98985,21.34141 c -4.94441,11.73778 -9.05735,21.33961 -9.13985,21.33739 -0.0825,-0.002 -5.93973,-14.27639 -13.01608,-31.7204 -7.07634,-17.44401 -12.94922,-31.81125 -13.05083,-31.9272 -0.10161,-0.11596 -6.11198,14.05904 -13.35638,31.5 -7.2444,17.44095 -13.26184,31.81564 -13.37208,31.94374 -0.11024,0.1281 -4.24013,-9.3486 -9.17753,-21.05934 -4.93741,-11.71073 -9.06313,-21.19804 -9.16828,-21.0829 -0.10516,0.11513 -7.92963,18.73808 -17.38773,41.38433 l -17.19654,41.175 -45.101585,0 -45.101586,0 0.08932,-1.875 z"
         style="fill:#000000"
         inkscape:connector-curvature="0" />
    </g>
  </g>
</svg>
