<?xml version="1.0" encoding="UTF-8" standalone="no"?>
<!-- Created with Inkscape (http://www.inkscape.org/) -->

<svg
   xmlns:dc="http://purl.org/dc/elements/1.1/"
   xmlns:cc="http://creativecommons.org/ns#"
   xmlns:rdf="http://www.w3.org/1999/02/22-rdf-syntax-ns#"
   xmlns:svg="http://www.w3.org/2000/svg"
   xmlns="http://www.w3.org/2000/svg"
   xmlns:sodipodi="http://sodipodi.sourceforge.net/DTD/sodipodi-0.dtd"
   xmlns:inkscape="http://www.inkscape.org/namespaces/inkscape"
   width="89.358574mm"
   height="48.619408mm"
   viewBox="0 0 316.62487 172.27349"
   id="svg5877"
   version="1.1"
   inkscape:version="0.91 r13725"
   sodipodi:docname="coodes.svg">
  <defs
     id="defs5879" />
  <sodipodi:namedview
     id="base"
     pagecolor="#ffffff"
     bordercolor="#666666"
     borderopacity="1.0"
     inkscape:pageopacity="0.0"
     inkscape:pageshadow="2"
     inkscape:zoom="1.979899"
     inkscape:cx="162.16418"
     inkscape:cy="105.49266"
     inkscape:document-units="px"
     inkscape:current-layer="layer1"
     showgrid="false"
     fit-margin-top="0"
     fit-margin-left="0"
     fit-margin-right="0"
     fit-margin-bottom="0"
     inkscape:window-width="1364"
     inkscape:window-height="747"
     inkscape:window-x="0"
     inkscape:window-y="0"
     inkscape:window-maximized="1" />
  <metadata
     id="metadata5882">
    <rdf:RDF>
      <cc:Work
         rdf:about="">
        <dc:format>image/svg+xml</dc:format>
        <dc:type
           rdf:resource="http://purl.org/dc/dcmitype/StillImage" />
        <dc:title />
      </cc:Work>
    </rdf:RDF>
  </metadata>
  <g
     inkscape:label="Layer 1"
     inkscape:groupmode="layer"
     id="layer1"
     transform="translate(-61.687554,-417.65403)">
    <path
       inkscape:connector-curvature="0"
       style="fill:#000000"
       d="m 68.64475,588.10773 0,-1.81979 153.62078,0 153.6205,0 0,1.81979 0,1.81979 -153.6205,0 -153.62078,0 0,-1.81979 z"
       id="path4436" />
    <path
       inkscape:connector-curvature="0"
       style="fill:#000000"
       d="m 170.15583,578.71367 c -1.2287,-0.48002 -1.485,-0.50176 -1.6248,-0.13739 -0.091,0.23788 -0.4243,0.4325 -0.7401,0.4325 -0.5251,0 -0.5741,-0.25932 -0.5741,-3.03298 0,-3.60976 0.3758,-3.9172 1.5476,-1.26597 1.0704,2.42194 2.5066,3.50441 4.6769,3.52524 1.8562,0.0182 2.9851,-0.76523 3.2882,-2.28071 0.4179,-2.09003 -0.8124,-3.51796 -4.1482,-4.81456 -3.8439,-1.49415 -4.7579,-2.49645 -4.7579,-5.21713 0,-1.43723 0.1386,-1.8937 0.8214,-2.70532 0.9664,-1.14849 2.8718,-2.0872 4.2555,-2.0965 0.5404,0 1.6547,0.2487 2.4762,0.5609 1.3233,0.50276 1.5454,0.51601 1.9457,0.11575 0.8287,-0.82871 1.1166,-0.13436 1.1166,2.69309 0,2.37847 -0.065,2.7213 -0.5006,2.63597 -0.2753,-0.0536 -0.6852,-0.63167 -0.9107,-1.28376 -1.0076,-2.91268 -3.2093,-4.30411 -5.3774,-3.39816 -1.1965,0.49984 -1.7036,1.26476 -1.7036,2.56914 0,1.37485 1.2371,2.59745 3.5634,3.5217 4.6725,1.85619 5.6914,2.95575 5.4777,5.91038 -0.1531,2.11631 -0.8234,3.09637 -2.8072,4.10413 -1.825,0.92698 -3.9251,0.984 -6.0246,0.16368 z"
       id="path4438" />
    <path
       inkscape:connector-curvature="0"
       style="fill:#000000"
       d="m 285.80573,561.26562 c -1.9599,10e-5 -2.5011,0.12648 -3.9176,0.9103 -2.8785,1.59302 -4.4268,4.48032 -4.3916,8.18865 0.035,3.7143 1.8558,6.8408 4.8043,8.24396 1.2796,0.60892 1.9145,0.71376 3.8326,0.63986 1.9386,-0.0748 2.5313,-0.23223 3.7814,-1.00514 2.8123,-1.73881 4.1586,-4.28014 4.1821,-7.89243 0.016,-2.49119 -0.5486,-4.31816 -1.8719,-6.05019 -1.6271,-2.12977 -3.5434,-3.03501 -6.4193,-3.03501 z m 0.1204,0.88856 c 1.0713,0.0414 2.1536,0.50237 3.0982,1.41782 1.5574,1.50962 2.089,3.24024 2.089,6.79257 0,2.76346 -0.079,3.19555 -0.9083,4.85359 -0.7371,1.47433 -1.1684,1.94899 -2.2648,2.5018 -2.9737,1.49951 -5.5857,0.28541 -7.0138,-3.26005 -0.2734,-0.67868 -0.4285,-2.21125 -0.4285,-4.24729 0,-2.87355 0.083,-3.35347 0.8491,-4.91283 1.0379,-2.11348 2.7936,-3.21375 4.5791,-3.14561 z"
       id="path4440" />
    <path
       inkscape:connector-curvature="0"
       style="fill:#000000"
       d="m 368.00023,561.26562 c -1.9599,10e-5 -2.5031,0.12648 -3.9196,0.9103 -2.8784,1.59302 -4.4266,4.48032 -4.3914,8.18865 0.035,3.7143 1.8577,6.8408 4.8061,8.24396 1.2795,0.60892 1.9146,0.71376 3.8327,0.63986 1.9386,-0.0748 2.5293,-0.23223 3.7794,-1.00514 2.8124,-1.73881 4.1605,-4.28014 4.1841,-7.89243 0.016,-2.49119 -0.5486,-4.31816 -1.8718,-6.05019 -1.6272,-2.12977 -3.5435,-3.03501 -6.4195,-3.03501 z m 0.1205,0.88856 c 1.0713,0.0414 2.1536,0.50237 3.0982,1.41782 1.5574,1.50962 2.0891,3.24024 2.0891,6.79257 0,2.76346 -0.081,3.19555 -0.9103,4.85359 -0.7372,1.47433 -1.1665,1.94899 -2.2629,2.5018 -2.9737,1.49951 -5.5857,0.28541 -7.0138,-3.26005 -0.2734,-0.67868 -0.4285,-2.21125 -0.4285,-4.24729 0,-2.87355 0.083,-3.35347 0.8491,-4.91283 1.0378,-2.11348 2.7934,-3.21375 4.5791,-3.14561 z"
       id="path4442" />
    <path
       inkscape:connector-curvature="0"
       style="fill:#000000"
       d="m 68.64475,578.55383 c 0,-0.28621 0.28864,-0.45495 0.77816,-0.45495 1.73335,0 1.95152,-0.37962 1.95152,-3.39633 l 0,-2.76831 -2.00682,-3.81772 c -2.12643,-4.04539 -3.14733,-5.3977 -4.29147,-5.68492 -0.38721,-0.0971 -0.6526,-0.331 -0.58971,-0.51955 0.16903,-0.50711 7.24923,-0.47254 7.41878,0.0364 0.0748,0.22484 -0.13881,0.37912 -0.52542,0.37912 -0.3585,0 -0.92182,0.14447 -1.25181,0.32109 -0.57142,0.30573 -0.50894,0.49448 1.30893,3.95572 l 1.90896,3.63463 0.6066,-0.76431 c 1.19601,-1.50699 3.55112,-5.93839 3.38552,-6.37008 -0.093,-0.24213 -0.65978,-0.53239 -1.2597,-0.64491 -2.04818,-0.38428 -0.9841,-0.88685 2.0691,-0.97723 2.4275,-0.0718 2.93259,-0.0101 2.93259,0.36254 0,0.24719 -0.37002,0.62742 -0.82234,0.84509 -1.04456,0.50267 -2.53932,2.49059 -4.5612,6.06637 l -1.59232,2.81603 0,2.91126 c 0,2.82543 0.0232,2.92167 0.7725,3.26329 0.42492,0.1936 1.0391,0.35203 1.36484,0.35203 0.32585,0 0.59234,0.20472 0.59234,0.45494 0,0.38186 -0.65714,0.45495 -4.09452,0.45495 -3.43739,0 -4.09453,-0.0728 -4.09453,-0.45495 z"
       id="path4444" />
    <path
       inkscape:connector-curvature="0"
       style="fill:#000000"
       d="m 113.51006,561.48288 c -2.00915,0.0465 -3.75695,0.20412 -3.8347,0.43837 -0.0637,0.1933 0.30087,0.44271 0.81163,0.55483 0.51065,0.11212 1.06276,0.45707 1.22815,0.76614 0.17268,0.32271 0.30209,3.403 0.30209,7.23296 0,7.23882 -0.0859,7.62391 -1.69018,7.62391 -0.47355,0 -0.73661,0.17328 -0.73661,0.48578 0,0.43159 0.55251,0.47082 4.9286,0.3495 5.44906,-0.15104 6.88386,-0.48932 8.81264,-2.07921 1.75791,-1.44906 2.69642,-3.31677 2.86718,-5.70272 0.36304,-5.07358 -2.30012,-8.52167 -7.29221,-9.44451 -1.11785,-0.20665 -3.38744,-0.27145 -5.39659,-0.22505 z m 2.86122,1.0939 c 4.55878,0.12031 6.8502,2.77326 6.85778,7.93985 0,3.91669 -1.22694,6.21145 -3.83662,7.14217 -2.05687,0.73358 -4.00567,0.4235 -4.62652,-0.73651 -0.20129,-0.37609 -0.32382,-3.18544 -0.32382,-7.4482 l 0,-6.84393 0.98724,-0.0435 c 0.32412,-0.0142 0.63804,-0.0182 0.94194,-0.0101 z"
       id="path4446" />
    <path
       inkscape:connector-curvature="0"
       style="fill:#000000"
       d="m 139.61668,578.55373 c 0,-0.27944 0.28399,-0.45495 0.73651,-0.45495 1.60304,0 1.68984,-0.38913 1.68984,-7.57922 0,-3.64444 -0.08,-6.83544 -0.1785,-7.09122 -0.098,-0.25578 -0.6441,-0.61873 -1.2132,-0.80657 -0.56909,-0.18784 -1.03465,-0.53563 -1.03465,-0.77291 0,-0.36001 1.10522,-0.43149 6.67255,-0.43149 l 6.6726,0 0,2.12309 c 0,2.53568 -0.383,2.72271 -1.5696,0.76654 -0.9516,-1.56876 -2.2532,-2.06435 -5.0387,-1.91867 l -1.7324,0.091 0,3.48793 0,3.48793 1.6314,-0.0152 c 1.3948,-0.0131 1.7359,-0.13639 2.3506,-0.85096 0.3955,-0.4598 0.7191,-1.10127 0.7191,-1.4256 0,-0.32433 0.2047,-0.58971 0.4549,-0.58971 0.3768,0 0.455,0.57293 0.455,3.33628 0,2.76335 -0.078,3.33628 -0.455,3.33628 -0.2502,0 -0.4549,-0.25457 -0.4549,-0.56565 0,-0.31118 -0.2829,-0.92536 -0.6286,-1.36484 -0.5529,-0.70274 -0.8455,-0.79919 -2.4264,-0.79919 l -1.7978,0 0,3.1267 c 0,4.22383 0.067,4.30411 3.5915,4.30411 2.4582,0 2.8058,-0.0718 3.4984,-0.72266 0.423,-0.39752 1.014,-1.31834 1.3132,-2.04615 0.7613,-1.85144 1.3025,-1.72496 1.3025,0.30451 0,0.89665 -0.085,2.05677 -0.1896,2.57803 l -0.1896,0.94781 -7.0896,0 c -6.09969,0 -7.08955,-0.0637 -7.08955,-0.45495 z"
       id="path4448" />
    <path
       inkscape:connector-curvature="0"
       style="fill:#000000"
       d="m 199.49793,561.48875 c -0.5027,-0.0688 -0.9947,0.98723 -3.4615,7.4305 -2.9354,7.66739 -3.783,9.17984 -5.1399,9.17984 -0.3577,0 -0.6298,0.19583 -0.6298,0.45414 0,0.37689 0.5736,0.45616 3.3371,0.45616 2.7633,0 3.337,-0.0789 3.337,-0.45616 0,-0.27297 -0.2807,-0.45414 -0.701,-0.45414 -0.3852,0 -0.9518,-0.18552 -1.2598,-0.41067 -0.6383,-0.46678 -0.5519,-1.70939 0.2528,-3.63523 l 0.4719,-1.13151 3.0883,0.0869 3.0902,0.0849 0.7879,2.21155 c 0.8545,2.39313 0.7448,2.77963 -0.8017,2.79014 -0.4023,0 -0.6832,0.18987 -0.6832,0.45809 0,0.37912 0.6062,0.45616 3.6392,0.45616 3.033,0 3.6392,-0.0768 3.6392,-0.45616 0,-0.25022 -0.2575,-0.45414 -0.5727,-0.45414 -1.2529,0 -1.8744,-1.13383 -4.8279,-8.79687 -2.3766,-6.16646 -3.0989,-7.74958 -3.5661,-7.81347 z m -0.7049,4.08947 c 0.2679,0.27074 2.3932,5.75549 2.3932,6.17647 0,0.28955 -4.6299,0.39944 -4.9128,0.11657 -0.089,-0.089 0.389,-1.59596 1.0623,-3.347 0.6734,-1.75104 1.3284,-3.07636 1.4573,-2.94604 z"
       id="path4450" />
    <path
       inkscape:connector-curvature="0"
       style="fill:#000000"
       d="m 222.73303,561.42556 c -2.0448,-0.0152 -2.4386,0.0839 -2.4386,0.37912 0,0.25144 0.3735,0.55059 0.8313,0.66544 1.6049,0.40288 1.5954,0.35001 1.5954,7.75827 0,7.50664 -0.079,7.8707 -1.6902,7.8707 -0.4526,0 -0.7365,0.1747 -0.7365,0.45414 0,0.37912 0.6062,0.45616 3.6392,0.45616 3.033,0 3.6392,-0.0768 3.6392,-0.45616 0,-0.27944 -0.284,-0.45414 -0.7365,-0.45414 -1.3999,0 -1.6903,-0.68101 -1.6903,-3.96492 l 0,-3.01135 1.009,0 c 0.9288,0 1.1795,0.23617 3.1376,2.95797 1.1701,1.62649 2.3827,3.39916 2.6954,3.94136 0.5644,0.97864 0.5854,0.98724 2.9303,0.98724 1.8964,0 2.3596,-0.091 2.3596,-0.45616 0,-0.25012 -0.1979,-0.45414 -0.4404,-0.45414 -1.1596,0 -2.274,-1.0115 -4.6303,-4.19604 -1.4032,-1.89622 -2.5094,-3.47873 -2.4564,-3.51674 0.053,-0.0384 0.551,-0.24881 1.1057,-0.46991 3.6031,-1.43582 4.1025,-5.96487 0.8452,-7.66344 -1.0933,-0.5701 -1.8738,-0.66605 -6.3267,-0.77796 -1.0951,-0.0273 -1.9603,-0.0445 -2.642,-0.0495 z m 3.4457,0.95579 c 0.353,1.1e-4 0.7962,0.0293 1.242,0.0849 1.9483,0.24345 3.0566,1.13818 3.3509,2.70724 0.2883,1.53681 -0.043,2.55044 -1.2143,3.72208 -0.9077,0.90767 -1.1899,1.01493 -2.7112,1.01493 l -1.7001,0 0,-3.62138 c 0,-2.25714 0.1244,-3.69913 0.3278,-3.82479 0.09,-0.0556 0.3519,-0.0829 0.7049,-0.0829 z"
       id="path4452" />
    <path
       inkscape:connector-curvature="0"
       style="fill:#000000"
       d="m 251.24233,561.42556 c -2.0448,-0.0152 -2.4386,0.0839 -2.4386,0.37912 0,0.25144 0.3755,0.55059 0.8332,0.66544 1.605,0.40288 1.5936,0.35001 1.5936,7.75827 0,7.50664 -0.079,7.8707 -1.6903,7.8707 -0.4525,0 -0.7365,0.1747 -0.7365,0.45414 0,0.37912 0.6062,0.45616 3.6391,0.45616 3.033,0 3.6411,-0.0768 3.6411,-0.45616 0,-0.27944 -0.2838,-0.45414 -0.7365,-0.45414 -1.3997,0 -1.6901,-0.68101 -1.6901,-3.96492 l 0,-3.01135 1.0089,0 c 0.9288,0 1.1775,0.23617 3.1357,2.95797 1.1702,1.62649 2.3847,3.39916 2.6973,3.94136 0.5645,0.97864 0.5834,0.98724 2.9283,0.98724 1.8965,0 2.3617,-0.091 2.3617,-0.45616 0,-0.25012 -0.198,-0.45414 -0.4404,-0.45414 -1.1597,0 -2.2761,-1.0115 -4.6324,-4.19604 -1.4031,-1.89622 -2.5074,-3.47873 -2.4545,-3.51674 0.053,-0.0384 0.5491,-0.24881 1.1038,-0.46991 3.6031,-1.43582 4.1025,-5.96487 0.8452,-7.66344 -1.0933,-0.5701 -1.8738,-0.66605 -6.3266,-0.77796 -1.0952,-0.0273 -1.9604,-0.0445 -2.642,-0.0495 z m 3.4476,0.95579 c 0.353,1.1e-4 0.7942,0.0293 1.2401,0.0849 1.9483,0.24345 3.0565,1.13818 3.3509,2.70724 0.2882,1.53681 -0.043,2.55044 -1.2144,3.72208 -0.9077,0.90767 -1.1898,1.01493 -2.7112,1.01493 l -1.698,0 0,-3.62138 c 0,-2.25714 0.1224,-3.69913 0.3257,-3.82479 0.09,-0.0556 0.3539,-0.0829 0.7069,-0.0829 z"
       id="path4454" />
    <path
       inkscape:connector-curvature="0"
       style="fill:#000000"
       d="m 307.34063,578.55373 c 0,-0.27944 0.284,-0.45495 0.7365,-0.45495 1.603,0 1.6899,-0.38913 1.6899,-7.57922 0,-3.64444 -0.08,-6.83544 -0.1786,-7.09122 -0.098,-0.25578 -0.6441,-0.61873 -1.2132,-0.80657 -0.5691,-0.18784 -1.0346,-0.53563 -1.0346,-0.77291 0,-0.34909 0.6947,-0.43149 3.6395,-0.43149 2.9425,0 3.6396,0.0829 3.6396,0.43089 0,0.23697 -0.4106,0.52106 -0.9124,0.63126 -0.5019,0.1102 -1.0478,0.45333 -1.2132,0.76239 -0.1722,0.3217 -0.3008,3.35883 -0.3008,7.10285 0,6.13643 0.037,6.57834 0.6066,7.14743 0.4578,0.45777 1.011,0.60659 2.255,0.60659 2.7419,0 3.7828,-0.66028 4.9005,-3.10881 0.2855,-0.6255 0.7031,-1.13736 0.9279,-1.13736 0.4589,0 0.4969,0.58556 0.2141,3.29179 l -0.1948,1.86428 -6.7811,0 c -5.8253,0 -6.7809,-0.0637 -6.7809,-0.45495 z"
       id="path4456" />
    <path
       inkscape:connector-curvature="0"
       style="fill:#000000"
       d="m 333.42423,578.55373 c 0,-0.27944 0.284,-0.45495 0.7365,-0.45495 1.6031,0 1.6899,-0.38913 1.6899,-7.57922 0,-3.64444 -0.08,-6.83544 -0.1785,-7.09122 -0.098,-0.25578 -0.6441,-0.61873 -1.2132,-0.80657 -0.5691,-0.18784 -1.0347,-0.53563 -1.0347,-0.77291 0,-0.34909 0.6948,-0.43149 3.6396,-0.43149 2.9425,0 3.6396,0.0829 3.6396,0.43089 0,0.23697 -0.4107,0.52106 -0.9124,0.63126 -0.5019,0.1102 -1.0478,0.45333 -1.2132,0.76239 -0.1722,0.3217 -0.3008,3.35883 -0.3008,7.10285 0,6.13643 0.037,6.57834 0.6066,7.14743 0.4578,0.45777 1.011,0.60659 2.2549,0.60659 2.7419,0 3.7829,-0.66028 4.9005,-3.10881 0.2855,-0.6255 0.7032,-1.13736 0.928,-1.13736 0.4589,0 0.4969,0.58556 0.214,3.29179 l -0.1948,1.86428 -6.781,0 c -5.8254,0 -6.781,-0.0637 -6.781,-0.45495 z"
       id="path4458" />
    <path
       inkscape:connector-curvature="0"
       style="fill:#000000"
       d="m 68.64475,550.65028 0,-1.97144 153.62078,0 153.6205,0 0,1.97144 0,1.97144 -153.6205,0 -153.62078,0 0,-1.97144 z"
       id="path4460" />
    <path
       inkscape:connector-curvature="0"
       style="fill:#000000"
       d="m 70.74155,540.55762 c -4.85924,-2.53851 -5.94667,-10.01138 -2.13047,-14.64113 1.90825,-2.31487 5.51943,-3.23275 8.60336,-2.18668 1.45098,0.49216 1.80261,0.52319 2.08437,0.1837 0.18643,-0.22464 0.52693,-0.40844 0.75673,-0.40844 0.32837,0 0.41785,0.68192 0.41785,3.18463 0,2.54852 -0.0859,3.18464 -0.43059,3.18464 -0.2483,0 -0.64764,-0.65341 -0.94346,-1.5441 -1.41256,-4.25305 -5.12958,-5.39942 -7.82671,-2.41395 -1.31652,1.45725 -2.02129,3.68366 -2.02129,6.38555 0,2.57722 0.69729,4.60346 2.08488,6.05838 2.53941,2.66256 6.61251,2.19143 8.38579,-0.96995 0.44535,-0.79393 0.74066,-1.03738 1.03648,-0.85459 0.33322,0.20594 0.25699,0.52309 -0.39187,1.63013 -1.32349,2.25846 -3.21567,3.23387 -6.27312,3.23387 -1.31287,0 -2.13552,-0.20665 -3.35195,-0.84206 z"
       id="path4462" />
    <path
       inkscape:connector-curvature="0"
       style="fill:#000000"
       d="m 97.15439,523.35332 c -1.95981,10e-5 -2.5011,0.12647 -3.9176,0.9103 -2.8784,1.59302 -4.42856,4.48032 -4.39348,8.18865 0.0354,3.71429 1.8577,6.8408 4.80617,8.24396 1.27961,0.60892 1.91462,0.71376 3.83268,0.63985 1.93858,-0.0748 2.53133,-0.23222 3.78142,-1.00513 2.81249,-1.73881 4.15863,-4.28014 4.18218,-7.89243 0.0162,-2.49119 -0.54866,-4.31816 -1.87185,-6.05019 -1.6272,-2.12977 -3.54344,-3.03501 -6.41952,-3.03501 z m 0.12051,0.88856 c 1.07136,0.0414 2.15363,0.50237 3.0981,1.41782 1.55754,1.50962 2.08912,3.24024 2.08912,6.79257 0,2.76345 -0.0809,3.19555 -0.9103,4.85358 -0.73712,1.47434 -1.16649,1.949 -2.26291,2.50181 -2.97354,1.49951 -5.58565,0.28541 -7.01378,-3.26005 -0.27337,-0.67868 -0.42846,-2.21125 -0.42846,-4.24729 0,-2.87355 0.0829,-3.35347 0.84914,-4.91283 1.03778,-2.11348 2.79348,-3.21375 4.57909,-3.14561 z"
       id="path4464" />
    <path
       inkscape:connector-curvature="0"
       style="fill:#000000"
       d="m 122.32867,523.35332 c -1.95992,10e-5 -2.50312,0.12647 -3.91963,0.9103 -2.8784,1.59302 -4.42664,4.48032 -4.39146,8.18865 0.0354,3.71429 1.85771,6.8408 4.80617,8.24396 1.27952,0.60892 1.91452,0.71376 3.83268,0.63985 1.93858,-0.0748 2.52931,-0.23222 3.7794,-1.00513 2.81239,-1.73881 4.16055,-4.28014 4.18411,-7.89243 0.0162,-2.49119 -0.54867,-4.31816 -1.87186,-6.05019 -1.6272,-2.12977 -3.54344,-3.03501 -6.41941,-3.03501 z m 0.12041,0.88856 c 1.07135,0.0414 2.15362,0.50237 3.09819,1.41782 1.55744,1.50962 2.08912,3.24024 2.08912,6.79257 0,2.76345 -0.0809,3.19555 -0.9103,4.85358 -0.73722,1.47434 -1.16659,1.949 -2.26291,2.50181 -2.97364,1.49951 -5.58564,0.28541 -7.01378,-3.26005 -0.27337,-0.67868 -0.42845,-2.21125 -0.42845,-4.24729 0,-2.87355 0.0829,-3.35347 0.84903,-4.91283 1.03789,-2.11348 2.79348,-3.21375 4.5791,-3.14561 z"
       id="path4466" />
    <path
       inkscape:connector-curvature="0"
       style="fill:#000000"
       d="m 276.29093,541.15845 c -0.082,-0.13264 -1.3937,-3.56689 -2.9148,-7.63149 -1.5211,-4.06471 -2.89,-7.6224 -3.0419,-7.90618 -0.1518,-0.28379 -0.6908,-0.68778 -1.1976,-0.89766 -0.5068,-0.20999 -0.9214,-0.5699 -0.9214,-0.7999 0,-0.331 0.7261,-0.41815 3.4879,-0.41815 2.8981,0 3.4879,0.0768 3.4879,0.45495 0,0.25022 -0.2468,0.45494 -0.5486,0.45494 -0.3018,0 -0.7967,0.18148 -1.1,0.40319 -0.5208,0.38084 -0.4277,0.73287 1.6832,6.36927 1.229,3.28138 2.3192,5.96608 2.4229,5.96608 0.3235,0 4.2151,-10.41982 4.2151,-11.28604 0,-0.69566 -0.1859,-0.87724 -1.2132,-1.18499 -0.6672,-0.19987 -1.2132,-0.54664 -1.2132,-0.77037 0,-0.31463 0.723,-0.40703 3.1846,-0.40703 2.5299,0 3.1847,0.0869 3.1847,0.42532 0,0.23395 -0.3994,0.56454 -0.8875,0.73459 -0.4881,0.17015 -1.0845,0.62712 -1.3254,1.01545 -0.2408,0.38832 -1.7778,4.08401 -3.4156,8.21261 -2.6863,6.77205 -3.385,8.07785 -3.8871,7.26541 z"
       id="path4468" />
    <path
       inkscape:connector-curvature="0"
       style="fill:#000000"
       d="m 312.09933,540.80137 c -1.2285,-0.48002 -1.4849,-0.50176 -1.6248,-0.1375 -0.091,0.23789 -0.4243,0.43251 -0.74,0.43251 -0.5251,0 -0.5741,-0.25932 -0.5741,-3.03299 0,-3.60975 0.3757,-3.9172 1.5476,-1.26586 1.0703,2.42183 2.5066,3.50441 4.6768,3.52523 1.8562,0.0182 2.9851,-0.76522 3.2882,-2.2807 0.418,-2.09003 -0.8123,-3.51796 -4.1481,-4.81466 -3.8439,-1.49415 -4.7579,-2.49645 -4.7579,-5.21703 0,-1.43734 0.1386,-1.8938 0.8215,-2.70533 0.9663,-1.14849 2.8716,-2.08719 4.2554,-2.0966 0.5403,0 1.6547,0.24881 2.4762,0.561 1.3232,0.50277 1.5454,0.51592 1.9457,0.11576 0.8287,-0.82881 1.1166,-0.13446 1.1166,2.69299 0,2.37847 -0.065,2.72129 -0.5006,2.63597 -0.2753,-0.0536 -0.6852,-0.63157 -0.9108,-1.28366 -1.0075,-2.91268 -3.2093,-4.30411 -5.3773,-3.39826 -1.1965,0.49994 -1.7037,1.26486 -1.7037,2.56924 0,1.37475 1.2372,2.59745 3.5635,3.5216 4.6724,1.85629 5.6914,2.95584 5.4777,5.91048 -0.1531,2.11631 -0.8235,3.09637 -2.8073,4.10413 -1.8249,0.92698 -3.925,0.984 -6.0246,0.16368 z"
       id="path4470" />
    <path
       inkscape:connector-curvature="0"
       style="fill:#000000"
       d="m 367.69613,523.35332 c -1.9599,10e-5 -2.5012,0.12647 -3.9176,0.9103 -2.8785,1.59302 -4.4267,4.48032 -4.3915,8.18865 0.035,3.71429 1.8558,6.8408 4.8042,8.24396 1.2796,0.60892 1.9145,0.71376 3.8327,0.63985 1.9386,-0.0748 2.5312,-0.23222 3.7813,-1.00513 2.8125,-1.73881 4.1587,-4.28014 4.1823,-7.89243 0.016,-2.49119 -0.5488,-4.31816 -1.8719,-6.05019 -1.6272,-2.12977 -3.5435,-3.03501 -6.4195,-3.03501 z m 0.1205,0.88856 c 1.0713,0.0414 2.1536,0.50237 3.0981,1.41782 1.5575,1.50962 2.0892,3.24024 2.0892,6.79257 0,2.76345 -0.079,3.19555 -0.9084,4.85358 -0.7371,1.47434 -1.1684,1.949 -2.2648,2.50181 -2.9736,1.49951 -5.5857,0.28541 -7.0138,-3.26005 -0.2734,-0.67868 -0.4285,-2.21125 -0.4285,-4.24729 0,-2.87355 0.083,-3.35347 0.8491,-4.91283 1.0378,-2.11348 2.7935,-3.21375 4.5791,-3.14561 z"
       id="path4472" />
    <path
       inkscape:connector-curvature="0"
       style="fill:#000000"
       d="m 141.68163,523.50932 c -1.98316,-0.0121 -2.36754,0.0869 -2.36754,0.38306 0,0.25174 0.37356,0.55059 0.83134,0.66544 1.605,0.40288 1.5935,0.35 1.5935,7.75827 0,7.50664 -0.077,7.8707 -1.68823,7.8707 -0.45263,0 -0.73661,0.1747 -0.73661,0.45413 0,0.38014 0.62348,0.45616 3.79124,0.45616 3.1678,0 3.7912,-0.0758 3.7912,-0.45616 0,-0.30077 -0.3012,-0.45413 -0.8885,-0.45413 -1.5433,0 -1.8423,-0.61732 -1.8423,-3.81297 l 0,-2.8592 1.0208,0 c 3.3031,0 5.8894,-1.20712 6.8677,-3.20475 1.1723,-2.39343 0.5477,-4.69394 -1.6054,-5.90997 -1.1685,-0.65998 -1.6997,-0.73388 -6.2061,-0.84509 -1.0614,-0.0263 -1.9,-0.0414 -2.5611,-0.0455 z m 2.4841,1.20854 1.7436,0.0101 c 2.5589,0.0101 3.7162,1.13848 3.7162,3.62725 0,1.59433 -0.68,2.90246 -1.8107,3.48722 -0.4894,0.25305 -1.5099,0.46 -2.2689,0.46 l -1.3802,0 0,-3.79123 0,-3.79123 z"
       id="path4474" />
    <path
       inkscape:connector-curvature="0"
       style="fill:#000000"
       d="m 161.15083,540.64143 c 0,-0.27944 0.284,-0.45495 0.7365,-0.45495 1.6031,0 1.6898,-0.38913 1.6898,-7.57922 0,-3.64444 -0.08,-6.83544 -0.1784,-7.09122 -0.098,-0.25578 -0.6441,-0.61873 -1.2132,-0.80657 -0.5691,-0.18785 -1.0347,-0.53563 -1.0347,-0.77291 0,-0.36001 1.1053,-0.43149 6.6726,-0.43149 l 6.6726,0 0,2.12309 c 0,2.53567 -0.383,2.72271 -1.5696,0.76653 -0.9517,-1.56876 -2.2532,-2.06435 -5.0387,-1.91866 l -1.7324,0.091 0,3.48793 0,3.48793 1.6314,-0.0152 c 1.3948,-0.0131 1.736,-0.13639 2.3506,-0.85096 0.3955,-0.4598 0.7191,-1.10127 0.7191,-1.4256 0,-0.32433 0.2047,-0.58971 0.4549,-0.58971 0.3768,0 0.455,0.57293 0.455,3.33628 0,2.76335 -0.078,3.33628 -0.455,3.33628 -0.2502,0 -0.4549,-0.25457 -0.4549,-0.56565 0,-0.31119 -0.2829,-0.92536 -0.6287,-1.36484 -0.5528,-0.70275 -0.8454,-0.7992 -2.4263,-0.7992 l -1.7978,0 0,3.12671 c 0,4.22383 0.067,4.30411 3.5915,4.30411 2.4582,0 2.8058,-0.0718 3.4984,-0.72266 0.423,-0.39753 1.0139,-1.31834 1.3132,-2.04616 0.7613,-1.85143 1.3025,-1.72495 1.3025,0.30452 0,0.89665 -0.085,2.05676 -0.1896,2.57803 l -0.1896,0.94781 -7.0896,0 c -6.0997,0 -7.0896,-0.0637 -7.0896,-0.45495 z"
       id="path4476" />
    <path
       inkscape:connector-curvature="0"
       style="fill:#000000"
       d="m 186.33723,523.51326 c -2.0448,-0.0152 -2.4386,0.0839 -2.4386,0.37912 0,0.25144 0.3735,0.55059 0.8313,0.66544 1.6049,0.40288 1.5954,0.35 1.5954,7.75827 0,7.50664 -0.079,7.8707 -1.6902,7.8707 -0.4525,0 -0.7365,0.1747 -0.7365,0.45413 0,0.37913 0.6062,0.45616 3.6392,0.45616 3.033,0 3.6392,-0.0768 3.6392,-0.45616 0,-0.27943 -0.284,-0.45413 -0.7365,-0.45413 -1.3999,0 -1.6903,-0.68101 -1.6903,-3.96492 l 0,-3.01135 1.009,0 c 0.9288,0 1.1795,0.23617 3.1376,2.95797 1.1701,1.62648 2.3827,3.39916 2.6954,3.94136 0.5644,0.97864 0.5854,0.98723 2.9303,0.98723 1.8964,0 2.3596,-0.091 2.3596,-0.45616 0,-0.25012 -0.1979,-0.45413 -0.4404,-0.45413 -1.1596,0 -2.274,-1.01151 -4.6303,-4.19604 -1.4032,-1.89622 -2.5094,-3.47873 -2.4564,-3.51674 0.053,-0.0384 0.551,-0.24881 1.1057,-0.46991 3.6031,-1.43582 4.1025,-5.96487 0.8452,-7.66344 -1.0933,-0.5701 -1.8738,-0.66605 -6.3267,-0.77796 -1.0951,-0.0273 -1.9603,-0.0445 -2.642,-0.0495 z m 3.4457,0.95579 c 0.3529,10e-5 0.7962,0.0293 1.242,0.0849 1.9483,0.24344 3.0566,1.13817 3.3509,2.70724 0.2883,1.53681 -0.043,2.55043 -1.2143,3.72208 -0.9077,0.90767 -1.1899,1.01493 -2.7112,1.01493 l -1.7001,0 0,-3.62138 c 0,-2.25715 0.1244,-3.69913 0.3277,-3.82479 0.09,-0.0556 0.352,-0.0829 0.705,-0.0829 z"
       id="path4478" />
    <path
       inkscape:connector-curvature="0"
       style="fill:#000000"
       d="m 215.57313,523.57645 c -0.5027,-0.0688 -0.9947,0.98723 -3.4615,7.4305 -2.9354,7.66739 -3.783,9.17984 -5.1399,9.17984 -0.3576,0 -0.6298,0.19582 -0.6298,0.45413 0,0.3769 0.5736,0.45616 3.3371,0.45616 2.7633,0 3.3351,-0.0788 3.3351,-0.45616 0,-0.27296 -0.2788,-0.45413 -0.699,-0.45413 -0.3852,0 -0.9519,-0.18552 -1.2598,-0.41067 -0.6384,-0.46678 -0.552,-1.70939 0.2527,-3.63523 l 0.4719,-1.13151 3.0883,0.087 3.0902,0.0849 0.7879,2.21155 c 0.8545,2.39313 0.7429,2.77963 -0.8036,2.79014 -0.4024,0 -0.6813,0.18987 -0.6813,0.45809 0,0.37912 0.6062,0.45616 3.6392,0.45616 3.033,0 3.6392,-0.0768 3.6392,-0.45616 0,-0.25023 -0.2575,-0.45414 -0.5726,-0.45414 -1.253,0 -1.8745,-1.13383 -4.8279,-8.79687 -2.3767,-6.16646 -3.0989,-7.74958 -3.5662,-7.81347 z m -0.7049,4.08947 c 0.2679,0.27074 2.3932,5.75549 2.3932,6.17647 0,0.28955 -4.6319,0.39944 -4.9148,0.11657 -0.089,-0.089 0.389,-1.59596 1.0623,-3.347 0.6734,-1.75105 1.3304,-3.07636 1.4593,-2.94604 z"
       id="path4480" />
    <path
       inkscape:connector-curvature="0"
       style="fill:#000000"
       d="m 233.94253,540.64143 c 0,-0.3033 0.3033,-0.45495 0.9098,-0.45495 0.5055,0 1.1795,-0.26953 1.5165,-0.60659 0.5721,-0.57203 0.6066,-1.011 0.6066,-7.71612 0,-4.7268 -0.1088,-7.17695 -0.3248,-7.3104 -0.1787,-0.1104 -0.9319,-0.10969 -1.6739,0 -1.5124,0.22677 -2.6411,1.21299 -3.2243,2.81724 -0.6629,1.82383 -1.1462,1.2141 -1.1462,-1.44593 l 0,-2.43164 7.5066,0.0809 7.5066,0.0809 0.089,2.35056 c 0.1026,2.72524 -0.3883,3.163 -1.2943,1.15395 -0.801,-1.77622 -1.6578,-2.43357 -3.4485,-2.64567 l -1.5635,-0.18512 0,7.43587 c 0,8.09595 -0.032,7.94349 1.7729,8.30461 0.5263,0.10525 0.9569,0.37903 0.9569,0.60842 0,0.33322 -0.8226,0.41704 -4.0945,0.41704 -3.4374,0 -4.0945,-0.0728 -4.0945,-0.45495 z"
       id="path4482" />
    <path
       inkscape:connector-curvature="0"
       style="fill:#000000"
       d="m 253.05033,540.64143 c 0,-0.29642 0.2968,-0.45495 0.8518,-0.45495 1.8901,0 1.8977,-0.0334 1.8078,-7.88586 l -0.082,-7.12741 -1.2919,-0.44656 c -2.1407,-0.74004 -1.368,-1.06366 2.7573,-1.15475 3.2335,-0.0718 3.8423,-0.0131 3.8423,0.36537 0,0.27509 -0.4161,0.52835 -1.0698,0.65098 -0.5883,0.1103 -1.2025,0.44878 -1.3649,0.75198 -0.3962,0.74045 -0.3856,13.20055 0.012,13.94333 0.1688,0.31543 0.783,0.66291 1.3648,0.772 0.6052,0.11353 1.0579,0.37872 1.0579,0.61964 0,0.33787 -0.7808,0.42118 -3.9429,0.42118 -3.3026,0 -3.9428,-0.0738 -3.9428,-0.45495 z"
       id="path4484" />
    <path
       inkscape:connector-curvature="0"
       style="fill:#000000"
       d="m 292.47893,540.64143 c 0,-0.29642 0.2969,-0.45495 0.8519,-0.45495 1.8902,0 1.8976,-0.0334 1.8078,-7.88586 l -0.082,-7.12741 -1.2919,-0.44656 c -2.1408,-0.74004 -1.368,-1.06366 2.7573,-1.15475 3.2335,-0.0718 3.8423,-0.0131 3.8423,0.36537 0,0.27509 -0.4161,0.52835 -1.0698,0.65098 -0.5883,0.1103 -1.2025,0.44878 -1.3649,0.75198 -0.3962,0.74045 -0.3856,13.20055 0.012,13.94333 0.1688,0.31543 0.783,0.66291 1.3648,0.772 0.6052,0.11353 1.0579,0.37872 1.0579,0.61964 0,0.33787 -0.7807,0.42118 -3.9429,0.42118 -3.3026,0 -3.9429,-0.0738 -3.9429,-0.45495 z"
       id="path4486" />
    <path
       inkscape:connector-curvature="0"
       style="fill:#000000"
       d="m 329.17813,540.6752 c 0,-0.24092 0.4526,-0.50611 1.0578,-0.61964 1.7039,-0.31958 1.8148,-0.79505 1.8193,-7.79801 0,-5.6736 -0.048,-6.31922 -0.558,-6.88285 -0.3093,-0.34212 -0.9648,-0.71042 -1.4568,-0.8185 -0.492,-0.10807 -0.8421,-0.35466 -0.778,-0.54796 0.075,-0.22535 1.1557,-0.38246 3.0125,-0.43786 2.546,-0.0758 2.9217,-0.0212 3.1078,0.45495 0.1165,0.29774 1.1694,3.06624 2.34,6.1523 1.1705,3.08607 2.2296,5.79351 2.3537,6.01643 0.2104,0.37812 2.6677,-5.44582 4.4584,-10.5659 l 0.6894,-1.97144 2.744,-0.087 c 2.2417,-0.0718 2.744,-0.0101 2.744,0.35506 0,0.24507 -0.4069,0.53159 -0.9124,0.64269 -0.5018,0.1102 -1.0478,0.45323 -1.2132,0.76239 -0.1721,0.3217 -0.3007,3.35883 -0.3007,7.10285 0,6.13643 0.037,6.57834 0.6065,7.14743 0.3337,0.33363 0.8796,0.6066 1.2132,0.6066 0.337,0 0.6066,0.20219 0.6066,0.45494 0,0.38014 -0.6234,0.45495 -3.7912,0.45495 -3.1678,0 -3.7912,-0.0748 -3.7912,-0.45495 0,-0.29774 0.298,-0.45494 0.8629,-0.45494 1.7896,0 1.8875,-0.4226 1.7969,-7.76465 l -0.082,-6.64203 -3.0141,7.50664 c -1.6577,4.1287 -3.159,7.50562 -3.3362,7.50451 -0.1773,-10e-4 -1.5365,-3.31091 -3.0204,-7.35499 -1.484,-4.04408 -2.8237,-7.48935 -2.9772,-7.65616 -0.1701,-0.18511 -0.2416,2.25573 -0.1831,6.2623 0.1057,7.23964 0.1954,7.58155 2.0987,7.9996 0.4831,0.10616 0.8784,0.38691 0.8784,0.62378 0,0.34738 -0.6764,0.43089 -3.4879,0.43089 -2.774,0 -3.4879,-0.0859 -3.4879,-0.42118 z"
       id="path4488" />
    <path
       inkscape:connector-curvature="0"
       style="fill:#000000"
       d="m 66.52166,512.88973 0,-1.81979 154.68217,0 154.6822,0 0,1.81979 0,1.81969 -154.6822,0 -154.68217,0 0,-1.81969 z"
       id="path4490" />
    <path
       inkscape:connector-curvature="0"
       style="fill:#000000"
       d="m 85.8353,496.19143 c -3.87029,-0.44989 -8.49236,-2.22045 -11.99192,-4.59386 -3.64817,-2.47411 -7.53272,-7.42201 -9.49667,-12.09655 -3.1447,-7.4846 -3.53171,-17.40357 -0.993,-25.45119 3.30696,-10.4831 11.06169,-17.7656 21.12564,-19.83935 1.40084,-0.28864 3.84663,-0.48164 6.10287,-0.48164 4.57839,0 8.3404,0.8456 12.07259,2.71361 1.35079,0.67605 2.49544,1.22927 2.54377,1.22927 0.0485,0 0.44756,-0.61418 0.88755,-1.36484 0.78918,-1.34685 0.82123,-1.36485 2.41597,-1.36485 l 1.61628,0 0.18552,2.35057 c 0.10201,1.29276 0.21281,6.10388 0.24617,10.69127 l 0.0607,8.3407 -1.57118,0.092 c -1.81838,0.10606 -1.5993,0.41987 -3.06534,-4.38953 -2.58441,-8.478 -6.75395,-13.3331 -12.48275,-14.53477 -6.84747,-1.43642 -14.2615,2.37452 -17.78026,9.13949 -2.69754,5.1862 -3.82662,10.44277 -3.84077,17.88217 -0.0101,5.46524 0.48073,8.66403 1.94727,12.68243 4.42897,12.13577 15.72694,17.54177 26.20772,12.54007 3.60197,-1.71889 6.97869,-5.33896 8.85055,-9.48829 0.44231,-0.98036 0.83852,-1.82575 0.88057,-1.87863 0.0425,-0.0526 0.77028,0.25528 1.6182,0.68495 l 1.54167,0.7812 -0.76037,1.7195 c -1.72749,3.90598 -4.69395,7.85007 -7.50866,9.98307 -3.53191,2.6765 -7.43233,4.1103 -12.68707,4.66371 -3.1445,0.33121 -3.18807,0.33121 -6.12501,-0.0101 z"
       id="path4492" />
    <path
       inkscape:connector-curvature="0"
       style="fill:#000000"
       d="m 352.53203,495.63498 c -2.8105,-0.62379 -5.664,-1.63508 -8.1081,-2.87365 l -1.5658,-0.79333 -0.8499,1.51326 -0.8499,1.51325 -1.7106,3.1e-4 -1.7106,3e-4 -0.1886,-6.29344 c -0.1038,-3.46145 -0.2697,-8.10909 -0.3686,-10.32822 l -0.18,-4.03488 1.7496,0.092 1.7497,0.092 0.822,2.42639 c 2.3127,6.82643 5.6822,11.47559 9.9757,13.76398 4.8838,2.60301 11.7741,2.3726 15.4209,-0.51561 4.0356,-3.19626 4.4479,-10.59118 0.8628,-15.47499 -1.6385,-2.23207 -3.7108,-3.45022 -9.8925,-5.81524 -6.858,-2.62363 -11.2092,-4.71953 -13.1215,-6.32044 -4.0357,-3.37844 -5.683,-6.98172 -5.683,-12.43078 0,-4.58042 1.3364,-7.75251 4.6959,-11.14571 3.5845,-3.62048 8.0754,-5.38861 13.6537,-5.37566 4.3216,0.0101 6.6665,0.72842 12.9594,3.96977 0.1216,0.0627 0.5983,-0.51076 1.0594,-1.27416 l 0.8383,-1.38799 1.7462,0 1.7462,0 0,4.50094 c 0,2.47542 0.09,6.98689 0.2001,10.02543 l 0.2001,5.52448 -1.7553,-0.092 -1.7554,-0.092 -1.1164,-3.48793 c -2.2215,-6.94078 -5.0573,-10.94978 -9.0833,-12.84145 -1.7414,-0.8182 -2.4138,-0.95812 -5.0906,-1.05993 -2.8312,-0.10767 -3.2294,-0.0506 -4.8528,0.69031 -2.0386,0.93092 -3.8118,2.52384 -4.7462,4.26377 -0.5267,0.98096 -0.6525,1.73587 -0.6567,3.94287 -0.01,3.46125 0.6242,5.19045 2.6901,7.37491 1.892,2.00045 3.961,3.15835 9.5883,5.36616 9.1107,3.57437 11.8465,5.02009 14.7396,7.7889 3.1371,3.00235 4.3682,6.10611 4.3682,11.01307 0,4.22747 -1.019,7.40887 -3.3876,10.57703 -2.3361,3.12458 -6.5656,5.89046 -10.7158,7.0073 -2.9109,0.78332 -8.5917,0.87674 -11.677,0.19199 z"
       id="path4496" />
    <path
       inkscape:connector-curvature="0"
       style="fill:#000000"
       d="m 210.58923,434.94264 0,1.45331 0,1.45532 1.9865,0.34162 c 2.7552,0.47193 4.7079,1.49637 5.367,2.81572 0.4909,0.98279 0.5308,2.77761 0.5311,24.19674 4e-4,19.64333 -0.067,23.29706 -0.4443,24.20069 -0.5782,1.38385 -2.2669,2.14351 -5.3946,2.42679 l -2.3497,0.21322 0,1.47504 0,1.47504 13.8755,0 c 17.9522,0 20.8564,-0.39722 27.828,-3.78132 5.3502,-2.59715 8.6682,-5.4523 11.6304,-10.00733 3.0504,-4.69051 4.2828,-9.29822 4.2888,-16.03761 0.014,-14.34693 -7.11,-24.37448 -20.2654,-28.52512 -5.0391,-1.58989 -6.5093,-1.70009 -22.384,-1.70009 l -14.6693,0 z m 21.5745,3.35883 c 2.9272,-0.0101 6.6423,0.28732 8.2993,0.72074 2.4979,0.6534 6.3544,2.6029 8.2458,4.17035 4.3038,3.56649 7.2987,9.12675 8.4454,15.67436 0.5106,2.91541 0.5787,9.78603 0.1284,12.92567 -0.7344,5.11998 -2.6379,10.02442 -5.0827,13.09359 -2.3113,2.90176 -6.5243,5.38365 -10.3725,6.11137 -5.574,1.05416 -11.0398,0.3315 -12.8428,-1.70009 -1.3827,-1.55805 -1.384,-1.59212 -1.3981,-26.80713 l -0.014,-23.8611 2.0319,-0.21716 c 0.6953,-0.0748 1.5833,-0.10858 2.5591,-0.1106 z"
       id="path4498" />
    <path
       inkscape:connector-curvature="0"
       style="fill:#000000"
       d="m 274.28113,493.51826 0,-1.47676 2.7679,-0.35496 c 2.9377,-0.3768 3.9892,-0.76805 4.967,-1.8482 0.5931,-0.65533 0.6076,-1.16325 0.6871,-24.16166 0.09,-25.91099 0.1625,-24.85591 -1.7936,-26.01138 -1.0112,-0.59729 -4.8192,-1.67653 -5.9459,-1.68513 -0.6161,0 -0.6825,-0.15276 -0.6825,-1.52164 l 0,-1.5165 23.2023,0 23.2023,0 0,7.27917 0,7.27916 -1.4407,-0.0101 -1.4406,-0.0101 -1.2663,-2.64385 c -1.4278,-2.98133 -3.6122,-5.84932 -5.4101,-7.10366 -1.7579,-1.22623 -3.6205,-1.45451 -11.8663,-1.45451 l -7.3894,0 0,12.019 0,12.01911 5.0803,-0.13699 c 5.7648,-0.15539 7.0771,-0.52116 8.7645,-2.44317 1.0074,-1.14737 2.046,-3.58519 2.5717,-6.03644 l 0.3152,-1.46979 1.4913,0 1.4914,0 0,11.82864 0,11.82864 -1.5027,0 c -1.5005,0 -1.503,0 -1.6932,-1.13737 -0.4754,-2.84019 -1.7314,-5.91311 -2.8906,-7.07231 -1.7145,-1.71435 -3.3762,-2.10247 -9.0019,-2.10247 l -4.6662,0 0.096,11.14622 c 0.091,10.57005 0.1277,11.20051 0.7132,12.19704 1.0459,1.78026 2.1088,2.17799 6.7303,2.51809 4.8038,0.35354 11.875,-0.0637 14.0631,-0.83074 0.7663,-0.26842 1.817,-0.92607 2.3351,-1.46149 1.2614,-1.30338 3.5638,-5.18155 5.2206,-8.79343 l 1.3518,-2.94705 1.4912,0 1.4912,0 -0.1841,2.50221 c -0.1013,1.37617 -0.353,5.33421 -0.5594,8.79566 l -0.3754,6.29344 -24.9624,0 -24.9623,0 0,-1.47686 z"
       id="path4500" />
    <path
       inkscape:connector-curvature="0"
       style="fill:#000000"
       d="m 66.52166,419.47382 0,-1.81979 154.68217,0 154.6822,0 0,1.81979 0,1.81979 -154.6822,0 -154.68217,0 0,-1.81979 z"
       id="path4502" />
    <path
       inkscape:connector-curvature="0"
       id="path4510"
       d="m 148.62143,433.7587 c -0.7866,0.032 -1.565,0.1001 -2.3299,0.2014 -9.67473,1.2782 -17.4504,6.9515 -21.84701,15.943 -2.55751,5.2302 -3.7337,11.2432 -3.36075,17.173 1.00635,16.0032 10.7396,27.4808 24.90366,29.3663 5.0832,0.6766 11.2641,-0.2628 15.8441,-2.409 3.4626,-1.6227 5.8699,-3.3999 8.7415,-6.4511 4.7612,-5.0589 7.2885,-10.9863 8.0308,-18.8396 1.2418,-13.1391 -4.1801,-25.1079 -14.0789,-31.0782 -4.4882,-2.7071 -10.3967,-4.1335 -15.9034,-3.9058 z m 1.169,3.8643 c 5.0003,-0.01 8.134,1.2059 11.3717,4.3954 1.016,1.0009 2.3594,2.6715 2.9857,3.7123 5.4255,9.0175 5.8976,27.0123 0.9675,36.929 -2.4224,4.8724 -5.2536,7.6359 -9.5017,9.2747 -2.2857,0.8816 -7.8959,1.1121 -10.3529,0.4245 -6.49567,-1.8177 -11.14716,-7.8694 -13.06592,-16.9993 -0.9102,-4.3311 -1.13616,-11.895 -0.49954,-16.6953 1.00372,-7.569 3.11983,-12.7345 6.70765,-16.3793 3.36971,-3.4231 6.37931,-4.6559 11.38751,-4.662 z"
       style="opacity:0.98999999;fill:#003b1f;fill-opacity:1" />
    <path
       style="fill:#b97e00;fill-opacity:1"
       d="m 176.51953,433.75867 c -0.7866,0.032 -1.565,0.1001 -2.3299,0.2014 -9.6747,1.2782 -17.4504,6.9515 -21.847,15.943 -2.5575,5.2303 -3.7337,11.2433 -3.3608,17.173 1.0064,16.0032 10.7396,27.4808 24.9037,29.3663 5.0832,0.6767 11.2641,-0.2627 15.8441,-2.409 3.4626,-1.6226 5.8699,-3.3999 8.7415,-6.451 4.7612,-5.059 7.2885,-10.9864 8.0308,-18.8397 1.2418,-13.1391 -4.1801,-25.1079 -14.0789,-31.0782 -4.4882,-2.707 -10.3967,-4.1335 -15.9034,-3.9058 z m 1.169,3.8643 c 5.0003,-0.01 8.134,1.206 11.3717,4.3954 1.0161,1.0009 2.3594,2.6715 2.9857,3.7123 5.4255,9.0175 5.8976,27.0123 0.9675,36.929 -2.4224,4.8724 -5.2536,7.636 -9.5017,9.2747 -2.2857,0.8816 -7.8959,1.1121 -10.3529,0.4245 -6.4957,-1.8177 -11.1472,-7.8694 -13.0659,-16.9993 -0.9102,-4.3311 -1.1362,-11.895 -0.4996,-16.6952 1.0038,-7.569 3.1199,-12.7346 6.7077,-16.3794 3.3697,-3.4231 6.3793,-4.6559 11.3875,-4.662 z"
       id="path4512"
       inkscape:connector-curvature="0" />
  </g>
</svg>
